M48
;GenerationSoftware,Autodesk,EAGLE,9.6.2*%
;CreationDate,2023-07-21T01:05:26Z*%
FMAT,2
ICI,OFF
METRIC,TZ,000.000
T10C0.350
T9C0.600
T8C0.900
T7C1.000
T6C1.016
T5C1.240
T4C1.321
T3C1.340
T2C2.794
T1C4.000
%
G90
M71
T1
X5080Y6350
X55880Y6350
X5080Y93980
X55880Y93980
T2
X15240Y24130
T3
X26670Y10160
X26670Y7620
X26670Y5080
T4
X41300Y95123
X52070Y71095
X52070Y66065
X31140Y95123
X26010Y95123
X20980Y95123
X15850Y95123
X10820Y95123
X46330Y95123
X36170Y95123
X7620Y24130
X22860Y24130
X10185Y7620
X15215Y7620
X44475Y7620
X49505Y7620
X34315Y7620
X39345Y7620
T5
X5080Y34290
X7620Y34290
X10160Y34290
T6
X17780Y44450
X20320Y44450
X22860Y44450
T7
X29464Y19939
X29500Y61500
X31500Y68000
T8
X5080Y37465
X19050Y20066
X19050Y28702
X19304Y36195
X14097Y41910
X15113Y11684
X22479Y35306
X11176Y29591
T9
X9652Y69977
X12192Y69977
X14732Y69977
X17272Y69977
X19812Y69977
X7112Y48768
X7112Y51308
X7112Y53848
X7112Y56388
X7112Y58928
X7112Y61468
X7112Y64008
X7112Y69977
X7112Y66548
T10
X19812Y77597
X7112Y77597
M30