G04 EAGLE Gerber RS-274X export*
G75*
%MOMM*%
%FSLAX34Y34*%
%LPD*%
%INTop Copper*%
%IPPOS*%
%AMOC8*
5,1,8,0,0,1.08239X$1,22.5*%
G01*
%ADD10R,1.070000X2.160000*%
%ADD11R,0.635000X1.270000*%
%ADD12R,3.500000X2.500000*%
%ADD13C,0.582500*%
%ADD14R,4.000000X1.600000*%
%ADD15R,1.500000X1.300000*%
%ADD16R,1.200000X1.200000*%
%ADD17R,1.300000X1.500000*%
%ADD18R,2.010000X2.010000*%
%ADD19C,2.010000*%
%ADD20C,2.540000*%
%ADD21C,1.981200*%
%ADD22C,0.237500*%
%ADD23C,0.563000*%
%ADD24R,1.300000X1.600000*%
%ADD25R,1.400000X2.600000*%
%ADD26C,1.108000*%
%ADD27R,1.600000X1.803000*%
%ADD28C,1.524000*%
%ADD29R,1.860000X1.860000*%
%ADD30C,1.860000*%
%ADD31R,1.803000X1.600000*%
%ADD32C,0.750000*%
%ADD33C,0.300000*%
%ADD34C,1.500000*%
%ADD35C,1.350000*%

G36*
X589098Y10164D02*
X589098Y10164D01*
X589117Y10162D01*
X589219Y10184D01*
X589321Y10200D01*
X589338Y10210D01*
X589358Y10214D01*
X589447Y10267D01*
X589538Y10316D01*
X589552Y10330D01*
X589569Y10340D01*
X589636Y10419D01*
X589708Y10494D01*
X589716Y10512D01*
X589729Y10527D01*
X589768Y10623D01*
X589811Y10717D01*
X589813Y10737D01*
X589821Y10755D01*
X589839Y10922D01*
X589839Y57026D01*
X589835Y57050D01*
X589838Y57074D01*
X589816Y57171D01*
X589800Y57269D01*
X589788Y57290D01*
X589783Y57313D01*
X589731Y57398D01*
X589684Y57486D01*
X589667Y57503D01*
X589654Y57523D01*
X589578Y57587D01*
X589506Y57655D01*
X589484Y57665D01*
X589466Y57681D01*
X589373Y57717D01*
X589283Y57759D01*
X589259Y57762D01*
X589237Y57770D01*
X589137Y57775D01*
X589039Y57786D01*
X589015Y57781D01*
X588991Y57782D01*
X588895Y57755D01*
X588798Y57734D01*
X588778Y57721D01*
X588754Y57715D01*
X588672Y57659D01*
X588587Y57608D01*
X588571Y57589D01*
X588552Y57576D01*
X588492Y57496D01*
X588427Y57421D01*
X588418Y57398D01*
X588404Y57379D01*
X588343Y57223D01*
X586905Y51858D01*
X582935Y44981D01*
X577319Y39365D01*
X570442Y35395D01*
X562771Y33339D01*
X554829Y33339D01*
X547158Y35395D01*
X540281Y39365D01*
X534665Y44981D01*
X530695Y51858D01*
X528639Y59529D01*
X528639Y67471D01*
X530695Y75142D01*
X534665Y82019D01*
X540281Y87635D01*
X547158Y91605D01*
X554829Y93661D01*
X562771Y93661D01*
X570442Y91605D01*
X577319Y87635D01*
X582935Y82019D01*
X586905Y75142D01*
X588343Y69777D01*
X588353Y69755D01*
X588357Y69731D01*
X588403Y69644D01*
X588444Y69553D01*
X588460Y69535D01*
X588472Y69514D01*
X588544Y69446D01*
X588611Y69373D01*
X588632Y69361D01*
X588650Y69345D01*
X588740Y69303D01*
X588827Y69255D01*
X588851Y69251D01*
X588873Y69241D01*
X588972Y69230D01*
X589070Y69213D01*
X589094Y69217D01*
X589117Y69214D01*
X589214Y69235D01*
X589313Y69250D01*
X589334Y69261D01*
X589358Y69266D01*
X589443Y69317D01*
X589532Y69363D01*
X589548Y69380D01*
X589569Y69392D01*
X589634Y69468D01*
X589703Y69539D01*
X589713Y69561D01*
X589729Y69579D01*
X589766Y69672D01*
X589809Y69761D01*
X589812Y69785D01*
X589821Y69807D01*
X589839Y69974D01*
X589839Y933326D01*
X589835Y933350D01*
X589838Y933374D01*
X589816Y933471D01*
X589800Y933569D01*
X589788Y933590D01*
X589783Y933613D01*
X589731Y933698D01*
X589684Y933786D01*
X589667Y933803D01*
X589654Y933823D01*
X589578Y933887D01*
X589506Y933955D01*
X589484Y933965D01*
X589466Y933981D01*
X589373Y934017D01*
X589283Y934059D01*
X589259Y934062D01*
X589237Y934070D01*
X589137Y934075D01*
X589039Y934086D01*
X589015Y934081D01*
X588991Y934082D01*
X588895Y934055D01*
X588798Y934034D01*
X588778Y934021D01*
X588754Y934015D01*
X588672Y933959D01*
X588587Y933908D01*
X588571Y933889D01*
X588552Y933876D01*
X588492Y933796D01*
X588427Y933721D01*
X588418Y933698D01*
X588404Y933679D01*
X588343Y933523D01*
X586905Y928158D01*
X582935Y921281D01*
X577319Y915665D01*
X570442Y911695D01*
X562771Y909639D01*
X554829Y909639D01*
X547158Y911695D01*
X540281Y915665D01*
X534665Y921281D01*
X530695Y928158D01*
X528639Y935829D01*
X528639Y943771D01*
X530695Y951442D01*
X534665Y958319D01*
X540281Y963935D01*
X547158Y967905D01*
X554829Y969961D01*
X562771Y969961D01*
X570442Y967905D01*
X577319Y963935D01*
X582935Y958319D01*
X586905Y951442D01*
X588343Y946077D01*
X588353Y946055D01*
X588357Y946031D01*
X588403Y945944D01*
X588444Y945853D01*
X588460Y945835D01*
X588472Y945814D01*
X588544Y945746D01*
X588611Y945673D01*
X588632Y945661D01*
X588650Y945645D01*
X588740Y945603D01*
X588827Y945555D01*
X588851Y945551D01*
X588873Y945541D01*
X588972Y945530D01*
X589070Y945513D01*
X589094Y945517D01*
X589117Y945514D01*
X589214Y945535D01*
X589313Y945550D01*
X589334Y945561D01*
X589358Y945566D01*
X589443Y945617D01*
X589532Y945663D01*
X589548Y945680D01*
X589569Y945692D01*
X589634Y945768D01*
X589703Y945839D01*
X589713Y945861D01*
X589729Y945879D01*
X589766Y945972D01*
X589809Y946061D01*
X589812Y946085D01*
X589821Y946107D01*
X589839Y946274D01*
X589839Y989078D01*
X589836Y989098D01*
X589838Y989117D01*
X589816Y989219D01*
X589800Y989321D01*
X589790Y989338D01*
X589786Y989358D01*
X589733Y989447D01*
X589684Y989538D01*
X589670Y989552D01*
X589660Y989569D01*
X589581Y989636D01*
X589506Y989708D01*
X589488Y989716D01*
X589473Y989729D01*
X589377Y989768D01*
X589283Y989811D01*
X589263Y989813D01*
X589245Y989821D01*
X589078Y989839D01*
X383407Y989839D01*
X383336Y989828D01*
X383265Y989826D01*
X383216Y989808D01*
X383164Y989800D01*
X383101Y989766D01*
X383034Y989741D01*
X382993Y989709D01*
X382947Y989684D01*
X382898Y989632D01*
X382842Y989588D01*
X382813Y989544D01*
X382777Y989506D01*
X382747Y989441D01*
X382709Y989381D01*
X382696Y989330D01*
X382674Y989283D01*
X382666Y989212D01*
X382648Y989142D01*
X382653Y989090D01*
X382647Y989039D01*
X382662Y988968D01*
X382668Y988897D01*
X382688Y988849D01*
X382699Y988798D01*
X382736Y988737D01*
X382764Y988671D01*
X382809Y988615D01*
X382825Y988587D01*
X382843Y988572D01*
X382869Y988540D01*
X395807Y975601D01*
X397644Y973764D01*
X398581Y971503D01*
X398581Y651833D01*
X398595Y651743D01*
X398603Y651652D01*
X398615Y651622D01*
X398620Y651590D01*
X398663Y651510D01*
X398699Y651426D01*
X398725Y651394D01*
X398736Y651373D01*
X398759Y651351D01*
X398804Y651295D01*
X421425Y628674D01*
X421499Y628621D01*
X421568Y628561D01*
X421598Y628549D01*
X421625Y628530D01*
X421711Y628503D01*
X421796Y628469D01*
X421837Y628465D01*
X421860Y628458D01*
X421892Y628459D01*
X421963Y628451D01*
X509223Y628451D01*
X511484Y627514D01*
X551814Y587184D01*
X552751Y584923D01*
X552751Y552012D01*
X552754Y551992D01*
X552752Y551973D01*
X552774Y551871D01*
X552790Y551769D01*
X552800Y551752D01*
X552804Y551732D01*
X552857Y551643D01*
X552906Y551552D01*
X552920Y551538D01*
X552930Y551521D01*
X553009Y551454D01*
X553084Y551382D01*
X553102Y551374D01*
X553117Y551361D01*
X553213Y551322D01*
X553307Y551279D01*
X553327Y551277D01*
X553345Y551269D01*
X553512Y551251D01*
X575645Y551251D01*
X578701Y548195D01*
X578701Y493205D01*
X575645Y490149D01*
X553512Y490149D01*
X553492Y490146D01*
X553473Y490148D01*
X553371Y490126D01*
X553269Y490110D01*
X553252Y490100D01*
X553232Y490096D01*
X553143Y490043D01*
X553052Y489994D01*
X553038Y489980D01*
X553021Y489970D01*
X552954Y489891D01*
X552882Y489816D01*
X552874Y489798D01*
X552861Y489783D01*
X552822Y489687D01*
X552779Y489593D01*
X552777Y489573D01*
X552769Y489555D01*
X552751Y489388D01*
X552751Y468462D01*
X552754Y468442D01*
X552752Y468423D01*
X552774Y468321D01*
X552790Y468219D01*
X552800Y468202D01*
X552804Y468182D01*
X552857Y468093D01*
X552906Y468002D01*
X552920Y467988D01*
X552930Y467971D01*
X553009Y467904D01*
X553084Y467832D01*
X553102Y467824D01*
X553117Y467811D01*
X553213Y467772D01*
X553307Y467729D01*
X553327Y467727D01*
X553345Y467719D01*
X553512Y467701D01*
X566794Y467701D01*
X568201Y466294D01*
X568201Y438306D01*
X566794Y436899D01*
X550806Y436899D01*
X549399Y438306D01*
X549399Y452687D01*
X549385Y452777D01*
X549377Y452868D01*
X549365Y452898D01*
X549360Y452930D01*
X549317Y453010D01*
X549281Y453094D01*
X549255Y453126D01*
X549244Y453147D01*
X549221Y453169D01*
X549176Y453225D01*
X541386Y461016D01*
X540449Y463277D01*
X540449Y489388D01*
X540446Y489408D01*
X540448Y489427D01*
X540426Y489529D01*
X540410Y489631D01*
X540400Y489648D01*
X540396Y489668D01*
X540343Y489757D01*
X540294Y489848D01*
X540280Y489862D01*
X540270Y489879D01*
X540191Y489946D01*
X540116Y490018D01*
X540098Y490026D01*
X540083Y490039D01*
X539987Y490078D01*
X539893Y490121D01*
X539873Y490123D01*
X539855Y490131D01*
X539688Y490149D01*
X517555Y490149D01*
X514499Y493205D01*
X514499Y548195D01*
X517555Y551251D01*
X539688Y551251D01*
X539708Y551254D01*
X539727Y551252D01*
X539829Y551274D01*
X539931Y551290D01*
X539948Y551300D01*
X539968Y551304D01*
X540057Y551357D01*
X540148Y551406D01*
X540162Y551420D01*
X540179Y551430D01*
X540246Y551509D01*
X540318Y551584D01*
X540326Y551602D01*
X540339Y551617D01*
X540378Y551713D01*
X540421Y551807D01*
X540423Y551827D01*
X540431Y551845D01*
X540449Y552012D01*
X540449Y580837D01*
X540435Y580927D01*
X540427Y581018D01*
X540415Y581048D01*
X540410Y581080D01*
X540367Y581160D01*
X540331Y581244D01*
X540305Y581276D01*
X540294Y581297D01*
X540271Y581319D01*
X540226Y581375D01*
X505675Y615926D01*
X505601Y615979D01*
X505532Y616039D01*
X505502Y616051D01*
X505475Y616070D01*
X505389Y616097D01*
X505304Y616131D01*
X505263Y616135D01*
X505240Y616142D01*
X505208Y616141D01*
X505137Y616149D01*
X417877Y616149D01*
X415616Y617086D01*
X387216Y645486D01*
X386279Y647747D01*
X386279Y967417D01*
X386265Y967507D01*
X386257Y967598D01*
X386245Y967628D01*
X386240Y967660D01*
X386197Y967740D01*
X386161Y967824D01*
X386135Y967856D01*
X386124Y967877D01*
X386101Y967899D01*
X386056Y967955D01*
X374295Y979716D01*
X374221Y979769D01*
X374152Y979829D01*
X374122Y979841D01*
X374095Y979860D01*
X374009Y979887D01*
X373924Y979921D01*
X373883Y979925D01*
X373860Y979932D01*
X373828Y979931D01*
X373757Y979939D01*
X328553Y979939D01*
X328463Y979925D01*
X328372Y979917D01*
X328342Y979905D01*
X328310Y979900D01*
X328230Y979857D01*
X328146Y979821D01*
X328114Y979795D01*
X328093Y979784D01*
X328071Y979761D01*
X328015Y979716D01*
X319660Y971361D01*
X319648Y971345D01*
X319632Y971333D01*
X319576Y971245D01*
X319516Y971162D01*
X319510Y971143D01*
X319499Y971126D01*
X319474Y971025D01*
X319444Y970926D01*
X319444Y970906D01*
X319439Y970887D01*
X319447Y970784D01*
X319450Y970681D01*
X319457Y970662D01*
X319459Y970642D01*
X319499Y970547D01*
X319535Y970450D01*
X319547Y970434D01*
X319555Y970416D01*
X319660Y970285D01*
X321837Y968107D01*
X323711Y963584D01*
X323711Y938876D01*
X321837Y934353D01*
X319124Y931639D01*
X319071Y931565D01*
X319011Y931496D01*
X318999Y931466D01*
X318980Y931440D01*
X318953Y931353D01*
X318919Y931268D01*
X318915Y931227D01*
X318908Y931205D01*
X318909Y931172D01*
X318901Y931101D01*
X318901Y783862D01*
X318904Y783842D01*
X318902Y783823D01*
X318924Y783721D01*
X318940Y783619D01*
X318950Y783602D01*
X318954Y783582D01*
X319007Y783493D01*
X319056Y783402D01*
X319070Y783388D01*
X319080Y783371D01*
X319159Y783304D01*
X319234Y783232D01*
X319252Y783224D01*
X319267Y783211D01*
X319363Y783172D01*
X319457Y783129D01*
X319477Y783127D01*
X319495Y783119D01*
X319662Y783101D01*
X322294Y783101D01*
X323701Y781694D01*
X323701Y767706D01*
X322294Y766299D01*
X308306Y766299D01*
X306899Y767706D01*
X306899Y781694D01*
X308306Y783101D01*
X310338Y783101D01*
X310358Y783104D01*
X310377Y783102D01*
X310479Y783124D01*
X310581Y783140D01*
X310598Y783150D01*
X310618Y783154D01*
X310707Y783207D01*
X310798Y783256D01*
X310812Y783270D01*
X310829Y783280D01*
X310896Y783359D01*
X310968Y783434D01*
X310976Y783452D01*
X310989Y783467D01*
X311028Y783563D01*
X311071Y783657D01*
X311073Y783677D01*
X311081Y783695D01*
X311099Y783862D01*
X311099Y928256D01*
X311098Y928264D01*
X311098Y928268D01*
X311096Y928277D01*
X311098Y928295D01*
X311076Y928397D01*
X311060Y928499D01*
X311050Y928516D01*
X311046Y928536D01*
X310993Y928625D01*
X310944Y928716D01*
X310930Y928730D01*
X310920Y928747D01*
X310841Y928814D01*
X310766Y928886D01*
X310748Y928894D01*
X310733Y928907D01*
X310637Y928946D01*
X310543Y928989D01*
X310523Y928991D01*
X310505Y928999D01*
X310338Y929017D01*
X308956Y929017D01*
X304433Y930891D01*
X300971Y934353D01*
X299097Y938876D01*
X299097Y963584D01*
X300971Y968107D01*
X304433Y971569D01*
X304783Y971714D01*
X304882Y971776D01*
X304983Y971836D01*
X304987Y971841D01*
X304992Y971844D01*
X305066Y971933D01*
X305143Y972023D01*
X305145Y972029D01*
X305149Y972033D01*
X305191Y972141D01*
X305235Y972251D01*
X305236Y972258D01*
X305237Y972263D01*
X305238Y972281D01*
X305253Y972418D01*
X305253Y973027D01*
X306190Y975288D01*
X319441Y988540D01*
X319483Y988598D01*
X319533Y988650D01*
X319555Y988697D01*
X319585Y988739D01*
X319606Y988808D01*
X319636Y988873D01*
X319642Y988925D01*
X319657Y988975D01*
X319655Y989046D01*
X319663Y989117D01*
X319652Y989168D01*
X319651Y989220D01*
X319626Y989288D01*
X319611Y989358D01*
X319584Y989403D01*
X319566Y989451D01*
X319522Y989507D01*
X319485Y989569D01*
X319445Y989603D01*
X319413Y989643D01*
X319352Y989682D01*
X319298Y989729D01*
X319250Y989748D01*
X319206Y989776D01*
X319136Y989794D01*
X319070Y989821D01*
X318998Y989829D01*
X318967Y989837D01*
X318944Y989835D01*
X318903Y989839D01*
X10922Y989839D01*
X10902Y989836D01*
X10883Y989838D01*
X10781Y989816D01*
X10679Y989800D01*
X10662Y989790D01*
X10642Y989786D01*
X10553Y989733D01*
X10462Y989684D01*
X10448Y989670D01*
X10431Y989660D01*
X10364Y989581D01*
X10292Y989506D01*
X10284Y989488D01*
X10271Y989473D01*
X10232Y989377D01*
X10189Y989283D01*
X10187Y989263D01*
X10179Y989245D01*
X10161Y989078D01*
X10161Y10922D01*
X10164Y10902D01*
X10162Y10883D01*
X10184Y10781D01*
X10200Y10679D01*
X10210Y10662D01*
X10214Y10642D01*
X10267Y10553D01*
X10316Y10462D01*
X10330Y10448D01*
X10340Y10431D01*
X10419Y10364D01*
X10494Y10292D01*
X10512Y10284D01*
X10527Y10271D01*
X10623Y10232D01*
X10717Y10189D01*
X10737Y10187D01*
X10755Y10179D01*
X10922Y10161D01*
X589078Y10161D01*
X589098Y10164D01*
G37*
%LPC*%
G36*
X276967Y20459D02*
X276967Y20459D01*
X274706Y21396D01*
X263323Y32779D01*
X261486Y34616D01*
X260549Y36877D01*
X260549Y39362D01*
X260530Y39477D01*
X260513Y39593D01*
X260511Y39599D01*
X260510Y39605D01*
X260455Y39708D01*
X260402Y39813D01*
X260397Y39817D01*
X260394Y39823D01*
X260310Y39903D01*
X260226Y39985D01*
X260220Y39988D01*
X260216Y39992D01*
X260199Y40000D01*
X260079Y40066D01*
X259647Y40245D01*
X256145Y43747D01*
X255966Y44179D01*
X255904Y44279D01*
X255844Y44379D01*
X255839Y44383D01*
X255836Y44388D01*
X255747Y44463D01*
X255657Y44539D01*
X255651Y44541D01*
X255647Y44545D01*
X255539Y44587D01*
X255429Y44631D01*
X255422Y44632D01*
X255417Y44633D01*
X255399Y44634D01*
X255262Y44649D01*
X227377Y44649D01*
X225116Y45586D01*
X200875Y69826D01*
X200801Y69879D01*
X200732Y69939D01*
X200702Y69951D01*
X200675Y69970D01*
X200589Y69997D01*
X200504Y70031D01*
X200463Y70035D01*
X200440Y70042D01*
X200408Y70041D01*
X200337Y70049D01*
X165214Y70049D01*
X165194Y70046D01*
X165175Y70048D01*
X165073Y70026D01*
X164971Y70010D01*
X164954Y70000D01*
X164934Y69996D01*
X164845Y69943D01*
X164754Y69894D01*
X164740Y69880D01*
X164723Y69870D01*
X164656Y69791D01*
X164584Y69716D01*
X164576Y69698D01*
X164563Y69683D01*
X164524Y69587D01*
X164481Y69493D01*
X164479Y69473D01*
X164471Y69455D01*
X164453Y69288D01*
X164453Y63846D01*
X162579Y59323D01*
X159117Y55861D01*
X154594Y53987D01*
X149698Y53987D01*
X145175Y55861D01*
X141713Y59323D01*
X139839Y63846D01*
X139839Y88554D01*
X141713Y93077D01*
X145175Y96539D01*
X145525Y96684D01*
X145624Y96746D01*
X145725Y96806D01*
X145729Y96811D01*
X145734Y96814D01*
X145808Y96903D01*
X145885Y96993D01*
X145887Y96999D01*
X145891Y97003D01*
X145933Y97111D01*
X145977Y97221D01*
X145978Y97228D01*
X145979Y97233D01*
X145980Y97251D01*
X145995Y97388D01*
X145995Y107904D01*
X145976Y108019D01*
X145959Y108135D01*
X145957Y108141D01*
X145956Y108147D01*
X145901Y108249D01*
X145848Y108354D01*
X145843Y108359D01*
X145840Y108364D01*
X145756Y108444D01*
X145672Y108527D01*
X145666Y108530D01*
X145662Y108534D01*
X145645Y108541D01*
X145631Y108549D01*
X142864Y111317D01*
X141379Y114900D01*
X141379Y118780D01*
X142864Y122363D01*
X145607Y125106D01*
X149190Y126591D01*
X153070Y126591D01*
X156653Y125106D01*
X159396Y122363D01*
X160881Y118780D01*
X160881Y114900D01*
X159396Y111317D01*
X158520Y110440D01*
X158467Y110366D01*
X158407Y110297D01*
X158395Y110267D01*
X158376Y110240D01*
X158349Y110153D01*
X158315Y110069D01*
X158311Y110028D01*
X158304Y110005D01*
X158305Y109973D01*
X158297Y109902D01*
X158297Y97388D01*
X158315Y97273D01*
X158333Y97157D01*
X158335Y97151D01*
X158336Y97145D01*
X158391Y97042D01*
X158444Y96937D01*
X158449Y96933D01*
X158452Y96928D01*
X158536Y96847D01*
X158620Y96765D01*
X158626Y96762D01*
X158630Y96758D01*
X158647Y96750D01*
X158767Y96684D01*
X159117Y96539D01*
X162579Y93077D01*
X164453Y88554D01*
X164453Y83112D01*
X164456Y83092D01*
X164454Y83073D01*
X164476Y82971D01*
X164492Y82869D01*
X164502Y82852D01*
X164506Y82832D01*
X164559Y82743D01*
X164608Y82652D01*
X164622Y82638D01*
X164632Y82621D01*
X164711Y82554D01*
X164786Y82482D01*
X164804Y82474D01*
X164819Y82461D01*
X164915Y82422D01*
X165009Y82379D01*
X165029Y82377D01*
X165047Y82369D01*
X165214Y82351D01*
X204423Y82351D01*
X206684Y81414D01*
X230925Y57174D01*
X230999Y57121D01*
X231068Y57061D01*
X231098Y57049D01*
X231125Y57030D01*
X231211Y57003D01*
X231296Y56969D01*
X231337Y56965D01*
X231360Y56958D01*
X231392Y56959D01*
X231463Y56951D01*
X255262Y56951D01*
X255377Y56970D01*
X255493Y56987D01*
X255499Y56989D01*
X255505Y56990D01*
X255608Y57045D01*
X255713Y57098D01*
X255717Y57103D01*
X255723Y57106D01*
X255803Y57190D01*
X255885Y57274D01*
X255888Y57280D01*
X255892Y57284D01*
X255900Y57301D01*
X255966Y57421D01*
X256145Y57853D01*
X259647Y61355D01*
X263127Y62797D01*
X263188Y62835D01*
X263254Y62864D01*
X263292Y62899D01*
X263336Y62926D01*
X263382Y62982D01*
X263435Y63030D01*
X263460Y63076D01*
X263493Y63116D01*
X263519Y63183D01*
X263553Y63246D01*
X263563Y63297D01*
X263581Y63345D01*
X263584Y63417D01*
X263597Y63488D01*
X263590Y63539D01*
X263592Y63591D01*
X263572Y63660D01*
X263561Y63731D01*
X263538Y63777D01*
X263523Y63827D01*
X263482Y63886D01*
X263450Y63950D01*
X263413Y63987D01*
X263383Y64029D01*
X263325Y64072D01*
X263274Y64122D01*
X263211Y64157D01*
X263186Y64176D01*
X263163Y64183D01*
X263127Y64203D01*
X259647Y65645D01*
X256145Y69147D01*
X255966Y69579D01*
X255904Y69679D01*
X255844Y69779D01*
X255839Y69783D01*
X255836Y69788D01*
X255747Y69863D01*
X255657Y69939D01*
X255651Y69941D01*
X255647Y69945D01*
X255539Y69987D01*
X255429Y70031D01*
X255422Y70032D01*
X255417Y70033D01*
X255399Y70034D01*
X255262Y70049D01*
X248327Y70049D01*
X246066Y70986D01*
X244229Y72823D01*
X182625Y134426D01*
X182551Y134479D01*
X182482Y134539D01*
X182452Y134551D01*
X182426Y134570D01*
X182339Y134597D01*
X182254Y134631D01*
X182213Y134635D01*
X182190Y134642D01*
X182158Y134641D01*
X182087Y134649D01*
X163556Y134649D01*
X161603Y135458D01*
X160108Y136953D01*
X159299Y138906D01*
X159299Y165894D01*
X160108Y167847D01*
X161603Y169342D01*
X163556Y170151D01*
X183144Y170151D01*
X185097Y169342D01*
X186592Y167847D01*
X187401Y165894D01*
X187401Y147363D01*
X187415Y147273D01*
X187423Y147182D01*
X187435Y147152D01*
X187440Y147120D01*
X187483Y147040D01*
X187519Y146956D01*
X187545Y146924D01*
X187556Y146903D01*
X187579Y146881D01*
X187624Y146825D01*
X251875Y82574D01*
X251949Y82521D01*
X252018Y82461D01*
X252048Y82449D01*
X252075Y82430D01*
X252161Y82403D01*
X252246Y82369D01*
X252287Y82365D01*
X252310Y82358D01*
X252342Y82359D01*
X252413Y82351D01*
X255262Y82351D01*
X255377Y82370D01*
X255493Y82387D01*
X255499Y82389D01*
X255505Y82390D01*
X255608Y82445D01*
X255713Y82498D01*
X255717Y82503D01*
X255723Y82506D01*
X255803Y82590D01*
X255885Y82674D01*
X255888Y82680D01*
X255892Y82684D01*
X255900Y82701D01*
X255966Y82821D01*
X256145Y83253D01*
X259647Y86755D01*
X261891Y87685D01*
X261974Y87736D01*
X262060Y87782D01*
X262078Y87801D01*
X262100Y87814D01*
X262162Y87889D01*
X262229Y87960D01*
X262240Y87984D01*
X262257Y88004D01*
X262292Y88095D01*
X262333Y88183D01*
X262336Y88209D01*
X262345Y88233D01*
X262349Y88331D01*
X262360Y88427D01*
X262355Y88453D01*
X262356Y88479D01*
X262329Y88573D01*
X262308Y88668D01*
X262294Y88690D01*
X262287Y88715D01*
X262232Y88795D01*
X262182Y88879D01*
X262162Y88896D01*
X262147Y88917D01*
X262069Y88976D01*
X261995Y89039D01*
X261971Y89049D01*
X261950Y89064D01*
X261857Y89094D01*
X261767Y89131D01*
X261734Y89134D01*
X261716Y89140D01*
X261683Y89140D01*
X261600Y89149D01*
X255656Y89149D01*
X254249Y90556D01*
X254249Y112644D01*
X255656Y114051D01*
X259788Y114051D01*
X259808Y114054D01*
X259827Y114052D01*
X259929Y114074D01*
X260031Y114090D01*
X260048Y114100D01*
X260068Y114104D01*
X260157Y114157D01*
X260248Y114206D01*
X260262Y114220D01*
X260279Y114230D01*
X260346Y114309D01*
X260418Y114384D01*
X260426Y114402D01*
X260439Y114417D01*
X260478Y114513D01*
X260521Y114607D01*
X260523Y114627D01*
X260531Y114645D01*
X260549Y114812D01*
X260549Y136837D01*
X260535Y136927D01*
X260527Y137018D01*
X260515Y137048D01*
X260510Y137080D01*
X260467Y137160D01*
X260431Y137244D01*
X260405Y137276D01*
X260394Y137297D01*
X260371Y137319D01*
X260326Y137375D01*
X203415Y194286D01*
X203341Y194339D01*
X203272Y194399D01*
X203242Y194411D01*
X203215Y194430D01*
X203129Y194457D01*
X203044Y194491D01*
X203003Y194495D01*
X202980Y194502D01*
X202948Y194501D01*
X202877Y194509D01*
X198454Y194509D01*
X198364Y194495D01*
X198273Y194487D01*
X198243Y194475D01*
X198211Y194470D01*
X198131Y194427D01*
X198047Y194391D01*
X198015Y194365D01*
X197994Y194354D01*
X197972Y194331D01*
X197916Y194286D01*
X196023Y192394D01*
X192440Y190909D01*
X188560Y190909D01*
X184977Y192394D01*
X182234Y195137D01*
X180749Y198720D01*
X180749Y202600D01*
X182234Y206183D01*
X184977Y208926D01*
X188560Y210411D01*
X192440Y210411D01*
X196023Y208926D01*
X197916Y207034D01*
X197990Y206981D01*
X198059Y206921D01*
X198090Y206909D01*
X198116Y206890D01*
X198203Y206863D01*
X198288Y206829D01*
X198328Y206825D01*
X198351Y206818D01*
X198383Y206819D01*
X198454Y206811D01*
X206963Y206811D01*
X209224Y205874D01*
X266162Y148937D01*
X266178Y148925D01*
X266190Y148910D01*
X266278Y148853D01*
X266361Y148793D01*
X266380Y148787D01*
X266397Y148777D01*
X266498Y148751D01*
X266597Y148721D01*
X266616Y148721D01*
X266636Y148716D01*
X266739Y148725D01*
X266842Y148727D01*
X266861Y148734D01*
X266881Y148736D01*
X266976Y148776D01*
X267073Y148812D01*
X267089Y148824D01*
X267107Y148832D01*
X267238Y148937D01*
X271856Y153554D01*
X274117Y154491D01*
X282463Y154491D01*
X282483Y154494D01*
X282502Y154492D01*
X282604Y154514D01*
X282706Y154530D01*
X282723Y154540D01*
X282743Y154544D01*
X282832Y154597D01*
X282923Y154646D01*
X282937Y154660D01*
X282954Y154670D01*
X283021Y154749D01*
X283093Y154824D01*
X283101Y154842D01*
X283114Y154857D01*
X283153Y154953D01*
X283196Y155047D01*
X283198Y155067D01*
X283206Y155085D01*
X283224Y155252D01*
X283224Y155648D01*
X283221Y155668D01*
X283223Y155687D01*
X283201Y155789D01*
X283185Y155891D01*
X283175Y155908D01*
X283171Y155928D01*
X283118Y156017D01*
X283069Y156108D01*
X283055Y156122D01*
X283045Y156139D01*
X282966Y156206D01*
X282891Y156278D01*
X282873Y156286D01*
X282858Y156299D01*
X282762Y156338D01*
X282668Y156381D01*
X282648Y156383D01*
X282630Y156391D01*
X282463Y156409D01*
X268017Y156409D01*
X265756Y157346D01*
X223386Y199716D01*
X222449Y201977D01*
X222449Y214294D01*
X222430Y214409D01*
X222413Y214525D01*
X222411Y214531D01*
X222410Y214537D01*
X222355Y214640D01*
X222302Y214744D01*
X222297Y214749D01*
X222294Y214754D01*
X222210Y214834D01*
X222126Y214917D01*
X222120Y214920D01*
X222116Y214924D01*
X222099Y214931D01*
X221979Y214997D01*
X220046Y215798D01*
X215798Y220046D01*
X213499Y225596D01*
X213499Y234388D01*
X213496Y234408D01*
X213498Y234427D01*
X213476Y234529D01*
X213460Y234631D01*
X213450Y234648D01*
X213446Y234668D01*
X213393Y234757D01*
X213344Y234848D01*
X213330Y234862D01*
X213320Y234879D01*
X213241Y234946D01*
X213166Y235018D01*
X213148Y235026D01*
X213133Y235039D01*
X213037Y235078D01*
X212943Y235121D01*
X212923Y235123D01*
X212905Y235131D01*
X212738Y235149D01*
X190605Y235149D01*
X188344Y236086D01*
X177830Y246600D01*
X177772Y246641D01*
X177720Y246691D01*
X177673Y246713D01*
X177631Y246743D01*
X177562Y246764D01*
X177497Y246794D01*
X177445Y246800D01*
X177395Y246816D01*
X177324Y246814D01*
X177253Y246822D01*
X177202Y246810D01*
X177150Y246809D01*
X177082Y246785D01*
X177012Y246769D01*
X176967Y246743D01*
X176919Y246725D01*
X176863Y246680D01*
X176801Y246643D01*
X176767Y246604D01*
X176727Y246571D01*
X176688Y246511D01*
X176641Y246456D01*
X176622Y246408D01*
X176594Y246364D01*
X176576Y246295D01*
X176549Y246228D01*
X176541Y246157D01*
X176533Y246126D01*
X176535Y246102D01*
X176531Y246061D01*
X176531Y236500D01*
X172857Y227631D01*
X166069Y220843D01*
X157200Y217169D01*
X147600Y217169D01*
X138731Y220843D01*
X131943Y227631D01*
X128269Y236500D01*
X128269Y246100D01*
X131943Y254969D01*
X138704Y261730D01*
X138746Y261788D01*
X138795Y261840D01*
X138817Y261887D01*
X138847Y261929D01*
X138868Y261998D01*
X138899Y262063D01*
X138904Y262115D01*
X138920Y262165D01*
X138918Y262236D01*
X138926Y262307D01*
X138915Y262358D01*
X138913Y262410D01*
X138889Y262478D01*
X138873Y262548D01*
X138847Y262593D01*
X138829Y262641D01*
X138784Y262697D01*
X138747Y262759D01*
X138708Y262793D01*
X138675Y262833D01*
X138615Y262872D01*
X138560Y262919D01*
X138512Y262938D01*
X138468Y262966D01*
X138399Y262984D01*
X138332Y263011D01*
X138261Y263019D01*
X138230Y263027D01*
X138206Y263025D01*
X138165Y263029D01*
X97897Y263029D01*
X95636Y263966D01*
X93799Y265803D01*
X86575Y273026D01*
X86501Y273079D01*
X86432Y273139D01*
X86402Y273151D01*
X86375Y273170D01*
X86289Y273197D01*
X86204Y273231D01*
X86163Y273235D01*
X86140Y273242D01*
X86108Y273241D01*
X86037Y273249D01*
X62277Y273249D01*
X60016Y274186D01*
X45586Y288616D01*
X44649Y290877D01*
X44649Y332274D01*
X44630Y332390D01*
X44613Y332505D01*
X44611Y332511D01*
X44610Y332517D01*
X44555Y332620D01*
X44502Y332725D01*
X44497Y332729D01*
X44494Y332734D01*
X44410Y332815D01*
X44326Y332897D01*
X44320Y332900D01*
X44316Y332904D01*
X44299Y332912D01*
X44179Y332978D01*
X44172Y332981D01*
X40881Y336272D01*
X39099Y340573D01*
X39099Y345227D01*
X40881Y349528D01*
X44172Y352819D01*
X48473Y354601D01*
X53127Y354601D01*
X57428Y352819D01*
X60719Y349528D01*
X62501Y345227D01*
X62501Y340573D01*
X60719Y336272D01*
X57428Y332981D01*
X57421Y332978D01*
X57321Y332916D01*
X57221Y332856D01*
X57217Y332851D01*
X57212Y332848D01*
X57137Y332758D01*
X57061Y332669D01*
X57059Y332663D01*
X57055Y332659D01*
X57013Y332550D01*
X56969Y332441D01*
X56968Y332434D01*
X56967Y332429D01*
X56966Y332411D01*
X56951Y332274D01*
X56951Y294963D01*
X56965Y294873D01*
X56973Y294782D01*
X56985Y294752D01*
X56990Y294720D01*
X57033Y294640D01*
X57069Y294556D01*
X57095Y294524D01*
X57106Y294503D01*
X57129Y294481D01*
X57174Y294425D01*
X65825Y285774D01*
X65899Y285721D01*
X65968Y285661D01*
X65998Y285649D01*
X66025Y285630D01*
X66111Y285603D01*
X66196Y285569D01*
X66237Y285565D01*
X66260Y285558D01*
X66292Y285559D01*
X66363Y285551D01*
X90123Y285551D01*
X92384Y284614D01*
X94221Y282777D01*
X101445Y275554D01*
X101519Y275501D01*
X101588Y275441D01*
X101618Y275429D01*
X101644Y275410D01*
X101731Y275383D01*
X101816Y275349D01*
X101857Y275345D01*
X101880Y275338D01*
X101912Y275339D01*
X101983Y275331D01*
X165172Y275331D01*
X167432Y274394D01*
X169270Y272557D01*
X194153Y247674D01*
X194227Y247621D01*
X194296Y247561D01*
X194327Y247549D01*
X194353Y247530D01*
X194440Y247503D01*
X194525Y247469D01*
X194566Y247465D01*
X194588Y247458D01*
X194620Y247459D01*
X194691Y247451D01*
X212738Y247451D01*
X212758Y247454D01*
X212777Y247452D01*
X212879Y247474D01*
X212981Y247490D01*
X212998Y247500D01*
X213018Y247504D01*
X213107Y247557D01*
X213198Y247606D01*
X213212Y247620D01*
X213229Y247630D01*
X213296Y247709D01*
X213368Y247784D01*
X213376Y247802D01*
X213389Y247817D01*
X213428Y247913D01*
X213471Y248007D01*
X213473Y248027D01*
X213481Y248045D01*
X213499Y248212D01*
X213499Y257004D01*
X215798Y262554D01*
X220046Y266802D01*
X225596Y269101D01*
X231604Y269101D01*
X237154Y266802D01*
X241402Y262554D01*
X243701Y257004D01*
X243701Y225596D01*
X241402Y220046D01*
X237154Y215798D01*
X235221Y214997D01*
X235121Y214936D01*
X235021Y214876D01*
X235017Y214871D01*
X235012Y214868D01*
X234937Y214777D01*
X234861Y214689D01*
X234859Y214683D01*
X234855Y214678D01*
X234813Y214570D01*
X234769Y214461D01*
X234768Y214453D01*
X234767Y214449D01*
X234766Y214430D01*
X234751Y214294D01*
X234751Y206063D01*
X234765Y205973D01*
X234773Y205882D01*
X234785Y205852D01*
X234790Y205820D01*
X234833Y205740D01*
X234869Y205656D01*
X234895Y205624D01*
X234906Y205603D01*
X234929Y205581D01*
X234974Y205525D01*
X271565Y168934D01*
X271639Y168881D01*
X271708Y168821D01*
X271738Y168809D01*
X271765Y168790D01*
X271851Y168763D01*
X271936Y168729D01*
X271977Y168725D01*
X272000Y168718D01*
X272032Y168719D01*
X272103Y168711D01*
X282463Y168711D01*
X282483Y168714D01*
X282502Y168712D01*
X282604Y168734D01*
X282706Y168750D01*
X282723Y168760D01*
X282743Y168764D01*
X282832Y168817D01*
X282923Y168866D01*
X282937Y168880D01*
X282954Y168890D01*
X283021Y168969D01*
X283093Y169044D01*
X283101Y169062D01*
X283114Y169077D01*
X283153Y169173D01*
X283196Y169267D01*
X283198Y169287D01*
X283206Y169305D01*
X283224Y169472D01*
X283224Y185774D01*
X284631Y187181D01*
X287728Y187181D01*
X287748Y187184D01*
X287767Y187182D01*
X287869Y187204D01*
X287971Y187220D01*
X287988Y187230D01*
X288008Y187234D01*
X288097Y187287D01*
X288188Y187336D01*
X288202Y187350D01*
X288219Y187360D01*
X288286Y187439D01*
X288358Y187514D01*
X288366Y187532D01*
X288379Y187547D01*
X288418Y187643D01*
X288461Y187737D01*
X288463Y187757D01*
X288471Y187775D01*
X288489Y187942D01*
X288489Y190375D01*
X288475Y190465D01*
X288467Y190556D01*
X288455Y190586D01*
X288450Y190618D01*
X288407Y190699D01*
X288371Y190782D01*
X288345Y190815D01*
X288334Y190835D01*
X288311Y190857D01*
X288266Y190913D01*
X285738Y193442D01*
X284139Y197301D01*
X284139Y201479D01*
X285738Y205338D01*
X288692Y208292D01*
X292551Y209891D01*
X296729Y209891D01*
X300588Y208292D01*
X303542Y205338D01*
X305141Y201479D01*
X305141Y197301D01*
X303542Y193442D01*
X301014Y190913D01*
X300961Y190839D01*
X300901Y190770D01*
X300889Y190740D01*
X300870Y190714D01*
X300843Y190627D01*
X300809Y190542D01*
X300805Y190501D01*
X300798Y190479D01*
X300799Y190446D01*
X300791Y190375D01*
X300791Y187942D01*
X300794Y187922D01*
X300792Y187903D01*
X300814Y187801D01*
X300830Y187699D01*
X300840Y187682D01*
X300844Y187662D01*
X300897Y187573D01*
X300946Y187482D01*
X300960Y187468D01*
X300970Y187451D01*
X301049Y187384D01*
X301124Y187312D01*
X301142Y187304D01*
X301157Y187291D01*
X301253Y187252D01*
X301347Y187209D01*
X301367Y187207D01*
X301385Y187199D01*
X301552Y187181D01*
X304649Y187181D01*
X306056Y185774D01*
X306056Y169472D01*
X306059Y169452D01*
X306057Y169433D01*
X306079Y169331D01*
X306095Y169229D01*
X306105Y169212D01*
X306109Y169192D01*
X306162Y169103D01*
X306211Y169012D01*
X306225Y168998D01*
X306235Y168981D01*
X306314Y168914D01*
X306389Y168842D01*
X306407Y168834D01*
X306422Y168821D01*
X306518Y168782D01*
X306612Y168739D01*
X306632Y168737D01*
X306650Y168729D01*
X306817Y168711D01*
X388297Y168711D01*
X388387Y168725D01*
X388478Y168733D01*
X388508Y168745D01*
X388540Y168750D01*
X388620Y168793D01*
X388704Y168829D01*
X388736Y168855D01*
X388757Y168866D01*
X388779Y168889D01*
X388835Y168934D01*
X397426Y177525D01*
X397479Y177599D01*
X397539Y177668D01*
X397551Y177698D01*
X397570Y177724D01*
X397597Y177811D01*
X397631Y177896D01*
X397635Y177937D01*
X397642Y177960D01*
X397641Y177992D01*
X397649Y178063D01*
X397649Y192038D01*
X397646Y192058D01*
X397648Y192077D01*
X397626Y192179D01*
X397610Y192281D01*
X397600Y192298D01*
X397596Y192318D01*
X397543Y192407D01*
X397494Y192498D01*
X397480Y192512D01*
X397470Y192529D01*
X397391Y192596D01*
X397316Y192668D01*
X397298Y192676D01*
X397283Y192689D01*
X397187Y192728D01*
X397093Y192771D01*
X397073Y192773D01*
X397055Y192781D01*
X396888Y192799D01*
X382806Y192799D01*
X381399Y194206D01*
X381399Y212194D01*
X382806Y213601D01*
X405187Y213601D01*
X405277Y213615D01*
X405368Y213623D01*
X405398Y213635D01*
X405430Y213640D01*
X405510Y213683D01*
X405594Y213719D01*
X405626Y213745D01*
X405647Y213756D01*
X405669Y213779D01*
X405725Y213824D01*
X465086Y273184D01*
X467216Y274067D01*
X467272Y274101D01*
X467333Y274127D01*
X467397Y274179D01*
X467426Y274196D01*
X467438Y274212D01*
X467463Y274232D01*
X467626Y274395D01*
X467680Y274469D01*
X467739Y274538D01*
X467751Y274568D01*
X467770Y274595D01*
X467797Y274682D01*
X467831Y274766D01*
X467835Y274807D01*
X467842Y274830D01*
X467841Y274862D01*
X467849Y274933D01*
X467849Y292840D01*
X467835Y292930D01*
X467827Y293021D01*
X467815Y293051D01*
X467810Y293083D01*
X467767Y293164D01*
X467731Y293248D01*
X467705Y293280D01*
X467694Y293300D01*
X467671Y293323D01*
X467626Y293379D01*
X466249Y294756D01*
X466249Y305287D01*
X466235Y305377D01*
X466227Y305468D01*
X466215Y305498D01*
X466210Y305530D01*
X466167Y305610D01*
X466131Y305694D01*
X466105Y305726D01*
X466094Y305747D01*
X466071Y305769D01*
X466026Y305825D01*
X464846Y307006D01*
X463909Y309267D01*
X463909Y326658D01*
X463906Y326678D01*
X463908Y326697D01*
X463886Y326799D01*
X463870Y326901D01*
X463860Y326918D01*
X463856Y326938D01*
X463803Y327027D01*
X463754Y327118D01*
X463740Y327132D01*
X463730Y327149D01*
X463651Y327216D01*
X463576Y327288D01*
X463558Y327296D01*
X463543Y327309D01*
X463447Y327348D01*
X463353Y327391D01*
X463333Y327393D01*
X463315Y327401D01*
X463148Y327419D01*
X462566Y327419D01*
X461159Y328826D01*
X461159Y346814D01*
X462566Y348221D01*
X477554Y348221D01*
X478961Y346814D01*
X478961Y328826D01*
X477554Y327419D01*
X476972Y327419D01*
X476952Y327416D01*
X476933Y327418D01*
X476831Y327396D01*
X476729Y327380D01*
X476712Y327370D01*
X476692Y327366D01*
X476603Y327313D01*
X476512Y327264D01*
X476498Y327250D01*
X476481Y327240D01*
X476414Y327161D01*
X476342Y327086D01*
X476334Y327068D01*
X476321Y327053D01*
X476282Y326957D01*
X476239Y326863D01*
X476237Y326843D01*
X476229Y326825D01*
X476211Y326658D01*
X476211Y320512D01*
X476214Y320492D01*
X476212Y320473D01*
X476234Y320371D01*
X476250Y320269D01*
X476260Y320252D01*
X476264Y320232D01*
X476317Y320143D01*
X476366Y320052D01*
X476380Y320038D01*
X476390Y320021D01*
X476469Y319954D01*
X476544Y319882D01*
X476562Y319874D01*
X476577Y319861D01*
X476673Y319822D01*
X476767Y319779D01*
X476787Y319777D01*
X476805Y319769D01*
X476972Y319751D01*
X480344Y319751D01*
X481962Y318133D01*
X481978Y318122D01*
X481990Y318106D01*
X482078Y318050D01*
X482161Y317990D01*
X482180Y317984D01*
X482197Y317973D01*
X482298Y317948D01*
X482397Y317918D01*
X482416Y317918D01*
X482436Y317913D01*
X482539Y317921D01*
X482642Y317924D01*
X482661Y317931D01*
X482681Y317932D01*
X482776Y317973D01*
X482873Y318008D01*
X482889Y318021D01*
X482907Y318029D01*
X483038Y318133D01*
X484626Y319721D01*
X484679Y319795D01*
X484739Y319865D01*
X484751Y319895D01*
X484770Y319921D01*
X484797Y320008D01*
X484831Y320093D01*
X484835Y320134D01*
X484842Y320156D01*
X484841Y320188D01*
X484849Y320260D01*
X484849Y326658D01*
X484846Y326678D01*
X484848Y326697D01*
X484826Y326799D01*
X484810Y326901D01*
X484800Y326918D01*
X484796Y326938D01*
X484743Y327027D01*
X484694Y327118D01*
X484680Y327132D01*
X484670Y327149D01*
X484591Y327216D01*
X484516Y327288D01*
X484498Y327296D01*
X484483Y327309D01*
X484387Y327348D01*
X484293Y327391D01*
X484273Y327393D01*
X484255Y327401D01*
X484088Y327419D01*
X482566Y327419D01*
X481159Y328826D01*
X481159Y346814D01*
X482566Y348221D01*
X497554Y348221D01*
X498961Y346814D01*
X498961Y328826D01*
X497374Y327239D01*
X497321Y327165D01*
X497261Y327095D01*
X497249Y327065D01*
X497230Y327039D01*
X497203Y326952D01*
X497169Y326867D01*
X497165Y326826D01*
X497158Y326804D01*
X497159Y326772D01*
X497151Y326700D01*
X497151Y320260D01*
X497165Y320170D01*
X497173Y320079D01*
X497185Y320049D01*
X497190Y320017D01*
X497233Y319936D01*
X497269Y319852D01*
X497295Y319820D01*
X497306Y319800D01*
X497329Y319777D01*
X497374Y319721D01*
X498962Y318133D01*
X498978Y318122D01*
X498990Y318106D01*
X499077Y318050D01*
X499161Y317990D01*
X499181Y317984D01*
X499197Y317973D01*
X499298Y317948D01*
X499397Y317918D01*
X499416Y317918D01*
X499436Y317913D01*
X499539Y317921D01*
X499642Y317924D01*
X499661Y317931D01*
X499681Y317932D01*
X499776Y317973D01*
X499873Y318008D01*
X499889Y318021D01*
X499907Y318029D01*
X500038Y318133D01*
X501626Y319721D01*
X501679Y319795D01*
X501739Y319865D01*
X501751Y319895D01*
X501770Y319921D01*
X501797Y320008D01*
X501831Y320093D01*
X501835Y320134D01*
X501842Y320156D01*
X501841Y320188D01*
X501849Y320260D01*
X501849Y352737D01*
X501847Y352751D01*
X501848Y352763D01*
X501835Y352822D01*
X501835Y352827D01*
X501827Y352918D01*
X501815Y352948D01*
X501810Y352980D01*
X501767Y353060D01*
X501731Y353144D01*
X501705Y353176D01*
X501694Y353197D01*
X501671Y353219D01*
X501626Y353275D01*
X501225Y353676D01*
X501151Y353729D01*
X501082Y353789D01*
X501052Y353801D01*
X501025Y353820D01*
X500939Y353847D01*
X500854Y353881D01*
X500813Y353885D01*
X500790Y353892D01*
X500758Y353891D01*
X500687Y353899D01*
X439113Y353899D01*
X439023Y353885D01*
X438932Y353877D01*
X438902Y353865D01*
X438870Y353860D01*
X438790Y353817D01*
X438706Y353781D01*
X438674Y353755D01*
X438653Y353744D01*
X438631Y353721D01*
X438575Y353676D01*
X418599Y333700D01*
X418557Y333642D01*
X418507Y333590D01*
X418485Y333543D01*
X418455Y333501D01*
X418434Y333432D01*
X418404Y333367D01*
X418398Y333315D01*
X418383Y333265D01*
X418385Y333194D01*
X418377Y333123D01*
X418388Y333072D01*
X418389Y333020D01*
X418414Y332952D01*
X418429Y332882D01*
X418456Y332837D01*
X418474Y332789D01*
X418518Y332733D01*
X418555Y332671D01*
X418595Y332637D01*
X418627Y332597D01*
X418688Y332558D01*
X418742Y332511D01*
X418790Y332492D01*
X418834Y332464D01*
X418904Y332446D01*
X418970Y332419D01*
X419042Y332411D01*
X419073Y332403D01*
X419096Y332405D01*
X419137Y332401D01*
X430594Y332401D01*
X432001Y330994D01*
X432001Y304006D01*
X430594Y302599D01*
X393606Y302599D01*
X392199Y304006D01*
X392199Y330994D01*
X393606Y332401D01*
X405188Y332401D01*
X405208Y332404D01*
X405227Y332402D01*
X405329Y332424D01*
X405431Y332440D01*
X405448Y332450D01*
X405468Y332454D01*
X405557Y332507D01*
X405648Y332556D01*
X405662Y332570D01*
X405679Y332580D01*
X405746Y332659D01*
X405818Y332734D01*
X405826Y332752D01*
X405839Y332767D01*
X405878Y332863D01*
X405921Y332957D01*
X405923Y332977D01*
X405931Y332995D01*
X405949Y333162D01*
X405949Y337123D01*
X406886Y339384D01*
X429876Y362375D01*
X429929Y362449D01*
X429989Y362518D01*
X430001Y362548D01*
X430020Y362575D01*
X430047Y362661D01*
X430081Y362746D01*
X430085Y362787D01*
X430092Y362810D01*
X430091Y362842D01*
X430099Y362913D01*
X430099Y400588D01*
X430096Y400608D01*
X430098Y400627D01*
X430076Y400729D01*
X430060Y400831D01*
X430050Y400848D01*
X430046Y400868D01*
X429993Y400957D01*
X429944Y401048D01*
X429930Y401062D01*
X429920Y401079D01*
X429841Y401146D01*
X429766Y401218D01*
X429748Y401226D01*
X429733Y401239D01*
X429637Y401278D01*
X429543Y401321D01*
X429523Y401323D01*
X429505Y401331D01*
X429338Y401349D01*
X426456Y401349D01*
X424503Y402158D01*
X423008Y403653D01*
X422199Y405606D01*
X422199Y432594D01*
X423008Y434547D01*
X424503Y436042D01*
X426456Y436851D01*
X446044Y436851D01*
X447997Y436042D01*
X449492Y434547D01*
X450301Y432594D01*
X450301Y405606D01*
X449492Y403653D01*
X447997Y402158D01*
X446044Y401349D01*
X443162Y401349D01*
X443142Y401346D01*
X443123Y401348D01*
X443021Y401326D01*
X442919Y401310D01*
X442902Y401300D01*
X442882Y401296D01*
X442793Y401243D01*
X442702Y401194D01*
X442688Y401180D01*
X442671Y401170D01*
X442604Y401091D01*
X442532Y401016D01*
X442524Y400998D01*
X442511Y400983D01*
X442472Y400887D01*
X442429Y400793D01*
X442427Y400773D01*
X442419Y400755D01*
X442401Y400588D01*
X442401Y366962D01*
X442404Y366942D01*
X442402Y366923D01*
X442424Y366821D01*
X442440Y366719D01*
X442450Y366702D01*
X442454Y366682D01*
X442507Y366593D01*
X442556Y366502D01*
X442570Y366488D01*
X442580Y366471D01*
X442659Y366404D01*
X442734Y366332D01*
X442752Y366324D01*
X442767Y366311D01*
X442863Y366272D01*
X442957Y366229D01*
X442977Y366227D01*
X442995Y366219D01*
X443162Y366201D01*
X504773Y366201D01*
X507034Y365264D01*
X513214Y359084D01*
X514151Y356823D01*
X514151Y320260D01*
X514165Y320170D01*
X514173Y320079D01*
X514185Y320049D01*
X514190Y320017D01*
X514233Y319936D01*
X514269Y319852D01*
X514295Y319820D01*
X514306Y319800D01*
X514329Y319777D01*
X514374Y319721D01*
X515962Y318133D01*
X515978Y318122D01*
X515990Y318106D01*
X516077Y318050D01*
X516161Y317990D01*
X516181Y317984D01*
X516197Y317973D01*
X516298Y317948D01*
X516397Y317918D01*
X516416Y317918D01*
X516436Y317913D01*
X516539Y317921D01*
X516642Y317924D01*
X516661Y317931D01*
X516681Y317932D01*
X516776Y317973D01*
X516873Y318008D01*
X516889Y318021D01*
X516907Y318029D01*
X517038Y318133D01*
X518626Y319721D01*
X518679Y319795D01*
X518739Y319865D01*
X518751Y319895D01*
X518770Y319921D01*
X518797Y320008D01*
X518831Y320093D01*
X518835Y320134D01*
X518842Y320156D01*
X518841Y320188D01*
X518849Y320260D01*
X518849Y351623D01*
X519786Y353884D01*
X523276Y357375D01*
X523329Y357449D01*
X523389Y357518D01*
X523401Y357548D01*
X523420Y357575D01*
X523447Y357661D01*
X523481Y357746D01*
X523485Y357787D01*
X523492Y357810D01*
X523491Y357842D01*
X523499Y357913D01*
X523499Y366294D01*
X524967Y367762D01*
X524978Y367778D01*
X524994Y367790D01*
X525050Y367878D01*
X525110Y367961D01*
X525116Y367980D01*
X525127Y367997D01*
X525152Y368098D01*
X525182Y368197D01*
X525182Y368216D01*
X525187Y368236D01*
X525179Y368339D01*
X525176Y368442D01*
X525169Y368461D01*
X525168Y368481D01*
X525127Y368576D01*
X525092Y368673D01*
X525079Y368689D01*
X525071Y368707D01*
X524967Y368838D01*
X523499Y370306D01*
X523499Y370888D01*
X523496Y370908D01*
X523498Y370927D01*
X523476Y371029D01*
X523460Y371131D01*
X523450Y371148D01*
X523446Y371168D01*
X523393Y371257D01*
X523344Y371348D01*
X523330Y371362D01*
X523320Y371379D01*
X523241Y371446D01*
X523166Y371518D01*
X523148Y371526D01*
X523133Y371539D01*
X523037Y371578D01*
X522943Y371621D01*
X522923Y371623D01*
X522905Y371631D01*
X522738Y371649D01*
X484577Y371649D01*
X482316Y372586D01*
X464686Y390216D01*
X463749Y392477D01*
X463749Y460540D01*
X463735Y460630D01*
X463727Y460721D01*
X463715Y460751D01*
X463710Y460783D01*
X463699Y460802D01*
X463699Y462988D01*
X463696Y463008D01*
X463698Y463027D01*
X463676Y463129D01*
X463660Y463231D01*
X463650Y463248D01*
X463646Y463268D01*
X463593Y463357D01*
X463544Y463448D01*
X463530Y463462D01*
X463520Y463479D01*
X463441Y463546D01*
X463366Y463618D01*
X463348Y463626D01*
X463333Y463639D01*
X463237Y463678D01*
X463143Y463721D01*
X463123Y463723D01*
X463105Y463731D01*
X462938Y463749D01*
X396563Y463749D01*
X396473Y463735D01*
X396382Y463727D01*
X396352Y463715D01*
X396320Y463710D01*
X396240Y463667D01*
X396156Y463631D01*
X396124Y463605D01*
X396103Y463594D01*
X396081Y463571D01*
X396025Y463526D01*
X388699Y456200D01*
X388657Y456142D01*
X388607Y456090D01*
X388586Y456043D01*
X388555Y456001D01*
X388534Y455932D01*
X388504Y455867D01*
X388498Y455815D01*
X388483Y455765D01*
X388485Y455694D01*
X388477Y455623D01*
X388488Y455572D01*
X388489Y455520D01*
X388514Y455452D01*
X388529Y455382D01*
X388556Y455337D01*
X388574Y455289D01*
X388618Y455233D01*
X388655Y455171D01*
X388695Y455137D01*
X388727Y455097D01*
X388788Y455058D01*
X388842Y455011D01*
X388890Y454992D01*
X388934Y454964D01*
X389004Y454946D01*
X389070Y454919D01*
X389142Y454911D01*
X389173Y454903D01*
X389196Y454905D01*
X389237Y454901D01*
X399394Y454901D01*
X400801Y453494D01*
X400801Y435506D01*
X399394Y434099D01*
X385312Y434099D01*
X385292Y434096D01*
X385273Y434098D01*
X385171Y434076D01*
X385069Y434060D01*
X385052Y434050D01*
X385032Y434046D01*
X384943Y433993D01*
X384852Y433944D01*
X384838Y433930D01*
X384821Y433920D01*
X384754Y433841D01*
X384682Y433766D01*
X384674Y433748D01*
X384661Y433733D01*
X384622Y433637D01*
X384579Y433543D01*
X384577Y433523D01*
X384569Y433505D01*
X384551Y433338D01*
X384551Y408277D01*
X383614Y406016D01*
X306524Y328925D01*
X306471Y328851D01*
X306411Y328782D01*
X306399Y328752D01*
X306380Y328725D01*
X306353Y328639D01*
X306319Y328554D01*
X306315Y328513D01*
X306308Y328490D01*
X306309Y328458D01*
X306301Y328387D01*
X306301Y304006D01*
X304894Y302599D01*
X267906Y302599D01*
X266499Y304006D01*
X266499Y330994D01*
X267906Y332401D01*
X279488Y332401D01*
X279508Y332404D01*
X279527Y332402D01*
X279629Y332424D01*
X279731Y332440D01*
X279748Y332450D01*
X279768Y332454D01*
X279857Y332507D01*
X279948Y332556D01*
X279962Y332570D01*
X279979Y332580D01*
X280046Y332659D01*
X280118Y332734D01*
X280126Y332752D01*
X280139Y332767D01*
X280178Y332863D01*
X280221Y332957D01*
X280223Y332977D01*
X280231Y332995D01*
X280249Y333162D01*
X280249Y345737D01*
X280235Y345827D01*
X280227Y345918D01*
X280215Y345948D01*
X280210Y345980D01*
X280167Y346060D01*
X280131Y346144D01*
X280105Y346176D01*
X280094Y346197D01*
X280071Y346219D01*
X280026Y346275D01*
X251675Y374626D01*
X251601Y374679D01*
X251532Y374739D01*
X251502Y374751D01*
X251475Y374770D01*
X251389Y374797D01*
X251304Y374831D01*
X251263Y374835D01*
X251240Y374842D01*
X251208Y374841D01*
X251137Y374849D01*
X184223Y374849D01*
X184133Y374835D01*
X184042Y374827D01*
X184012Y374815D01*
X183980Y374810D01*
X183900Y374767D01*
X183816Y374731D01*
X183784Y374705D01*
X183763Y374694D01*
X183741Y374671D01*
X183685Y374626D01*
X165309Y356250D01*
X165256Y356176D01*
X165196Y356107D01*
X165184Y356077D01*
X165165Y356050D01*
X165138Y355964D01*
X165104Y355879D01*
X165100Y355838D01*
X165093Y355815D01*
X165094Y355783D01*
X165086Y355712D01*
X165086Y344316D01*
X163679Y342909D01*
X143661Y342909D01*
X142254Y344316D01*
X142254Y355712D01*
X142240Y355802D01*
X142232Y355893D01*
X142220Y355923D01*
X142215Y355955D01*
X142172Y356035D01*
X142136Y356119D01*
X142110Y356151D01*
X142099Y356172D01*
X142076Y356194D01*
X142031Y356250D01*
X136355Y361926D01*
X136281Y361979D01*
X136212Y362039D01*
X136182Y362051D01*
X136155Y362070D01*
X136069Y362097D01*
X135984Y362131D01*
X135943Y362135D01*
X135920Y362142D01*
X135888Y362141D01*
X135817Y362149D01*
X91763Y362149D01*
X91673Y362135D01*
X91582Y362127D01*
X91552Y362115D01*
X91520Y362110D01*
X91440Y362067D01*
X91356Y362031D01*
X91324Y362005D01*
X91303Y361994D01*
X91281Y361971D01*
X91225Y361926D01*
X83011Y353713D01*
X83000Y353697D01*
X82984Y353684D01*
X82928Y353597D01*
X82868Y353513D01*
X82862Y353494D01*
X82851Y353477D01*
X82826Y353377D01*
X82795Y353278D01*
X82796Y353258D01*
X82791Y353239D01*
X82799Y353136D01*
X82802Y353032D01*
X82809Y353013D01*
X82810Y352993D01*
X82850Y352899D01*
X82886Y352801D01*
X82899Y352785D01*
X82906Y352767D01*
X83011Y352636D01*
X86119Y349528D01*
X87901Y345227D01*
X87901Y340573D01*
X86119Y336272D01*
X82828Y332981D01*
X78527Y331199D01*
X73873Y331199D01*
X69572Y332981D01*
X66281Y336272D01*
X64499Y340573D01*
X64499Y345227D01*
X66281Y349528D01*
X69572Y352819D01*
X69579Y352822D01*
X69679Y352884D01*
X69779Y352944D01*
X69783Y352949D01*
X69788Y352952D01*
X69863Y353042D01*
X69939Y353131D01*
X69941Y353137D01*
X69945Y353141D01*
X69987Y353250D01*
X70031Y353359D01*
X70032Y353366D01*
X70033Y353371D01*
X70034Y353389D01*
X70049Y353526D01*
X70049Y356823D01*
X71041Y359219D01*
X71056Y359282D01*
X71081Y359343D01*
X71090Y359426D01*
X71097Y359458D01*
X71096Y359477D01*
X71099Y359510D01*
X71099Y426169D01*
X71085Y426259D01*
X71077Y426350D01*
X71065Y426380D01*
X71060Y426412D01*
X71017Y426492D01*
X70981Y426576D01*
X70955Y426608D01*
X70944Y426629D01*
X70921Y426651D01*
X70876Y426707D01*
X51099Y446484D01*
X51099Y651616D01*
X53607Y654124D01*
X62956Y663473D01*
X63009Y663547D01*
X63069Y663616D01*
X63081Y663646D01*
X63100Y663672D01*
X63127Y663760D01*
X63161Y663844D01*
X63165Y663885D01*
X63172Y663908D01*
X63171Y663940D01*
X63179Y664011D01*
X63179Y667060D01*
X64388Y669978D01*
X66622Y672212D01*
X69540Y673421D01*
X72700Y673421D01*
X75618Y672212D01*
X77852Y669978D01*
X79061Y667060D01*
X79061Y663900D01*
X77852Y660982D01*
X75618Y658748D01*
X72700Y657539D01*
X69540Y657539D01*
X68961Y657779D01*
X68847Y657806D01*
X68733Y657835D01*
X68727Y657834D01*
X68721Y657836D01*
X68604Y657825D01*
X68488Y657816D01*
X68483Y657813D01*
X68476Y657813D01*
X68369Y657765D01*
X68262Y657719D01*
X68256Y657715D01*
X68251Y657713D01*
X68238Y657700D01*
X68131Y657614D01*
X59124Y648607D01*
X59079Y648545D01*
X59052Y648516D01*
X59047Y648505D01*
X59011Y648464D01*
X58999Y648434D01*
X58980Y648407D01*
X58953Y648321D01*
X58919Y648236D01*
X58915Y648195D01*
X58908Y648172D01*
X58909Y648140D01*
X58901Y648069D01*
X58901Y450031D01*
X58915Y449941D01*
X58923Y449850D01*
X58935Y449820D01*
X58940Y449788D01*
X58983Y449708D01*
X59019Y449624D01*
X59045Y449592D01*
X59056Y449571D01*
X59079Y449549D01*
X59124Y449493D01*
X78901Y429716D01*
X78901Y368837D01*
X78912Y368766D01*
X78914Y368695D01*
X78932Y368646D01*
X78940Y368594D01*
X78974Y368531D01*
X78999Y368464D01*
X79031Y368423D01*
X79056Y368377D01*
X79108Y368328D01*
X79152Y368272D01*
X79196Y368243D01*
X79234Y368207D01*
X79299Y368177D01*
X79359Y368139D01*
X79410Y368126D01*
X79457Y368104D01*
X79528Y368096D01*
X79598Y368078D01*
X79650Y368083D01*
X79701Y368077D01*
X79772Y368092D01*
X79843Y368098D01*
X79891Y368118D01*
X79942Y368129D01*
X80003Y368166D01*
X80069Y368194D01*
X80125Y368239D01*
X80153Y368255D01*
X80168Y368273D01*
X80200Y368299D01*
X83579Y371677D01*
X85416Y373514D01*
X87677Y374451D01*
X139903Y374451D01*
X142164Y373514D01*
X151745Y363934D01*
X151819Y363881D01*
X151888Y363821D01*
X151918Y363809D01*
X151945Y363790D01*
X152031Y363763D01*
X152116Y363729D01*
X152157Y363725D01*
X152180Y363718D01*
X152212Y363719D01*
X152283Y363711D01*
X155057Y363711D01*
X155147Y363725D01*
X155238Y363733D01*
X155268Y363745D01*
X155300Y363750D01*
X155380Y363793D01*
X155464Y363829D01*
X155496Y363855D01*
X155517Y363866D01*
X155539Y363889D01*
X155595Y363934D01*
X177876Y386214D01*
X180137Y387151D01*
X255223Y387151D01*
X257484Y386214D01*
X291614Y352084D01*
X292551Y349823D01*
X292551Y334187D01*
X292562Y334116D01*
X292564Y334045D01*
X292582Y333996D01*
X292590Y333944D01*
X292624Y333881D01*
X292649Y333814D01*
X292681Y333773D01*
X292706Y333727D01*
X292758Y333678D01*
X292802Y333622D01*
X292846Y333593D01*
X292884Y333557D01*
X292949Y333527D01*
X293009Y333489D01*
X293060Y333476D01*
X293107Y333454D01*
X293178Y333446D01*
X293248Y333428D01*
X293300Y333433D01*
X293351Y333427D01*
X293422Y333442D01*
X293493Y333448D01*
X293541Y333468D01*
X293592Y333479D01*
X293653Y333516D01*
X293719Y333544D01*
X293775Y333589D01*
X293803Y333605D01*
X293818Y333623D01*
X293850Y333649D01*
X372026Y411825D01*
X372079Y411899D01*
X372139Y411968D01*
X372151Y411998D01*
X372170Y412025D01*
X372197Y412111D01*
X372231Y412196D01*
X372235Y412237D01*
X372242Y412260D01*
X372241Y412292D01*
X372249Y412363D01*
X372249Y433338D01*
X372246Y433358D01*
X372248Y433377D01*
X372226Y433479D01*
X372210Y433581D01*
X372200Y433598D01*
X372196Y433618D01*
X372143Y433707D01*
X372094Y433798D01*
X372080Y433812D01*
X372070Y433829D01*
X371991Y433896D01*
X371916Y433968D01*
X371898Y433976D01*
X371883Y433989D01*
X371787Y434028D01*
X371693Y434071D01*
X371673Y434073D01*
X371655Y434081D01*
X371488Y434099D01*
X357406Y434099D01*
X355999Y435506D01*
X355999Y453494D01*
X357406Y454901D01*
X371488Y454901D01*
X371508Y454904D01*
X371527Y454902D01*
X371629Y454924D01*
X371731Y454940D01*
X371748Y454950D01*
X371768Y454954D01*
X371857Y455007D01*
X371948Y455056D01*
X371962Y455070D01*
X371979Y455080D01*
X372046Y455159D01*
X372118Y455234D01*
X372126Y455252D01*
X372139Y455267D01*
X372178Y455363D01*
X372221Y455457D01*
X372223Y455477D01*
X372231Y455495D01*
X372249Y455662D01*
X372249Y730338D01*
X372246Y730358D01*
X372248Y730377D01*
X372226Y730479D01*
X372210Y730581D01*
X372200Y730598D01*
X372196Y730618D01*
X372143Y730707D01*
X372094Y730798D01*
X372080Y730812D01*
X372070Y730829D01*
X371991Y730896D01*
X371916Y730968D01*
X371898Y730976D01*
X371883Y730989D01*
X371787Y731028D01*
X371693Y731071D01*
X371673Y731073D01*
X371655Y731081D01*
X371488Y731099D01*
X324462Y731099D01*
X324442Y731096D01*
X324423Y731098D01*
X324321Y731076D01*
X324219Y731060D01*
X324202Y731050D01*
X324182Y731046D01*
X324093Y730993D01*
X324002Y730944D01*
X323988Y730930D01*
X323971Y730920D01*
X323904Y730841D01*
X323832Y730766D01*
X323824Y730748D01*
X323811Y730733D01*
X323772Y730636D01*
X323729Y730543D01*
X323727Y730523D01*
X323719Y730505D01*
X323701Y730338D01*
X323701Y729606D01*
X322294Y728199D01*
X308306Y728199D01*
X306899Y729606D01*
X306899Y743594D01*
X308306Y745001D01*
X322294Y745001D01*
X323701Y743594D01*
X323701Y739662D01*
X323704Y739642D01*
X323702Y739623D01*
X323724Y739521D01*
X323740Y739419D01*
X323750Y739402D01*
X323754Y739382D01*
X323807Y739293D01*
X323856Y739202D01*
X323870Y739188D01*
X323880Y739171D01*
X323959Y739104D01*
X324034Y739032D01*
X324052Y739024D01*
X324067Y739011D01*
X324163Y738972D01*
X324257Y738929D01*
X324277Y738927D01*
X324295Y738919D01*
X324462Y738901D01*
X371488Y738901D01*
X371508Y738904D01*
X371527Y738902D01*
X371629Y738924D01*
X371731Y738940D01*
X371748Y738950D01*
X371768Y738954D01*
X371857Y739007D01*
X371948Y739056D01*
X371962Y739070D01*
X371979Y739080D01*
X372046Y739159D01*
X372118Y739234D01*
X372126Y739252D01*
X372139Y739267D01*
X372178Y739363D01*
X372221Y739457D01*
X372223Y739477D01*
X372231Y739495D01*
X372249Y739662D01*
X372249Y931663D01*
X372235Y931753D01*
X372227Y931844D01*
X372215Y931874D01*
X372210Y931906D01*
X372167Y931986D01*
X372131Y932070D01*
X372105Y932102D01*
X372094Y932123D01*
X372071Y932145D01*
X372026Y932201D01*
X371540Y932687D01*
X371524Y932699D01*
X371512Y932715D01*
X371425Y932770D01*
X371341Y932831D01*
X371322Y932837D01*
X371305Y932848D01*
X371204Y932873D01*
X371105Y932903D01*
X371085Y932903D01*
X371066Y932908D01*
X370963Y932900D01*
X370860Y932897D01*
X370841Y932890D01*
X370821Y932888D01*
X370726Y932848D01*
X370629Y932812D01*
X370613Y932800D01*
X370595Y932792D01*
X370464Y932687D01*
X368667Y930891D01*
X364144Y929017D01*
X359248Y929017D01*
X354725Y930891D01*
X351263Y934353D01*
X349389Y938876D01*
X349389Y963584D01*
X351263Y968107D01*
X354725Y971569D01*
X359248Y973443D01*
X364144Y973443D01*
X368667Y971569D01*
X372129Y968107D01*
X374003Y963584D01*
X374003Y947937D01*
X374017Y947847D01*
X374025Y947756D01*
X374037Y947726D01*
X374042Y947694D01*
X374085Y947614D01*
X374121Y947530D01*
X374147Y947498D01*
X374158Y947477D01*
X374181Y947455D01*
X374226Y947399D01*
X383614Y938010D01*
X384551Y935749D01*
X384551Y471287D01*
X384562Y471216D01*
X384564Y471145D01*
X384582Y471096D01*
X384590Y471044D01*
X384624Y470981D01*
X384649Y470914D01*
X384681Y470873D01*
X384706Y470827D01*
X384758Y470778D01*
X384802Y470722D01*
X384846Y470693D01*
X384884Y470657D01*
X384949Y470627D01*
X385009Y470589D01*
X385060Y470576D01*
X385107Y470554D01*
X385178Y470546D01*
X385248Y470528D01*
X385300Y470533D01*
X385351Y470527D01*
X385422Y470542D01*
X385493Y470548D01*
X385541Y470568D01*
X385592Y470579D01*
X385653Y470616D01*
X385719Y470644D01*
X385775Y470689D01*
X385803Y470705D01*
X385818Y470723D01*
X385850Y470749D01*
X390216Y475114D01*
X392477Y476051D01*
X462938Y476051D01*
X462958Y476054D01*
X462977Y476052D01*
X463079Y476074D01*
X463181Y476090D01*
X463198Y476100D01*
X463218Y476104D01*
X463307Y476157D01*
X463398Y476206D01*
X463412Y476220D01*
X463429Y476230D01*
X463496Y476309D01*
X463568Y476384D01*
X463576Y476402D01*
X463589Y476417D01*
X463628Y476513D01*
X463671Y476607D01*
X463673Y476627D01*
X463681Y476645D01*
X463699Y476812D01*
X463699Y479015D01*
X463731Y479093D01*
X463735Y479134D01*
X463742Y479156D01*
X463741Y479188D01*
X463749Y479260D01*
X463749Y491476D01*
X463735Y491566D01*
X463727Y491657D01*
X463715Y491687D01*
X463710Y491719D01*
X463667Y491799D01*
X463631Y491883D01*
X463605Y491915D01*
X463594Y491936D01*
X463571Y491958D01*
X463526Y492014D01*
X462749Y492791D01*
X462749Y502889D01*
X464851Y504991D01*
X491349Y504991D01*
X493451Y502889D01*
X493451Y492791D01*
X491349Y490689D01*
X479963Y490689D01*
X479873Y490675D01*
X479782Y490667D01*
X479752Y490655D01*
X479720Y490650D01*
X479640Y490607D01*
X479556Y490571D01*
X479523Y490545D01*
X479503Y490534D01*
X479481Y490511D01*
X479425Y490466D01*
X479044Y490086D01*
X476779Y489147D01*
X476773Y489148D01*
X476671Y489126D01*
X476569Y489110D01*
X476552Y489100D01*
X476532Y489096D01*
X476443Y489043D01*
X476352Y488994D01*
X476338Y488980D01*
X476321Y488970D01*
X476254Y488891D01*
X476182Y488816D01*
X476174Y488798D01*
X476161Y488783D01*
X476122Y488687D01*
X476079Y488593D01*
X476077Y488573D01*
X476069Y488555D01*
X476051Y488388D01*
X476051Y481062D01*
X476054Y481042D01*
X476052Y481023D01*
X476074Y480921D01*
X476090Y480819D01*
X476100Y480802D01*
X476104Y480782D01*
X476157Y480693D01*
X476206Y480602D01*
X476220Y480588D01*
X476230Y480571D01*
X476309Y480504D01*
X476384Y480432D01*
X476402Y480424D01*
X476417Y480411D01*
X476513Y480372D01*
X476607Y480329D01*
X476627Y480327D01*
X476645Y480319D01*
X476812Y480301D01*
X480094Y480301D01*
X481501Y478894D01*
X481501Y460906D01*
X480094Y459499D01*
X476812Y459499D01*
X476792Y459496D01*
X476773Y459498D01*
X476671Y459476D01*
X476569Y459460D01*
X476552Y459450D01*
X476532Y459446D01*
X476443Y459393D01*
X476352Y459344D01*
X476338Y459330D01*
X476321Y459320D01*
X476254Y459241D01*
X476182Y459166D01*
X476174Y459148D01*
X476161Y459133D01*
X476122Y459037D01*
X476079Y458943D01*
X476077Y458923D01*
X476069Y458905D01*
X476051Y458738D01*
X476051Y396563D01*
X476065Y396473D01*
X476073Y396382D01*
X476085Y396352D01*
X476090Y396320D01*
X476133Y396240D01*
X476169Y396156D01*
X476195Y396124D01*
X476206Y396103D01*
X476229Y396081D01*
X476274Y396025D01*
X488125Y384174D01*
X488199Y384121D01*
X488268Y384061D01*
X488298Y384049D01*
X488325Y384030D01*
X488411Y384003D01*
X488496Y383969D01*
X488537Y383965D01*
X488560Y383958D01*
X488592Y383959D01*
X488663Y383951D01*
X522738Y383951D01*
X522758Y383954D01*
X522777Y383952D01*
X522879Y383974D01*
X522981Y383990D01*
X522998Y384000D01*
X523018Y384004D01*
X523107Y384057D01*
X523198Y384106D01*
X523212Y384120D01*
X523229Y384130D01*
X523296Y384209D01*
X523368Y384284D01*
X523376Y384302D01*
X523389Y384317D01*
X523428Y384413D01*
X523471Y384507D01*
X523473Y384527D01*
X523481Y384545D01*
X523499Y384712D01*
X523499Y385294D01*
X524906Y386701D01*
X541894Y386701D01*
X543301Y385294D01*
X543301Y370306D01*
X541833Y368838D01*
X541822Y368822D01*
X541806Y368810D01*
X541750Y368722D01*
X541690Y368639D01*
X541684Y368620D01*
X541673Y368603D01*
X541648Y368502D01*
X541618Y368403D01*
X541618Y368384D01*
X541613Y368364D01*
X541621Y368261D01*
X541624Y368158D01*
X541631Y368139D01*
X541632Y368119D01*
X541673Y368024D01*
X541708Y367927D01*
X541721Y367911D01*
X541729Y367893D01*
X541833Y367762D01*
X543301Y366294D01*
X543301Y365712D01*
X543304Y365692D01*
X543302Y365673D01*
X543324Y365571D01*
X543340Y365469D01*
X543350Y365452D01*
X543354Y365432D01*
X543407Y365343D01*
X543456Y365252D01*
X543470Y365238D01*
X543480Y365221D01*
X543559Y365154D01*
X543634Y365082D01*
X543652Y365074D01*
X543667Y365061D01*
X543763Y365022D01*
X543857Y364979D01*
X543877Y364977D01*
X543895Y364969D01*
X544062Y364951D01*
X560838Y364951D01*
X560858Y364954D01*
X560877Y364952D01*
X560979Y364974D01*
X561081Y364990D01*
X561098Y365000D01*
X561118Y365004D01*
X561207Y365057D01*
X561298Y365106D01*
X561312Y365120D01*
X561329Y365130D01*
X561396Y365209D01*
X561468Y365284D01*
X561476Y365302D01*
X561489Y365317D01*
X561528Y365413D01*
X561571Y365507D01*
X561573Y365527D01*
X561581Y365545D01*
X561599Y365712D01*
X561599Y366294D01*
X563006Y367701D01*
X579994Y367701D01*
X581401Y366294D01*
X581401Y351306D01*
X579994Y349899D01*
X563006Y349899D01*
X561599Y351306D01*
X561599Y351888D01*
X561596Y351908D01*
X561598Y351927D01*
X561576Y352029D01*
X561560Y352131D01*
X561550Y352148D01*
X561546Y352168D01*
X561493Y352257D01*
X561444Y352348D01*
X561430Y352362D01*
X561420Y352379D01*
X561341Y352446D01*
X561266Y352518D01*
X561248Y352526D01*
X561233Y352539D01*
X561137Y352578D01*
X561043Y352621D01*
X561023Y352623D01*
X561005Y352631D01*
X560838Y352649D01*
X544062Y352649D01*
X544042Y352646D01*
X544023Y352648D01*
X543921Y352626D01*
X543819Y352610D01*
X543802Y352600D01*
X543782Y352596D01*
X543693Y352543D01*
X543602Y352494D01*
X543588Y352480D01*
X543571Y352470D01*
X543504Y352391D01*
X543432Y352316D01*
X543424Y352298D01*
X543411Y352283D01*
X543372Y352187D01*
X543329Y352093D01*
X543327Y352073D01*
X543319Y352055D01*
X543301Y351888D01*
X543301Y351306D01*
X541894Y349899D01*
X533513Y349899D01*
X533423Y349885D01*
X533332Y349877D01*
X533302Y349865D01*
X533270Y349860D01*
X533190Y349817D01*
X533106Y349781D01*
X533074Y349755D01*
X533053Y349744D01*
X533031Y349721D01*
X532975Y349676D01*
X531374Y348075D01*
X531321Y348001D01*
X531261Y347932D01*
X531249Y347902D01*
X531230Y347875D01*
X531203Y347789D01*
X531169Y347704D01*
X531165Y347663D01*
X531158Y347640D01*
X531159Y347608D01*
X531151Y347537D01*
X531151Y320260D01*
X531165Y320170D01*
X531173Y320079D01*
X531185Y320049D01*
X531190Y320017D01*
X531233Y319936D01*
X531269Y319852D01*
X531295Y319820D01*
X531306Y319800D01*
X531329Y319777D01*
X531374Y319721D01*
X532751Y318344D01*
X532751Y294756D01*
X531344Y293349D01*
X518656Y293349D01*
X517038Y294967D01*
X517022Y294978D01*
X517010Y294994D01*
X516922Y295050D01*
X516839Y295110D01*
X516820Y295116D01*
X516803Y295127D01*
X516702Y295152D01*
X516603Y295182D01*
X516584Y295182D01*
X516564Y295187D01*
X516461Y295179D01*
X516358Y295176D01*
X516339Y295169D01*
X516319Y295168D01*
X516224Y295127D01*
X516127Y295092D01*
X516111Y295079D01*
X516093Y295071D01*
X515962Y294967D01*
X514374Y293379D01*
X514321Y293305D01*
X514261Y293235D01*
X514249Y293205D01*
X514230Y293179D01*
X514203Y293092D01*
X514169Y293007D01*
X514165Y292966D01*
X514158Y292944D01*
X514159Y292912D01*
X514151Y292840D01*
X514151Y244762D01*
X514154Y244742D01*
X514152Y244723D01*
X514174Y244621D01*
X514190Y244519D01*
X514200Y244502D01*
X514204Y244482D01*
X514257Y244393D01*
X514306Y244302D01*
X514320Y244288D01*
X514330Y244271D01*
X514409Y244204D01*
X514484Y244132D01*
X514502Y244124D01*
X514517Y244111D01*
X514613Y244072D01*
X514707Y244029D01*
X514727Y244027D01*
X514745Y244019D01*
X514912Y244001D01*
X552515Y244001D01*
X553951Y242565D01*
X553951Y182762D01*
X553954Y182742D01*
X553952Y182723D01*
X553974Y182621D01*
X553990Y182519D01*
X554000Y182502D01*
X554004Y182482D01*
X554057Y182393D01*
X554106Y182302D01*
X554120Y182288D01*
X554130Y182271D01*
X554209Y182204D01*
X554284Y182132D01*
X554302Y182124D01*
X554317Y182111D01*
X554413Y182072D01*
X554507Y182029D01*
X554527Y182027D01*
X554545Y182019D01*
X554712Y182001D01*
X563015Y182001D01*
X564451Y180565D01*
X564451Y163835D01*
X563015Y162399D01*
X452985Y162399D01*
X451549Y163835D01*
X451549Y180565D01*
X452985Y182001D01*
X461288Y182001D01*
X461308Y182004D01*
X461327Y182002D01*
X461429Y182024D01*
X461531Y182040D01*
X461548Y182050D01*
X461568Y182054D01*
X461657Y182107D01*
X461748Y182156D01*
X461762Y182170D01*
X461779Y182180D01*
X461846Y182259D01*
X461918Y182334D01*
X461926Y182352D01*
X461939Y182367D01*
X461978Y182463D01*
X462021Y182557D01*
X462023Y182577D01*
X462031Y182595D01*
X462049Y182762D01*
X462049Y242565D01*
X463485Y244001D01*
X501088Y244001D01*
X501108Y244004D01*
X501127Y244002D01*
X501229Y244024D01*
X501331Y244040D01*
X501348Y244050D01*
X501368Y244054D01*
X501457Y244107D01*
X501548Y244156D01*
X501562Y244170D01*
X501579Y244180D01*
X501646Y244259D01*
X501718Y244334D01*
X501726Y244352D01*
X501739Y244367D01*
X501778Y244463D01*
X501821Y244557D01*
X501823Y244577D01*
X501831Y244595D01*
X501849Y244762D01*
X501849Y292840D01*
X501835Y292930D01*
X501827Y293021D01*
X501815Y293051D01*
X501810Y293083D01*
X501767Y293164D01*
X501731Y293248D01*
X501705Y293280D01*
X501694Y293300D01*
X501671Y293323D01*
X501626Y293379D01*
X500038Y294967D01*
X500022Y294978D01*
X500010Y294994D01*
X499922Y295050D01*
X499839Y295110D01*
X499820Y295116D01*
X499803Y295127D01*
X499702Y295152D01*
X499603Y295182D01*
X499584Y295182D01*
X499564Y295187D01*
X499461Y295179D01*
X499358Y295176D01*
X499339Y295169D01*
X499319Y295168D01*
X499224Y295127D01*
X499127Y295092D01*
X499111Y295079D01*
X499093Y295071D01*
X498962Y294967D01*
X497344Y293349D01*
X484656Y293349D01*
X483038Y294967D01*
X483022Y294978D01*
X483010Y294994D01*
X482922Y295050D01*
X482839Y295110D01*
X482820Y295116D01*
X482803Y295127D01*
X482702Y295152D01*
X482603Y295182D01*
X482584Y295182D01*
X482564Y295187D01*
X482461Y295179D01*
X482358Y295176D01*
X482339Y295169D01*
X482319Y295168D01*
X482224Y295127D01*
X482127Y295092D01*
X482111Y295079D01*
X482093Y295071D01*
X481962Y294967D01*
X480374Y293379D01*
X480321Y293305D01*
X480261Y293235D01*
X480249Y293205D01*
X480230Y293179D01*
X480203Y293092D01*
X480169Y293007D01*
X480165Y292966D01*
X480158Y292944D01*
X480159Y292912D01*
X480151Y292840D01*
X480151Y270847D01*
X479214Y268586D01*
X477377Y266749D01*
X475221Y264593D01*
X473384Y262756D01*
X471254Y261873D01*
X471198Y261839D01*
X471138Y261813D01*
X471073Y261761D01*
X471044Y261744D01*
X471032Y261728D01*
X471007Y261708D01*
X424199Y214900D01*
X424157Y214842D01*
X424107Y214790D01*
X424085Y214743D01*
X424055Y214701D01*
X424034Y214632D01*
X424004Y214567D01*
X423998Y214515D01*
X423983Y214465D01*
X423985Y214394D01*
X423977Y214323D01*
X423988Y214272D01*
X423989Y214220D01*
X424014Y214152D01*
X424029Y214082D01*
X424056Y214038D01*
X424074Y213989D01*
X424118Y213933D01*
X424155Y213871D01*
X424195Y213837D01*
X424227Y213797D01*
X424288Y213758D01*
X424342Y213711D01*
X424390Y213692D01*
X424434Y213664D01*
X424504Y213646D01*
X424570Y213619D01*
X424642Y213611D01*
X424673Y213603D01*
X424696Y213605D01*
X424737Y213601D01*
X424794Y213601D01*
X426201Y212194D01*
X426201Y194206D01*
X424794Y192799D01*
X410712Y192799D01*
X410692Y192796D01*
X410673Y192798D01*
X410571Y192776D01*
X410469Y192760D01*
X410452Y192750D01*
X410432Y192746D01*
X410343Y192693D01*
X410252Y192644D01*
X410238Y192630D01*
X410221Y192620D01*
X410154Y192541D01*
X410082Y192466D01*
X410074Y192448D01*
X410061Y192433D01*
X410022Y192337D01*
X409979Y192243D01*
X409977Y192223D01*
X409969Y192205D01*
X409951Y192038D01*
X409951Y173958D01*
X409936Y173927D01*
X409928Y173850D01*
X409910Y173774D01*
X409914Y173728D01*
X409909Y173683D01*
X409926Y173607D01*
X409933Y173529D01*
X409951Y173487D01*
X409961Y173442D01*
X410001Y173375D01*
X410033Y173304D01*
X410064Y173271D01*
X410087Y173231D01*
X410146Y173181D01*
X410199Y173123D01*
X410239Y173101D01*
X410274Y173071D01*
X410347Y173042D01*
X410415Y173005D01*
X410460Y172996D01*
X410503Y172979D01*
X410638Y172964D01*
X410657Y172961D01*
X410662Y172962D01*
X410669Y172961D01*
X424214Y172961D01*
X425621Y171554D01*
X425621Y153566D01*
X424214Y152159D01*
X409226Y152159D01*
X407819Y153566D01*
X407819Y155648D01*
X407816Y155668D01*
X407818Y155687D01*
X407796Y155789D01*
X407780Y155891D01*
X407770Y155908D01*
X407766Y155928D01*
X407713Y156017D01*
X407664Y156108D01*
X407650Y156122D01*
X407640Y156139D01*
X407561Y156206D01*
X407486Y156278D01*
X407468Y156286D01*
X407453Y156299D01*
X407357Y156338D01*
X407263Y156381D01*
X407243Y156383D01*
X407225Y156391D01*
X407058Y156409D01*
X306817Y156409D01*
X306797Y156406D01*
X306778Y156408D01*
X306676Y156386D01*
X306574Y156370D01*
X306557Y156360D01*
X306537Y156356D01*
X306448Y156303D01*
X306357Y156254D01*
X306343Y156240D01*
X306326Y156230D01*
X306259Y156151D01*
X306187Y156076D01*
X306179Y156058D01*
X306166Y156043D01*
X306127Y155947D01*
X306084Y155853D01*
X306082Y155833D01*
X306074Y155815D01*
X306056Y155648D01*
X306056Y139346D01*
X304649Y137939D01*
X284631Y137939D01*
X283224Y139346D01*
X283224Y141428D01*
X283221Y141448D01*
X283223Y141467D01*
X283201Y141569D01*
X283185Y141671D01*
X283175Y141688D01*
X283171Y141708D01*
X283118Y141797D01*
X283069Y141888D01*
X283055Y141902D01*
X283045Y141919D01*
X282966Y141986D01*
X282891Y142058D01*
X282873Y142066D01*
X282858Y142079D01*
X282762Y142118D01*
X282668Y142161D01*
X282648Y142163D01*
X282630Y142171D01*
X282463Y142189D01*
X278203Y142189D01*
X278113Y142175D01*
X278022Y142167D01*
X277992Y142155D01*
X277960Y142150D01*
X277880Y142107D01*
X277796Y142071D01*
X277764Y142045D01*
X277743Y142034D01*
X277721Y142011D01*
X277665Y141966D01*
X273074Y137375D01*
X273021Y137301D01*
X272961Y137232D01*
X272949Y137202D01*
X272930Y137175D01*
X272903Y137089D01*
X272869Y137004D01*
X272865Y136963D01*
X272858Y136940D01*
X272859Y136908D01*
X272851Y136837D01*
X272851Y114812D01*
X272854Y114792D01*
X272852Y114773D01*
X272874Y114671D01*
X272890Y114569D01*
X272900Y114552D01*
X272904Y114532D01*
X272957Y114443D01*
X273006Y114352D01*
X273020Y114338D01*
X273030Y114321D01*
X273109Y114254D01*
X273184Y114182D01*
X273202Y114174D01*
X273217Y114161D01*
X273313Y114122D01*
X273407Y114079D01*
X273427Y114077D01*
X273445Y114069D01*
X273612Y114051D01*
X277744Y114051D01*
X279151Y112644D01*
X279151Y108512D01*
X279154Y108492D01*
X279152Y108473D01*
X279174Y108371D01*
X279190Y108269D01*
X279200Y108252D01*
X279204Y108232D01*
X279257Y108143D01*
X279306Y108052D01*
X279320Y108038D01*
X279330Y108021D01*
X279409Y107954D01*
X279484Y107882D01*
X279502Y107874D01*
X279517Y107861D01*
X279613Y107822D01*
X279707Y107779D01*
X279727Y107777D01*
X279745Y107769D01*
X279912Y107751D01*
X318977Y107751D01*
X321238Y106814D01*
X323075Y104977D01*
X333310Y94743D01*
X333326Y94731D01*
X333338Y94715D01*
X333426Y94659D01*
X333509Y94599D01*
X333528Y94593D01*
X333545Y94582D01*
X333646Y94557D01*
X333745Y94527D01*
X333765Y94527D01*
X333784Y94522D01*
X333887Y94530D01*
X333990Y94533D01*
X334009Y94540D01*
X334029Y94542D01*
X334124Y94582D01*
X334221Y94618D01*
X334237Y94630D01*
X334255Y94638D01*
X334386Y94743D01*
X336183Y96539D01*
X340706Y98413D01*
X343399Y98413D01*
X343489Y98427D01*
X343580Y98435D01*
X343610Y98447D01*
X343642Y98452D01*
X343722Y98495D01*
X343806Y98531D01*
X343838Y98557D01*
X343859Y98568D01*
X343881Y98591D01*
X343937Y98636D01*
X364816Y119514D01*
X367077Y120451D01*
X420323Y120451D01*
X422584Y119514D01*
X424421Y117677D01*
X443463Y98636D01*
X443537Y98583D01*
X443606Y98523D01*
X443636Y98511D01*
X443662Y98492D01*
X443749Y98465D01*
X443834Y98431D01*
X443875Y98427D01*
X443898Y98420D01*
X443930Y98421D01*
X444001Y98413D01*
X447202Y98413D01*
X451725Y96539D01*
X455187Y93077D01*
X457061Y88554D01*
X457061Y63846D01*
X455187Y59323D01*
X451725Y55861D01*
X447202Y53987D01*
X442306Y53987D01*
X437783Y55861D01*
X434321Y59323D01*
X432447Y63846D01*
X432447Y88554D01*
X433336Y90701D01*
X433363Y90813D01*
X433392Y90928D01*
X433391Y90934D01*
X433393Y90940D01*
X433382Y91057D01*
X433373Y91173D01*
X433370Y91179D01*
X433369Y91185D01*
X433322Y91292D01*
X433276Y91399D01*
X433272Y91405D01*
X433269Y91410D01*
X433257Y91423D01*
X433171Y91530D01*
X416775Y107926D01*
X416701Y107979D01*
X416632Y108039D01*
X416602Y108051D01*
X416576Y108070D01*
X416489Y108097D01*
X416404Y108131D01*
X416363Y108135D01*
X416340Y108142D01*
X416308Y108141D01*
X416237Y108149D01*
X371163Y108149D01*
X371073Y108135D01*
X370982Y108127D01*
X370952Y108115D01*
X370920Y108110D01*
X370840Y108067D01*
X370756Y108031D01*
X370724Y108005D01*
X370703Y107994D01*
X370681Y107971D01*
X370625Y107926D01*
X354588Y91889D01*
X354520Y91795D01*
X354450Y91701D01*
X354448Y91695D01*
X354444Y91690D01*
X354410Y91579D01*
X354374Y91467D01*
X354374Y91461D01*
X354372Y91455D01*
X354375Y91338D01*
X354376Y91221D01*
X354378Y91214D01*
X354378Y91209D01*
X354385Y91191D01*
X354423Y91060D01*
X355461Y88554D01*
X355461Y63846D01*
X353587Y59323D01*
X350125Y55861D01*
X345602Y53987D01*
X340706Y53987D01*
X336183Y55861D01*
X332721Y59323D01*
X330847Y63846D01*
X330847Y79493D01*
X330833Y79583D01*
X330825Y79674D01*
X330813Y79704D01*
X330808Y79736D01*
X330765Y79816D01*
X330729Y79900D01*
X330703Y79932D01*
X330692Y79953D01*
X330669Y79975D01*
X330624Y80031D01*
X315429Y95226D01*
X315355Y95279D01*
X315286Y95339D01*
X315256Y95351D01*
X315229Y95370D01*
X315143Y95397D01*
X315058Y95431D01*
X315017Y95435D01*
X314994Y95442D01*
X314962Y95441D01*
X314891Y95449D01*
X279912Y95449D01*
X279892Y95446D01*
X279873Y95448D01*
X279771Y95426D01*
X279669Y95410D01*
X279652Y95400D01*
X279632Y95396D01*
X279543Y95343D01*
X279452Y95294D01*
X279438Y95280D01*
X279421Y95270D01*
X279354Y95191D01*
X279282Y95116D01*
X279274Y95098D01*
X279261Y95083D01*
X279222Y94987D01*
X279179Y94893D01*
X279177Y94873D01*
X279169Y94855D01*
X279151Y94688D01*
X279151Y90556D01*
X277744Y89149D01*
X271800Y89149D01*
X271704Y89134D01*
X271607Y89124D01*
X271583Y89114D01*
X271557Y89110D01*
X271471Y89064D01*
X271382Y89024D01*
X271363Y89007D01*
X271340Y88994D01*
X271273Y88924D01*
X271201Y88858D01*
X271189Y88835D01*
X271171Y88816D01*
X271130Y88728D01*
X271083Y88642D01*
X271078Y88617D01*
X271067Y88593D01*
X271056Y88496D01*
X271039Y88400D01*
X271043Y88374D01*
X271040Y88349D01*
X271061Y88253D01*
X271075Y88157D01*
X271087Y88134D01*
X271092Y88108D01*
X271142Y88025D01*
X271186Y87938D01*
X271205Y87919D01*
X271218Y87897D01*
X271292Y87834D01*
X271362Y87766D01*
X271390Y87750D01*
X271405Y87737D01*
X271436Y87725D01*
X271509Y87685D01*
X273753Y86755D01*
X277255Y83253D01*
X279151Y78677D01*
X279151Y73723D01*
X277255Y69147D01*
X273753Y65645D01*
X270273Y64203D01*
X270212Y64166D01*
X270146Y64136D01*
X270108Y64101D01*
X270064Y64074D01*
X270018Y64019D01*
X269965Y63970D01*
X269940Y63924D01*
X269907Y63884D01*
X269881Y63817D01*
X269847Y63754D01*
X269837Y63703D01*
X269819Y63655D01*
X269816Y63583D01*
X269803Y63512D01*
X269810Y63461D01*
X269808Y63409D01*
X269828Y63340D01*
X269839Y63269D01*
X269862Y63223D01*
X269877Y63173D01*
X269918Y63114D01*
X269950Y63050D01*
X269987Y63013D01*
X270017Y62971D01*
X270075Y62928D01*
X270126Y62878D01*
X270189Y62843D01*
X270214Y62824D01*
X270237Y62817D01*
X270273Y62797D01*
X273753Y61355D01*
X277255Y57853D01*
X279151Y53277D01*
X279151Y48323D01*
X277255Y43747D01*
X274041Y40534D01*
X274030Y40517D01*
X274014Y40505D01*
X273958Y40418D01*
X273898Y40334D01*
X273892Y40315D01*
X273881Y40298D01*
X273856Y40198D01*
X273826Y40099D01*
X273826Y40079D01*
X273821Y40059D01*
X273829Y39956D01*
X273832Y39853D01*
X273839Y39834D01*
X273840Y39814D01*
X273881Y39719D01*
X273916Y39622D01*
X273929Y39606D01*
X273937Y39588D01*
X274041Y39457D01*
X280515Y32984D01*
X280589Y32931D01*
X280658Y32871D01*
X280688Y32859D01*
X280715Y32840D01*
X280801Y32813D01*
X280886Y32779D01*
X280927Y32775D01*
X280950Y32768D01*
X280982Y32769D01*
X281053Y32761D01*
X386534Y32761D01*
X386554Y32764D01*
X386573Y32762D01*
X386675Y32784D01*
X386777Y32800D01*
X386794Y32810D01*
X386814Y32814D01*
X386903Y32867D01*
X386994Y32916D01*
X387008Y32930D01*
X387025Y32940D01*
X387092Y33019D01*
X387164Y33094D01*
X387172Y33112D01*
X387185Y33127D01*
X387224Y33223D01*
X387267Y33317D01*
X387269Y33337D01*
X387277Y33355D01*
X387295Y33522D01*
X387295Y55012D01*
X387277Y55127D01*
X387259Y55243D01*
X387257Y55249D01*
X387256Y55255D01*
X387201Y55358D01*
X387148Y55463D01*
X387143Y55467D01*
X387140Y55472D01*
X387056Y55553D01*
X386972Y55635D01*
X386966Y55638D01*
X386962Y55642D01*
X386945Y55650D01*
X386825Y55716D01*
X386475Y55861D01*
X383013Y59323D01*
X381139Y63846D01*
X381139Y88554D01*
X383013Y93077D01*
X386475Y96539D01*
X390998Y98413D01*
X395894Y98413D01*
X400417Y96539D01*
X403879Y93077D01*
X405753Y88554D01*
X405753Y63846D01*
X403879Y59323D01*
X400417Y55861D01*
X400067Y55716D01*
X399968Y55654D01*
X399867Y55594D01*
X399863Y55589D01*
X399858Y55586D01*
X399784Y55497D01*
X399707Y55407D01*
X399705Y55401D01*
X399701Y55397D01*
X399659Y55289D01*
X399615Y55179D01*
X399614Y55172D01*
X399613Y55167D01*
X399612Y55149D01*
X399597Y55012D01*
X399597Y33522D01*
X399600Y33502D01*
X399598Y33483D01*
X399620Y33381D01*
X399636Y33279D01*
X399646Y33262D01*
X399650Y33242D01*
X399703Y33153D01*
X399752Y33062D01*
X399766Y33048D01*
X399776Y33031D01*
X399855Y32964D01*
X399930Y32892D01*
X399948Y32884D01*
X399963Y32871D01*
X400059Y32832D01*
X400153Y32789D01*
X400173Y32787D01*
X400191Y32779D01*
X400358Y32761D01*
X480947Y32761D01*
X481037Y32775D01*
X481128Y32783D01*
X481158Y32795D01*
X481190Y32800D01*
X481270Y32843D01*
X481354Y32879D01*
X481386Y32905D01*
X481407Y32916D01*
X481429Y32939D01*
X481485Y32984D01*
X488926Y40425D01*
X488979Y40499D01*
X489039Y40568D01*
X489051Y40598D01*
X489070Y40625D01*
X489097Y40711D01*
X489131Y40796D01*
X489135Y40837D01*
X489142Y40860D01*
X489141Y40892D01*
X489149Y40963D01*
X489149Y54907D01*
X489130Y55022D01*
X489113Y55138D01*
X489111Y55144D01*
X489110Y55150D01*
X489055Y55253D01*
X489002Y55357D01*
X488997Y55362D01*
X488994Y55367D01*
X488910Y55447D01*
X488826Y55530D01*
X488820Y55533D01*
X488816Y55537D01*
X488799Y55544D01*
X488679Y55610D01*
X488075Y55861D01*
X484613Y59323D01*
X482739Y63846D01*
X482739Y88554D01*
X484613Y93077D01*
X488075Y96539D01*
X492598Y98413D01*
X497494Y98413D01*
X502017Y96539D01*
X505479Y93077D01*
X507353Y88554D01*
X507353Y63846D01*
X505479Y59323D01*
X502017Y55861D01*
X501921Y55821D01*
X501821Y55759D01*
X501721Y55699D01*
X501717Y55695D01*
X501712Y55691D01*
X501637Y55601D01*
X501561Y55512D01*
X501559Y55507D01*
X501555Y55502D01*
X501513Y55393D01*
X501469Y55284D01*
X501468Y55277D01*
X501467Y55272D01*
X501466Y55254D01*
X501451Y55118D01*
X501451Y36877D01*
X500514Y34616D01*
X487294Y21396D01*
X485033Y20459D01*
X276967Y20459D01*
G37*
%LPD*%
%LPC*%
G36*
X100056Y401349D02*
X100056Y401349D01*
X98103Y402158D01*
X96608Y403653D01*
X95799Y405606D01*
X95799Y432594D01*
X96608Y434547D01*
X98103Y436042D01*
X100056Y436851D01*
X119644Y436851D01*
X121597Y436042D01*
X123092Y434547D01*
X123901Y432594D01*
X123901Y426012D01*
X123904Y425992D01*
X123902Y425973D01*
X123924Y425871D01*
X123940Y425769D01*
X123950Y425752D01*
X123954Y425732D01*
X124007Y425643D01*
X124056Y425552D01*
X124070Y425538D01*
X124080Y425521D01*
X124159Y425454D01*
X124234Y425382D01*
X124252Y425374D01*
X124267Y425361D01*
X124363Y425322D01*
X124457Y425279D01*
X124477Y425277D01*
X124495Y425269D01*
X124662Y425251D01*
X133016Y425251D01*
X133106Y425265D01*
X133197Y425273D01*
X133227Y425285D01*
X133259Y425290D01*
X133339Y425333D01*
X133423Y425369D01*
X133455Y425395D01*
X133476Y425406D01*
X133498Y425429D01*
X133554Y425474D01*
X135447Y427366D01*
X139030Y428851D01*
X142910Y428851D01*
X146493Y427366D01*
X148386Y425474D01*
X148460Y425421D01*
X148529Y425361D01*
X148560Y425349D01*
X148586Y425330D01*
X148673Y425303D01*
X148758Y425269D01*
X148798Y425265D01*
X148821Y425258D01*
X148853Y425259D01*
X148924Y425251D01*
X187637Y425251D01*
X187727Y425265D01*
X187818Y425273D01*
X187848Y425285D01*
X187880Y425290D01*
X187960Y425333D01*
X188044Y425369D01*
X188076Y425395D01*
X188097Y425406D01*
X188119Y425429D01*
X188175Y425474D01*
X194111Y431409D01*
X194179Y431504D01*
X194249Y431598D01*
X194251Y431604D01*
X194255Y431609D01*
X194289Y431720D01*
X194325Y431832D01*
X194325Y431838D01*
X194327Y431844D01*
X194324Y431961D01*
X194323Y432078D01*
X194321Y432085D01*
X194321Y432090D01*
X194314Y432108D01*
X194276Y432239D01*
X193179Y434887D01*
X193179Y454113D01*
X194705Y457796D01*
X197524Y460615D01*
X201207Y462141D01*
X205338Y462141D01*
X205358Y462144D01*
X205377Y462142D01*
X205479Y462164D01*
X205581Y462180D01*
X205598Y462190D01*
X205618Y462194D01*
X205707Y462247D01*
X205798Y462296D01*
X205812Y462310D01*
X205829Y462320D01*
X205896Y462399D01*
X205968Y462474D01*
X205976Y462492D01*
X205989Y462507D01*
X206028Y462603D01*
X206071Y462697D01*
X206073Y462717D01*
X206081Y462735D01*
X206099Y462902D01*
X206099Y551616D01*
X208607Y554124D01*
X263945Y609462D01*
X263957Y609478D01*
X263972Y609490D01*
X264029Y609578D01*
X264089Y609661D01*
X264095Y609680D01*
X264105Y609697D01*
X264131Y609798D01*
X264161Y609897D01*
X264161Y609916D01*
X264165Y609936D01*
X264157Y610039D01*
X264155Y610142D01*
X264148Y610161D01*
X264146Y610181D01*
X264106Y610276D01*
X264070Y610373D01*
X264058Y610389D01*
X264050Y610407D01*
X263964Y610514D01*
X263963Y610517D01*
X263961Y610518D01*
X263945Y610538D01*
X226099Y648384D01*
X226099Y913069D01*
X226085Y913159D01*
X226077Y913250D01*
X226065Y913280D01*
X226060Y913312D01*
X226017Y913392D01*
X225981Y913476D01*
X225955Y913508D01*
X225944Y913529D01*
X225921Y913551D01*
X225876Y913607D01*
X211074Y928409D01*
X211060Y928499D01*
X211050Y928516D01*
X211046Y928536D01*
X210993Y928625D01*
X210944Y928716D01*
X210930Y928730D01*
X210920Y928747D01*
X210841Y928814D01*
X210766Y928886D01*
X210748Y928894D01*
X210733Y928907D01*
X210637Y928946D01*
X210543Y928989D01*
X210523Y928991D01*
X210505Y928999D01*
X210338Y929017D01*
X207356Y929017D01*
X202833Y930891D01*
X199371Y934353D01*
X197497Y938876D01*
X197497Y963584D01*
X199371Y968107D01*
X202833Y971569D01*
X207356Y973443D01*
X212252Y973443D01*
X216775Y971569D01*
X220237Y968107D01*
X222111Y963584D01*
X222111Y938876D01*
X220237Y934353D01*
X219124Y933239D01*
X219071Y933165D01*
X219011Y933096D01*
X218999Y933066D01*
X218980Y933040D01*
X218953Y932953D01*
X218919Y932868D01*
X218915Y932827D01*
X218908Y932805D01*
X218909Y932772D01*
X218901Y932701D01*
X218901Y931931D01*
X218915Y931841D01*
X218923Y931750D01*
X218935Y931720D01*
X218940Y931688D01*
X218983Y931608D01*
X219019Y931524D01*
X219045Y931492D01*
X219056Y931471D01*
X219079Y931449D01*
X219124Y931393D01*
X233901Y916616D01*
X233901Y651931D01*
X233915Y651841D01*
X233923Y651750D01*
X233935Y651720D01*
X233940Y651688D01*
X233983Y651608D01*
X234019Y651524D01*
X234045Y651492D01*
X234056Y651471D01*
X234079Y651449D01*
X234124Y651393D01*
X269462Y616055D01*
X269478Y616043D01*
X269490Y616028D01*
X269578Y615971D01*
X269661Y615911D01*
X269680Y615905D01*
X269697Y615895D01*
X269798Y615869D01*
X269897Y615839D01*
X269916Y615839D01*
X269936Y615835D01*
X270039Y615843D01*
X270142Y615845D01*
X270161Y615852D01*
X270181Y615854D01*
X270276Y615894D01*
X270373Y615930D01*
X270389Y615942D01*
X270407Y615950D01*
X270538Y616055D01*
X305876Y651393D01*
X305924Y651459D01*
X305931Y651466D01*
X305933Y651471D01*
X305989Y651536D01*
X306001Y651566D01*
X306020Y651593D01*
X306047Y651679D01*
X306081Y651764D01*
X306085Y651805D01*
X306092Y651828D01*
X306091Y651860D01*
X306099Y651931D01*
X306099Y656616D01*
X306676Y657193D01*
X306729Y657267D01*
X306789Y657336D01*
X306801Y657366D01*
X306820Y657393D01*
X306847Y657479D01*
X306881Y657564D01*
X306885Y657605D01*
X306892Y657628D01*
X306891Y657660D01*
X306899Y657731D01*
X306899Y667394D01*
X308306Y668801D01*
X310771Y668801D01*
X310867Y668816D01*
X310964Y668826D01*
X310988Y668836D01*
X311013Y668840D01*
X311099Y668886D01*
X311188Y668926D01*
X311208Y668943D01*
X311231Y668956D01*
X311298Y669026D01*
X311370Y669092D01*
X311382Y669115D01*
X311400Y669134D01*
X311441Y669222D01*
X311488Y669308D01*
X311493Y669333D01*
X311504Y669357D01*
X311514Y669454D01*
X311532Y669550D01*
X311528Y669576D01*
X311531Y669601D01*
X311510Y669697D01*
X311496Y669793D01*
X311484Y669816D01*
X311479Y669842D01*
X311429Y669925D01*
X311385Y670012D01*
X311366Y670031D01*
X311352Y670053D01*
X311279Y670116D01*
X311209Y670184D01*
X311180Y670200D01*
X311166Y670213D01*
X311135Y670225D01*
X311062Y670265D01*
X309052Y671098D01*
X306098Y674052D01*
X304499Y677911D01*
X304499Y682089D01*
X306098Y685948D01*
X308949Y688800D01*
X308991Y688858D01*
X309041Y688910D01*
X309063Y688957D01*
X309093Y688999D01*
X309114Y689068D01*
X309144Y689133D01*
X309150Y689185D01*
X309165Y689235D01*
X309163Y689306D01*
X309171Y689377D01*
X309160Y689428D01*
X309159Y689480D01*
X309134Y689548D01*
X309119Y689618D01*
X309092Y689663D01*
X309075Y689711D01*
X309030Y689767D01*
X308993Y689829D01*
X308953Y689863D01*
X308921Y689903D01*
X308861Y689942D01*
X308806Y689989D01*
X308758Y690008D01*
X308714Y690036D01*
X308644Y690054D01*
X308578Y690081D01*
X308507Y690089D01*
X308475Y690097D01*
X308452Y690095D01*
X308411Y690099D01*
X308306Y690099D01*
X306899Y691506D01*
X306899Y705494D01*
X308306Y706901D01*
X322294Y706901D01*
X323701Y705494D01*
X323701Y691506D01*
X322294Y690099D01*
X321589Y690099D01*
X321518Y690088D01*
X321446Y690086D01*
X321397Y690068D01*
X321346Y690060D01*
X321283Y690026D01*
X321215Y690001D01*
X321175Y689969D01*
X321129Y689944D01*
X321079Y689892D01*
X321023Y689848D01*
X320995Y689804D01*
X320959Y689766D01*
X320929Y689701D01*
X320890Y689641D01*
X320878Y689590D01*
X320856Y689543D01*
X320848Y689472D01*
X320830Y689402D01*
X320834Y689350D01*
X320829Y689299D01*
X320844Y689228D01*
X320849Y689157D01*
X320870Y689109D01*
X320881Y689058D01*
X320918Y688997D01*
X320946Y688931D01*
X320991Y688875D01*
X321007Y688847D01*
X321025Y688832D01*
X321051Y688800D01*
X323902Y685948D01*
X325501Y682089D01*
X325501Y677911D01*
X323902Y674052D01*
X320948Y671098D01*
X318938Y670265D01*
X318855Y670214D01*
X318769Y670168D01*
X318751Y670150D01*
X318729Y670136D01*
X318667Y670060D01*
X318600Y669990D01*
X318589Y669966D01*
X318572Y669946D01*
X318537Y669855D01*
X318496Y669767D01*
X318493Y669741D01*
X318484Y669717D01*
X318480Y669619D01*
X318469Y669523D01*
X318475Y669497D01*
X318474Y669471D01*
X318501Y669377D01*
X318521Y669282D01*
X318535Y669260D01*
X318542Y669235D01*
X318598Y669155D01*
X318648Y669071D01*
X318667Y669054D01*
X318682Y669033D01*
X318761Y668974D01*
X318834Y668911D01*
X318859Y668901D01*
X318880Y668886D01*
X318972Y668856D01*
X319063Y668819D01*
X319095Y668816D01*
X319114Y668810D01*
X319147Y668810D01*
X319229Y668801D01*
X322294Y668801D01*
X323701Y667394D01*
X323701Y653406D01*
X322294Y651999D01*
X314662Y651999D01*
X314642Y651996D01*
X314623Y651998D01*
X314521Y651976D01*
X314419Y651960D01*
X314402Y651950D01*
X314382Y651946D01*
X314293Y651893D01*
X314202Y651844D01*
X314188Y651830D01*
X314171Y651820D01*
X314104Y651741D01*
X314032Y651666D01*
X314024Y651648D01*
X314011Y651633D01*
X313972Y651537D01*
X313929Y651443D01*
X313927Y651423D01*
X313919Y651405D01*
X313901Y651238D01*
X313901Y648384D01*
X292317Y626800D01*
X292275Y626742D01*
X292226Y626690D01*
X292204Y626643D01*
X292173Y626601D01*
X292152Y626532D01*
X292122Y626467D01*
X292116Y626415D01*
X292101Y626365D01*
X292103Y626294D01*
X292095Y626223D01*
X292106Y626172D01*
X292107Y626120D01*
X292132Y626052D01*
X292147Y625982D01*
X292174Y625937D01*
X292192Y625889D01*
X292237Y625833D01*
X292273Y625771D01*
X292313Y625737D01*
X292345Y625697D01*
X292406Y625658D01*
X292460Y625611D01*
X292508Y625592D01*
X292552Y625564D01*
X292622Y625546D01*
X292688Y625519D01*
X292760Y625511D01*
X292791Y625503D01*
X292814Y625505D01*
X292855Y625501D01*
X297089Y625501D01*
X300948Y623902D01*
X303902Y620948D01*
X305501Y617089D01*
X305501Y612911D01*
X303902Y609052D01*
X300948Y606098D01*
X299371Y605444D01*
X299271Y605383D01*
X299171Y605323D01*
X299167Y605318D01*
X299162Y605315D01*
X299087Y605225D01*
X299011Y605136D01*
X299009Y605130D01*
X299005Y605125D01*
X298963Y605017D01*
X298919Y604908D01*
X298918Y604900D01*
X298917Y604896D01*
X298916Y604877D01*
X298901Y604741D01*
X298901Y561480D01*
X298915Y561390D01*
X298923Y561299D01*
X298935Y561269D01*
X298940Y561237D01*
X298983Y561156D01*
X299019Y561072D01*
X299045Y561040D01*
X299056Y561020D01*
X299079Y560997D01*
X299124Y560941D01*
X300452Y559613D01*
X300468Y559602D01*
X300480Y559586D01*
X300568Y559530D01*
X300651Y559470D01*
X300670Y559464D01*
X300687Y559453D01*
X300788Y559428D01*
X300887Y559398D01*
X300906Y559398D01*
X300926Y559393D01*
X301029Y559401D01*
X301132Y559404D01*
X301151Y559411D01*
X301171Y559412D01*
X301266Y559453D01*
X301363Y559488D01*
X301379Y559501D01*
X301397Y559509D01*
X301528Y559613D01*
X302996Y561081D01*
X317984Y561081D01*
X319391Y559674D01*
X319391Y542686D01*
X319124Y542419D01*
X319071Y542345D01*
X319011Y542275D01*
X318999Y542245D01*
X318980Y542219D01*
X318953Y542132D01*
X318919Y542047D01*
X318915Y542006D01*
X318908Y541984D01*
X318909Y541952D01*
X318901Y541880D01*
X318901Y531931D01*
X318915Y531841D01*
X318923Y531750D01*
X318935Y531720D01*
X318940Y531688D01*
X318983Y531608D01*
X319019Y531524D01*
X319045Y531492D01*
X319056Y531471D01*
X319079Y531449D01*
X319124Y531393D01*
X323901Y526616D01*
X323901Y498384D01*
X266616Y441099D01*
X239382Y441099D01*
X239362Y441096D01*
X239343Y441098D01*
X239241Y441076D01*
X239139Y441060D01*
X239122Y441050D01*
X239102Y441046D01*
X239013Y440993D01*
X238922Y440944D01*
X238908Y440930D01*
X238891Y440920D01*
X238824Y440841D01*
X238752Y440766D01*
X238744Y440748D01*
X238731Y440733D01*
X238692Y440637D01*
X238649Y440543D01*
X238647Y440523D01*
X238639Y440505D01*
X238621Y440338D01*
X238621Y434887D01*
X237095Y431204D01*
X234276Y428385D01*
X230593Y426859D01*
X226607Y426859D01*
X222924Y428385D01*
X220105Y431204D01*
X218579Y434887D01*
X218579Y454113D01*
X220105Y457796D01*
X222924Y460615D01*
X226607Y462141D01*
X230593Y462141D01*
X234276Y460615D01*
X237095Y457796D01*
X238621Y454113D01*
X238621Y449662D01*
X238624Y449642D01*
X238622Y449623D01*
X238644Y449521D01*
X238660Y449419D01*
X238670Y449402D01*
X238674Y449382D01*
X238727Y449293D01*
X238776Y449202D01*
X238790Y449188D01*
X238800Y449171D01*
X238879Y449104D01*
X238954Y449032D01*
X238972Y449024D01*
X238987Y449011D01*
X239083Y448972D01*
X239177Y448929D01*
X239197Y448927D01*
X239215Y448919D01*
X239382Y448901D01*
X263069Y448901D01*
X263159Y448915D01*
X263250Y448923D01*
X263280Y448935D01*
X263312Y448940D01*
X263392Y448983D01*
X263476Y449019D01*
X263508Y449045D01*
X263529Y449056D01*
X263551Y449079D01*
X263607Y449124D01*
X315876Y501393D01*
X315919Y501452D01*
X315965Y501500D01*
X315973Y501517D01*
X315989Y501536D01*
X316001Y501566D01*
X316020Y501593D01*
X316044Y501671D01*
X316068Y501723D01*
X316070Y501737D01*
X316081Y501764D01*
X316085Y501805D01*
X316092Y501828D01*
X316091Y501860D01*
X316099Y501931D01*
X316099Y523069D01*
X316085Y523159D01*
X316077Y523250D01*
X316065Y523280D01*
X316060Y523312D01*
X316017Y523392D01*
X315981Y523476D01*
X315955Y523508D01*
X315944Y523529D01*
X315921Y523551D01*
X315876Y523607D01*
X311099Y528384D01*
X311099Y540518D01*
X311096Y540538D01*
X311098Y540557D01*
X311076Y540659D01*
X311060Y540761D01*
X311050Y540778D01*
X311046Y540798D01*
X310993Y540887D01*
X310944Y540978D01*
X310930Y540992D01*
X310920Y541009D01*
X310841Y541076D01*
X310766Y541148D01*
X310748Y541156D01*
X310733Y541169D01*
X310637Y541208D01*
X310543Y541251D01*
X310523Y541253D01*
X310505Y541261D01*
X310338Y541279D01*
X302996Y541279D01*
X301528Y542747D01*
X301512Y542758D01*
X301500Y542774D01*
X301412Y542830D01*
X301329Y542890D01*
X301310Y542896D01*
X301293Y542907D01*
X301192Y542932D01*
X301093Y542962D01*
X301074Y542962D01*
X301054Y542967D01*
X300951Y542959D01*
X300848Y542956D01*
X300829Y542949D01*
X300809Y542948D01*
X300714Y542907D01*
X300617Y542872D01*
X300601Y542859D01*
X300583Y542851D01*
X300452Y542747D01*
X298984Y541279D01*
X294662Y541279D01*
X294642Y541276D01*
X294623Y541278D01*
X294521Y541256D01*
X294419Y541240D01*
X294402Y541230D01*
X294382Y541226D01*
X294293Y541173D01*
X294202Y541124D01*
X294188Y541110D01*
X294171Y541100D01*
X294104Y541021D01*
X294032Y540946D01*
X294024Y540928D01*
X294011Y540913D01*
X293972Y540817D01*
X293929Y540723D01*
X293927Y540703D01*
X293919Y540685D01*
X293901Y540518D01*
X293901Y522472D01*
X293903Y522456D01*
X293902Y522443D01*
X293902Y522439D01*
X293902Y522433D01*
X293924Y522331D01*
X293940Y522229D01*
X293950Y522212D01*
X293954Y522192D01*
X294007Y522103D01*
X294056Y522012D01*
X294070Y521998D01*
X294080Y521981D01*
X294159Y521914D01*
X294234Y521842D01*
X294252Y521834D01*
X294267Y521821D01*
X294363Y521782D01*
X294457Y521739D01*
X294477Y521737D01*
X294495Y521729D01*
X294662Y521711D01*
X297714Y521711D01*
X299121Y520304D01*
X299121Y503316D01*
X297714Y501909D01*
X282726Y501909D01*
X281319Y503316D01*
X281319Y520304D01*
X282726Y521711D01*
X285338Y521711D01*
X285358Y521714D01*
X285377Y521712D01*
X285479Y521734D01*
X285581Y521750D01*
X285598Y521760D01*
X285618Y521764D01*
X285707Y521817D01*
X285798Y521866D01*
X285812Y521880D01*
X285829Y521890D01*
X285896Y521969D01*
X285968Y522044D01*
X285976Y522062D01*
X285989Y522077D01*
X286028Y522173D01*
X286071Y522267D01*
X286073Y522287D01*
X286081Y522305D01*
X286099Y522472D01*
X286099Y540518D01*
X286096Y540538D01*
X286098Y540557D01*
X286076Y540659D01*
X286060Y540761D01*
X286050Y540778D01*
X286046Y540798D01*
X285993Y540887D01*
X285944Y540978D01*
X285930Y540992D01*
X285920Y541009D01*
X285841Y541076D01*
X285766Y541148D01*
X285748Y541156D01*
X285733Y541169D01*
X285637Y541208D01*
X285543Y541251D01*
X285523Y541253D01*
X285505Y541261D01*
X285338Y541279D01*
X283996Y541279D01*
X282589Y542686D01*
X282589Y559674D01*
X283996Y561081D01*
X290338Y561081D01*
X290358Y561084D01*
X290377Y561082D01*
X290479Y561104D01*
X290581Y561120D01*
X290598Y561130D01*
X290618Y561134D01*
X290707Y561187D01*
X290798Y561236D01*
X290812Y561250D01*
X290829Y561260D01*
X290896Y561339D01*
X290968Y561414D01*
X290976Y561432D01*
X290989Y561447D01*
X291028Y561543D01*
X291071Y561637D01*
X291073Y561657D01*
X291081Y561675D01*
X291099Y561842D01*
X291099Y604741D01*
X291080Y604856D01*
X291063Y604972D01*
X291061Y604978D01*
X291060Y604984D01*
X291005Y605087D01*
X290952Y605191D01*
X290947Y605196D01*
X290944Y605201D01*
X290860Y605281D01*
X290776Y605364D01*
X290770Y605367D01*
X290766Y605371D01*
X290749Y605378D01*
X290629Y605444D01*
X289052Y606098D01*
X286098Y609052D01*
X284499Y612911D01*
X284499Y617145D01*
X284488Y617216D01*
X284486Y617287D01*
X284468Y617336D01*
X284460Y617388D01*
X284426Y617451D01*
X284401Y617518D01*
X284369Y617559D01*
X284344Y617605D01*
X284293Y617654D01*
X284248Y617710D01*
X284204Y617739D01*
X284166Y617774D01*
X284101Y617805D01*
X284041Y617843D01*
X283990Y617856D01*
X283943Y617878D01*
X283872Y617886D01*
X283802Y617904D01*
X283750Y617899D01*
X283699Y617905D01*
X283628Y617890D01*
X283557Y617884D01*
X283509Y617864D01*
X283458Y617853D01*
X283397Y617816D01*
X283331Y617788D01*
X283275Y617743D01*
X283247Y617727D01*
X283232Y617709D01*
X283200Y617683D01*
X274124Y608607D01*
X271393Y605876D01*
X214124Y548607D01*
X214071Y548533D01*
X214011Y548464D01*
X213999Y548434D01*
X213980Y548407D01*
X213953Y548321D01*
X213919Y548236D01*
X213915Y548195D01*
X213908Y548172D01*
X213909Y548140D01*
X213901Y548069D01*
X213901Y458384D01*
X212529Y457012D01*
X212460Y456917D01*
X212391Y456823D01*
X212389Y456817D01*
X212385Y456812D01*
X212351Y456701D01*
X212314Y456590D01*
X212315Y456583D01*
X212313Y456577D01*
X212316Y456461D01*
X212317Y456344D01*
X212319Y456336D01*
X212319Y456331D01*
X212325Y456314D01*
X212364Y456183D01*
X213221Y454113D01*
X213221Y434887D01*
X211695Y431204D01*
X208876Y428385D01*
X208345Y428165D01*
X208290Y428130D01*
X208229Y428105D01*
X208164Y428053D01*
X208136Y428035D01*
X208124Y428020D01*
X208098Y428000D01*
X195821Y415723D01*
X193984Y413886D01*
X191723Y412949D01*
X148924Y412949D01*
X148834Y412935D01*
X148743Y412927D01*
X148713Y412915D01*
X148681Y412910D01*
X148601Y412867D01*
X148517Y412831D01*
X148485Y412805D01*
X148464Y412794D01*
X148442Y412771D01*
X148386Y412726D01*
X146493Y410834D01*
X142910Y409349D01*
X139030Y409349D01*
X135447Y410834D01*
X133554Y412726D01*
X133480Y412779D01*
X133411Y412839D01*
X133380Y412851D01*
X133354Y412870D01*
X133267Y412897D01*
X133182Y412931D01*
X133142Y412935D01*
X133119Y412942D01*
X133087Y412941D01*
X133016Y412949D01*
X124662Y412949D01*
X124642Y412946D01*
X124623Y412948D01*
X124521Y412926D01*
X124419Y412910D01*
X124402Y412900D01*
X124382Y412896D01*
X124293Y412843D01*
X124202Y412794D01*
X124188Y412780D01*
X124171Y412770D01*
X124104Y412691D01*
X124032Y412616D01*
X124024Y412598D01*
X124011Y412583D01*
X123972Y412487D01*
X123929Y412393D01*
X123927Y412373D01*
X123919Y412355D01*
X123901Y412188D01*
X123901Y405606D01*
X123092Y403653D01*
X121597Y402158D01*
X119644Y401349D01*
X100056Y401349D01*
G37*
%LPD*%
G36*
X562047Y164837D02*
X562047Y164837D01*
X562042Y164844D01*
X562049Y164850D01*
X562049Y179550D01*
X562013Y179597D01*
X562006Y179592D01*
X562000Y179599D01*
X551549Y179599D01*
X551549Y241550D01*
X551513Y241597D01*
X551506Y241592D01*
X551500Y241599D01*
X464500Y241599D01*
X464453Y241563D01*
X464458Y241556D01*
X464451Y241550D01*
X464451Y179599D01*
X454000Y179599D01*
X453953Y179563D01*
X453958Y179556D01*
X453951Y179550D01*
X453951Y164850D01*
X453987Y164803D01*
X453994Y164808D01*
X454000Y164801D01*
X562000Y164801D01*
X562047Y164837D01*
G37*
%LPC*%
G36*
X69540Y606739D02*
X69540Y606739D01*
X66622Y607948D01*
X64388Y610182D01*
X63179Y613100D01*
X63179Y616260D01*
X64388Y619178D01*
X66622Y621412D01*
X69540Y622621D01*
X71789Y622621D01*
X71879Y622635D01*
X71970Y622643D01*
X72000Y622655D01*
X72032Y622660D01*
X72112Y622703D01*
X72196Y622739D01*
X72228Y622765D01*
X72249Y622776D01*
X72271Y622799D01*
X72327Y622844D01*
X115876Y666393D01*
X115929Y666467D01*
X115989Y666536D01*
X116001Y666566D01*
X116020Y666593D01*
X116047Y666679D01*
X116081Y666764D01*
X116085Y666805D01*
X116092Y666828D01*
X116091Y666860D01*
X116099Y666931D01*
X116099Y694045D01*
X116085Y694136D01*
X116077Y694226D01*
X116065Y694256D01*
X116060Y694288D01*
X116017Y694369D01*
X115981Y694453D01*
X115955Y694485D01*
X115944Y694506D01*
X115921Y694528D01*
X115876Y694584D01*
X115188Y695272D01*
X113979Y698190D01*
X113979Y701350D01*
X115188Y704268D01*
X115876Y704956D01*
X115929Y705030D01*
X115989Y705100D01*
X116001Y705130D01*
X116020Y705156D01*
X116047Y705243D01*
X116081Y705328D01*
X116085Y705369D01*
X116092Y705391D01*
X116091Y705423D01*
X116099Y705495D01*
X116099Y916616D01*
X145966Y946483D01*
X146019Y946557D01*
X146079Y946626D01*
X146091Y946656D01*
X146110Y946683D01*
X146137Y946769D01*
X146171Y946854D01*
X146175Y946895D01*
X146182Y946918D01*
X146181Y946950D01*
X146189Y947021D01*
X146189Y963584D01*
X148063Y968107D01*
X151525Y971569D01*
X156048Y973443D01*
X160944Y973443D01*
X165467Y971569D01*
X168929Y968107D01*
X170803Y963584D01*
X170803Y938876D01*
X168929Y934353D01*
X165467Y930891D01*
X160944Y929017D01*
X156048Y929017D01*
X151525Y930891D01*
X148063Y934353D01*
X147563Y935558D01*
X147539Y935598D01*
X147524Y935641D01*
X147475Y935701D01*
X147434Y935767D01*
X147399Y935797D01*
X147370Y935833D01*
X147304Y935875D01*
X147244Y935924D01*
X147202Y935941D01*
X147163Y935966D01*
X147087Y935985D01*
X147015Y936013D01*
X146969Y936014D01*
X146924Y936026D01*
X146847Y936020D01*
X146769Y936023D01*
X146725Y936010D01*
X146679Y936007D01*
X146608Y935976D01*
X146533Y935954D01*
X146495Y935928D01*
X146453Y935910D01*
X146346Y935825D01*
X146331Y935814D01*
X146328Y935810D01*
X146322Y935805D01*
X124124Y913607D01*
X124071Y913533D01*
X124011Y913464D01*
X123999Y913434D01*
X123980Y913407D01*
X123953Y913321D01*
X123919Y913236D01*
X123915Y913195D01*
X123908Y913172D01*
X123909Y913140D01*
X123901Y913069D01*
X123901Y708053D01*
X123920Y707938D01*
X123937Y707822D01*
X123939Y707817D01*
X123940Y707810D01*
X123995Y707708D01*
X124048Y707603D01*
X124053Y707599D01*
X124056Y707593D01*
X124140Y707513D01*
X124224Y707431D01*
X124230Y707427D01*
X124234Y707424D01*
X124251Y707416D01*
X124371Y707350D01*
X126418Y706502D01*
X128652Y704268D01*
X129861Y701350D01*
X129861Y698190D01*
X128652Y695272D01*
X126418Y693038D01*
X124371Y692190D01*
X124271Y692129D01*
X124171Y692069D01*
X124167Y692064D01*
X124162Y692060D01*
X124087Y691970D01*
X124040Y691916D01*
X124032Y691908D01*
X124032Y691906D01*
X124011Y691882D01*
X124009Y691876D01*
X124005Y691871D01*
X123963Y691763D01*
X123950Y691730D01*
X123929Y691684D01*
X123928Y691675D01*
X123919Y691654D01*
X123918Y691646D01*
X123917Y691641D01*
X123916Y691623D01*
X123901Y691487D01*
X123901Y663384D01*
X79124Y618607D01*
X79071Y618533D01*
X79011Y618464D01*
X78999Y618434D01*
X78980Y618407D01*
X78953Y618321D01*
X78919Y618236D01*
X78915Y618195D01*
X78908Y618172D01*
X78909Y618140D01*
X78901Y618069D01*
X78901Y616797D01*
X78911Y616733D01*
X78912Y616667D01*
X78935Y616587D01*
X78940Y616554D01*
X78950Y616537D01*
X78959Y616506D01*
X79061Y616260D01*
X79061Y613100D01*
X77852Y610182D01*
X75618Y607948D01*
X72700Y606739D01*
X69540Y606739D01*
G37*
%LPD*%
%LPC*%
G36*
X96256Y134649D02*
X96256Y134649D01*
X94303Y135458D01*
X92808Y136953D01*
X91999Y138906D01*
X91999Y157437D01*
X91985Y157527D01*
X91977Y157618D01*
X91965Y157648D01*
X91960Y157680D01*
X91917Y157760D01*
X91881Y157844D01*
X91855Y157876D01*
X91844Y157897D01*
X91821Y157919D01*
X91776Y157975D01*
X72823Y176929D01*
X70986Y178766D01*
X70049Y181027D01*
X70049Y214294D01*
X70030Y214409D01*
X70013Y214525D01*
X70011Y214531D01*
X70010Y214537D01*
X69955Y214640D01*
X69902Y214744D01*
X69897Y214749D01*
X69894Y214754D01*
X69810Y214834D01*
X69726Y214917D01*
X69720Y214920D01*
X69716Y214924D01*
X69699Y214931D01*
X69579Y214997D01*
X67646Y215798D01*
X63398Y220046D01*
X61099Y225596D01*
X61099Y257004D01*
X63398Y262554D01*
X67646Y266802D01*
X73196Y269101D01*
X79204Y269101D01*
X84754Y266802D01*
X89002Y262554D01*
X91301Y257004D01*
X91301Y225596D01*
X89002Y220046D01*
X84754Y215798D01*
X82821Y214997D01*
X82721Y214936D01*
X82621Y214876D01*
X82617Y214871D01*
X82612Y214868D01*
X82537Y214778D01*
X82461Y214689D01*
X82459Y214683D01*
X82455Y214678D01*
X82413Y214570D01*
X82369Y214461D01*
X82368Y214453D01*
X82367Y214449D01*
X82366Y214430D01*
X82351Y214294D01*
X82351Y185113D01*
X82365Y185023D01*
X82373Y184932D01*
X82385Y184902D01*
X82390Y184870D01*
X82433Y184790D01*
X82469Y184706D01*
X82495Y184674D01*
X82506Y184653D01*
X82529Y184631D01*
X82574Y184575D01*
X96775Y170374D01*
X96849Y170321D01*
X96918Y170261D01*
X96948Y170249D01*
X96974Y170230D01*
X97061Y170203D01*
X97146Y170169D01*
X97187Y170165D01*
X97210Y170158D01*
X97242Y170159D01*
X97313Y170151D01*
X115844Y170151D01*
X117797Y169342D01*
X119292Y167847D01*
X120101Y165894D01*
X120101Y138906D01*
X119292Y136953D01*
X117797Y135458D01*
X115844Y134649D01*
X96256Y134649D01*
G37*
%LPD*%
%LPC*%
G36*
X46829Y909639D02*
X46829Y909639D01*
X39158Y911695D01*
X32281Y915665D01*
X26665Y921281D01*
X22695Y928158D01*
X20639Y935829D01*
X20639Y943771D01*
X22695Y951442D01*
X26665Y958319D01*
X32281Y963935D01*
X39158Y967905D01*
X46829Y969961D01*
X54771Y969961D01*
X62442Y967905D01*
X69319Y963935D01*
X74935Y958319D01*
X78905Y951442D01*
X80961Y943771D01*
X80961Y935829D01*
X78905Y928158D01*
X74935Y921281D01*
X69319Y915665D01*
X62442Y911695D01*
X54771Y909639D01*
X46829Y909639D01*
G37*
%LPD*%
%LPC*%
G36*
X46829Y33339D02*
X46829Y33339D01*
X39158Y35395D01*
X32281Y39365D01*
X26665Y44981D01*
X22695Y51858D01*
X20639Y59529D01*
X20639Y67471D01*
X22695Y75142D01*
X26665Y82019D01*
X32281Y87635D01*
X39158Y91605D01*
X46829Y93661D01*
X54771Y93661D01*
X62442Y91605D01*
X69319Y87635D01*
X74935Y82019D01*
X78905Y75142D01*
X80961Y67471D01*
X80961Y59529D01*
X78905Y51858D01*
X74935Y44981D01*
X69319Y39365D01*
X62442Y35395D01*
X54771Y33339D01*
X46829Y33339D01*
G37*
%LPD*%
%LPC*%
G36*
X405916Y796549D02*
X405916Y796549D01*
X404509Y797956D01*
X404509Y814944D01*
X405916Y816351D01*
X410338Y816351D01*
X410358Y816354D01*
X410377Y816352D01*
X410479Y816374D01*
X410581Y816390D01*
X410598Y816400D01*
X410618Y816404D01*
X410707Y816457D01*
X410798Y816506D01*
X410812Y816520D01*
X410829Y816530D01*
X410896Y816609D01*
X410968Y816684D01*
X410976Y816702D01*
X410989Y816717D01*
X411028Y816813D01*
X411071Y816907D01*
X411073Y816927D01*
X411081Y816945D01*
X411099Y817112D01*
X411099Y928284D01*
X411080Y928398D01*
X411063Y928515D01*
X411061Y928520D01*
X411060Y928526D01*
X411005Y928629D01*
X410952Y928734D01*
X410947Y928738D01*
X410944Y928744D01*
X410861Y928823D01*
X410776Y928906D01*
X410770Y928910D01*
X410766Y928913D01*
X410749Y928921D01*
X410629Y928987D01*
X406033Y930891D01*
X402571Y934353D01*
X400697Y938876D01*
X400697Y963584D01*
X402571Y968107D01*
X406033Y971569D01*
X410556Y973443D01*
X415452Y973443D01*
X419975Y971569D01*
X423437Y968107D01*
X425311Y963584D01*
X425311Y938876D01*
X423437Y934353D01*
X419975Y930891D01*
X419371Y930640D01*
X419271Y930579D01*
X419171Y930519D01*
X419167Y930514D01*
X419162Y930511D01*
X419087Y930420D01*
X419011Y930332D01*
X419009Y930326D01*
X419005Y930321D01*
X418963Y930213D01*
X418919Y930104D01*
X418918Y930096D01*
X418917Y930092D01*
X418916Y930073D01*
X418901Y929937D01*
X418901Y817112D01*
X418904Y817092D01*
X418902Y817073D01*
X418924Y816971D01*
X418940Y816869D01*
X418950Y816852D01*
X418954Y816832D01*
X419007Y816743D01*
X419056Y816652D01*
X419070Y816638D01*
X419080Y816621D01*
X419159Y816554D01*
X419234Y816482D01*
X419252Y816474D01*
X419267Y816461D01*
X419363Y816422D01*
X419457Y816379D01*
X419477Y816377D01*
X419495Y816369D01*
X419662Y816351D01*
X420904Y816351D01*
X422311Y814944D01*
X422311Y797956D01*
X420904Y796549D01*
X405916Y796549D01*
G37*
%LPD*%
%LPC*%
G36*
X150006Y284494D02*
X150006Y284494D01*
X148599Y285901D01*
X148599Y297297D01*
X148584Y297387D01*
X148577Y297478D01*
X148565Y297508D01*
X148560Y297540D01*
X148517Y297621D01*
X148481Y297705D01*
X148473Y297715D01*
X147519Y300017D01*
X147519Y313708D01*
X147516Y313728D01*
X147518Y313747D01*
X147496Y313849D01*
X147480Y313951D01*
X147470Y313968D01*
X147466Y313988D01*
X147413Y314077D01*
X147364Y314168D01*
X147350Y314182D01*
X147340Y314199D01*
X147261Y314266D01*
X147186Y314338D01*
X147168Y314346D01*
X147153Y314359D01*
X147057Y314398D01*
X146963Y314441D01*
X146943Y314443D01*
X146925Y314451D01*
X146758Y314469D01*
X143661Y314469D01*
X142254Y315876D01*
X142254Y317958D01*
X142251Y317978D01*
X142253Y317997D01*
X142231Y318099D01*
X142215Y318201D01*
X142205Y318218D01*
X142201Y318238D01*
X142148Y318327D01*
X142099Y318418D01*
X142085Y318432D01*
X142075Y318449D01*
X141996Y318516D01*
X141921Y318588D01*
X141903Y318596D01*
X141888Y318609D01*
X141792Y318648D01*
X141698Y318691D01*
X141678Y318693D01*
X141660Y318701D01*
X141493Y318719D01*
X132377Y318719D01*
X130116Y319656D01*
X114600Y335171D01*
X114542Y335213D01*
X114490Y335263D01*
X114443Y335285D01*
X114401Y335315D01*
X114332Y335336D01*
X114267Y335366D01*
X114215Y335372D01*
X114165Y335387D01*
X114094Y335385D01*
X114023Y335393D01*
X113972Y335382D01*
X113920Y335381D01*
X113852Y335356D01*
X113782Y335341D01*
X113737Y335314D01*
X113689Y335296D01*
X113633Y335252D01*
X113571Y335215D01*
X113537Y335175D01*
X113497Y335143D01*
X113458Y335082D01*
X113411Y335028D01*
X113392Y334980D01*
X113364Y334936D01*
X113346Y334866D01*
X113319Y334800D01*
X113311Y334728D01*
X113303Y334697D01*
X113305Y334674D01*
X113301Y334633D01*
X113301Y332606D01*
X111894Y331199D01*
X91306Y331199D01*
X89899Y332606D01*
X89899Y353194D01*
X91306Y354601D01*
X111894Y354601D01*
X113301Y353194D01*
X113301Y349812D01*
X113304Y349792D01*
X113302Y349773D01*
X113324Y349671D01*
X113340Y349569D01*
X113350Y349552D01*
X113354Y349532D01*
X113407Y349443D01*
X113456Y349352D01*
X113470Y349338D01*
X113480Y349321D01*
X113559Y349254D01*
X113634Y349182D01*
X113652Y349174D01*
X113667Y349161D01*
X113763Y349122D01*
X113857Y349079D01*
X113877Y349077D01*
X113895Y349069D01*
X114062Y349051D01*
X116793Y349051D01*
X119054Y348114D01*
X135925Y331244D01*
X135999Y331191D01*
X136068Y331131D01*
X136098Y331119D01*
X136125Y331100D01*
X136211Y331073D01*
X136296Y331039D01*
X136337Y331035D01*
X136360Y331028D01*
X136392Y331029D01*
X136463Y331021D01*
X141493Y331021D01*
X141513Y331024D01*
X141532Y331022D01*
X141634Y331044D01*
X141736Y331060D01*
X141753Y331070D01*
X141773Y331074D01*
X141862Y331127D01*
X141953Y331176D01*
X141967Y331190D01*
X141984Y331200D01*
X142051Y331279D01*
X142123Y331354D01*
X142131Y331372D01*
X142144Y331387D01*
X142183Y331483D01*
X142226Y331577D01*
X142228Y331597D01*
X142236Y331615D01*
X142254Y331782D01*
X142254Y333864D01*
X143661Y335271D01*
X163679Y335271D01*
X165086Y333864D01*
X165086Y315876D01*
X163679Y314469D01*
X160582Y314469D01*
X160562Y314466D01*
X160543Y314468D01*
X160441Y314446D01*
X160339Y314430D01*
X160322Y314420D01*
X160302Y314416D01*
X160213Y314363D01*
X160122Y314314D01*
X160108Y314300D01*
X160091Y314290D01*
X160024Y314211D01*
X159952Y314136D01*
X159944Y314118D01*
X159931Y314103D01*
X159892Y314007D01*
X159849Y313913D01*
X159847Y313893D01*
X159839Y313875D01*
X159821Y313708D01*
X159821Y308087D01*
X159824Y308067D01*
X159822Y308048D01*
X159844Y307946D01*
X159860Y307844D01*
X159870Y307827D01*
X159874Y307807D01*
X159927Y307718D01*
X159976Y307627D01*
X159990Y307613D01*
X160000Y307596D01*
X160079Y307529D01*
X160154Y307457D01*
X160172Y307449D01*
X160187Y307436D01*
X160283Y307397D01*
X160377Y307354D01*
X160397Y307352D01*
X160415Y307344D01*
X160582Y307326D01*
X167994Y307326D01*
X169401Y305919D01*
X169401Y285901D01*
X167994Y284494D01*
X150006Y284494D01*
G37*
%LPD*%
%LPC*%
G36*
X188560Y277269D02*
X188560Y277269D01*
X184977Y278754D01*
X182234Y281497D01*
X180749Y285080D01*
X180749Y288960D01*
X182234Y292543D01*
X184126Y294436D01*
X184179Y294510D01*
X184239Y294579D01*
X184251Y294609D01*
X184270Y294636D01*
X184297Y294723D01*
X184331Y294807D01*
X184335Y294848D01*
X184342Y294871D01*
X184341Y294903D01*
X184349Y294974D01*
X184349Y309583D01*
X185286Y311844D01*
X186666Y313225D01*
X186719Y313299D01*
X186779Y313368D01*
X186791Y313398D01*
X186810Y313425D01*
X186837Y313511D01*
X186871Y313596D01*
X186875Y313637D01*
X186882Y313660D01*
X186881Y313692D01*
X186889Y313763D01*
X186889Y353996D01*
X186875Y354086D01*
X186867Y354177D01*
X186855Y354207D01*
X186850Y354239D01*
X186807Y354319D01*
X186771Y354403D01*
X186745Y354435D01*
X186734Y354456D01*
X186711Y354478D01*
X186666Y354534D01*
X184774Y356427D01*
X183289Y360010D01*
X183289Y363890D01*
X184774Y367473D01*
X187517Y370216D01*
X191100Y371701D01*
X194980Y371701D01*
X198563Y370216D01*
X201306Y367473D01*
X202791Y363890D01*
X202791Y360010D01*
X201306Y356427D01*
X199414Y354534D01*
X199361Y354460D01*
X199301Y354391D01*
X199289Y354361D01*
X199270Y354334D01*
X199243Y354247D01*
X199209Y354163D01*
X199205Y354122D01*
X199198Y354099D01*
X199199Y354067D01*
X199191Y353996D01*
X199191Y321262D01*
X199194Y321242D01*
X199192Y321223D01*
X199214Y321121D01*
X199230Y321019D01*
X199240Y321002D01*
X199244Y320982D01*
X199297Y320893D01*
X199346Y320802D01*
X199360Y320788D01*
X199370Y320771D01*
X199449Y320704D01*
X199524Y320632D01*
X199542Y320624D01*
X199557Y320611D01*
X199653Y320572D01*
X199747Y320529D01*
X199767Y320527D01*
X199785Y320519D01*
X199952Y320501D01*
X214128Y320501D01*
X214148Y320504D01*
X214167Y320502D01*
X214269Y320524D01*
X214371Y320540D01*
X214388Y320550D01*
X214408Y320554D01*
X214497Y320607D01*
X214588Y320656D01*
X214602Y320670D01*
X214619Y320680D01*
X214686Y320759D01*
X214758Y320834D01*
X214766Y320852D01*
X214779Y320867D01*
X214818Y320963D01*
X214861Y321057D01*
X214863Y321077D01*
X214871Y321095D01*
X214889Y321262D01*
X214889Y321844D01*
X216296Y323251D01*
X233284Y323251D01*
X234691Y321844D01*
X234691Y306856D01*
X233284Y305449D01*
X224405Y305449D01*
X224340Y305439D01*
X224275Y305438D01*
X224195Y305415D01*
X224162Y305410D01*
X224145Y305400D01*
X224114Y305391D01*
X222563Y304749D01*
X220117Y304749D01*
X218566Y305391D01*
X218503Y305406D01*
X218442Y305431D01*
X218359Y305440D01*
X218327Y305447D01*
X218308Y305446D01*
X218275Y305449D01*
X216296Y305449D01*
X214889Y306856D01*
X214889Y307438D01*
X214886Y307458D01*
X214888Y307477D01*
X214866Y307579D01*
X214850Y307681D01*
X214840Y307698D01*
X214836Y307718D01*
X214783Y307807D01*
X214734Y307898D01*
X214720Y307912D01*
X214710Y307929D01*
X214631Y307996D01*
X214556Y308068D01*
X214538Y308076D01*
X214523Y308089D01*
X214427Y308128D01*
X214333Y308171D01*
X214313Y308173D01*
X214295Y308181D01*
X214128Y308199D01*
X199353Y308199D01*
X199263Y308185D01*
X199172Y308177D01*
X199142Y308165D01*
X199110Y308160D01*
X199030Y308117D01*
X198946Y308081D01*
X198914Y308055D01*
X198893Y308044D01*
X198871Y308021D01*
X198815Y307976D01*
X196874Y306035D01*
X196827Y305971D01*
X196811Y305954D01*
X196808Y305946D01*
X196761Y305892D01*
X196749Y305862D01*
X196730Y305835D01*
X196703Y305749D01*
X196669Y305664D01*
X196665Y305623D01*
X196658Y305600D01*
X196659Y305568D01*
X196651Y305497D01*
X196651Y294974D01*
X196665Y294884D01*
X196673Y294793D01*
X196685Y294763D01*
X196690Y294731D01*
X196733Y294651D01*
X196769Y294567D01*
X196795Y294535D01*
X196806Y294514D01*
X196829Y294492D01*
X196874Y294436D01*
X198766Y292543D01*
X200251Y288960D01*
X200251Y285080D01*
X198766Y281497D01*
X196023Y278754D01*
X192440Y277269D01*
X188560Y277269D01*
G37*
%LPD*%
%LPC*%
G36*
X48860Y364899D02*
X48860Y364899D01*
X45277Y366384D01*
X42534Y369127D01*
X41049Y372710D01*
X41049Y375387D01*
X41035Y375477D01*
X41027Y375568D01*
X41015Y375598D01*
X41010Y375630D01*
X40967Y375710D01*
X40931Y375794D01*
X40905Y375826D01*
X40894Y375847D01*
X40871Y375869D01*
X40826Y375925D01*
X37336Y379416D01*
X36399Y381677D01*
X36399Y400588D01*
X36396Y400608D01*
X36398Y400627D01*
X36376Y400729D01*
X36360Y400831D01*
X36350Y400848D01*
X36346Y400868D01*
X36293Y400957D01*
X36244Y401048D01*
X36230Y401062D01*
X36220Y401079D01*
X36141Y401146D01*
X36066Y401218D01*
X36048Y401226D01*
X36033Y401239D01*
X35937Y401278D01*
X35843Y401321D01*
X35823Y401323D01*
X35805Y401331D01*
X35638Y401349D01*
X32756Y401349D01*
X30803Y402158D01*
X29308Y403653D01*
X28499Y405606D01*
X28499Y432594D01*
X29308Y434547D01*
X30803Y436042D01*
X32756Y436851D01*
X52344Y436851D01*
X54297Y436042D01*
X55792Y434547D01*
X56601Y432594D01*
X56601Y405606D01*
X55792Y403653D01*
X54297Y402158D01*
X52344Y401349D01*
X49462Y401349D01*
X49442Y401346D01*
X49423Y401348D01*
X49321Y401326D01*
X49219Y401310D01*
X49202Y401300D01*
X49182Y401296D01*
X49093Y401243D01*
X49002Y401194D01*
X48988Y401180D01*
X48971Y401170D01*
X48904Y401091D01*
X48832Y401016D01*
X48824Y400998D01*
X48811Y400983D01*
X48772Y400887D01*
X48729Y400793D01*
X48727Y400773D01*
X48719Y400755D01*
X48701Y400588D01*
X48701Y385763D01*
X48715Y385673D01*
X48723Y385582D01*
X48735Y385552D01*
X48740Y385520D01*
X48783Y385440D01*
X48819Y385356D01*
X48845Y385324D01*
X48856Y385303D01*
X48879Y385281D01*
X48924Y385225D01*
X49525Y384624D01*
X49599Y384571D01*
X49668Y384511D01*
X49698Y384499D01*
X49725Y384480D01*
X49811Y384453D01*
X49896Y384419D01*
X49937Y384415D01*
X49960Y384408D01*
X49992Y384409D01*
X50063Y384401D01*
X52740Y384401D01*
X56323Y382916D01*
X59066Y380173D01*
X60551Y376590D01*
X60551Y372710D01*
X59066Y369127D01*
X56323Y366384D01*
X52740Y364899D01*
X48860Y364899D01*
G37*
%LPD*%
%LPC*%
G36*
X69540Y581339D02*
X69540Y581339D01*
X66622Y582548D01*
X64388Y584782D01*
X63179Y587700D01*
X63179Y590860D01*
X64388Y593778D01*
X66622Y596012D01*
X69540Y597221D01*
X71389Y597221D01*
X71479Y597235D01*
X71570Y597243D01*
X71600Y597255D01*
X71632Y597260D01*
X71712Y597303D01*
X71796Y597339D01*
X71828Y597365D01*
X71849Y597376D01*
X71871Y597399D01*
X71927Y597444D01*
X140876Y666393D01*
X140929Y666467D01*
X140989Y666536D01*
X141001Y666566D01*
X141020Y666593D01*
X141047Y666679D01*
X141081Y666764D01*
X141085Y666805D01*
X141092Y666828D01*
X141091Y666860D01*
X141099Y666931D01*
X141099Y694217D01*
X141092Y694259D01*
X141095Y694302D01*
X141061Y694449D01*
X141060Y694460D01*
X141058Y694462D01*
X141058Y694466D01*
X140937Y694815D01*
X140895Y694892D01*
X140861Y694973D01*
X140832Y695009D01*
X140820Y695031D01*
X140797Y695053D01*
X140756Y695104D01*
X140588Y695272D01*
X139379Y698190D01*
X139379Y701350D01*
X140588Y704268D01*
X142822Y706502D01*
X145740Y707711D01*
X148900Y707711D01*
X151818Y706502D01*
X154052Y704268D01*
X155261Y701350D01*
X155261Y698190D01*
X154052Y695272D01*
X151818Y693038D01*
X149371Y692024D01*
X149271Y691963D01*
X149171Y691903D01*
X149167Y691898D01*
X149162Y691895D01*
X149087Y691805D01*
X149011Y691716D01*
X149009Y691710D01*
X149005Y691705D01*
X148963Y691597D01*
X148919Y691488D01*
X148918Y691480D01*
X148917Y691476D01*
X148916Y691457D01*
X148901Y691321D01*
X148901Y663384D01*
X79124Y593607D01*
X79071Y593533D01*
X79011Y593464D01*
X78999Y593434D01*
X78980Y593407D01*
X78953Y593321D01*
X78919Y593236D01*
X78915Y593195D01*
X78908Y593172D01*
X78909Y593140D01*
X78901Y593069D01*
X78901Y591397D01*
X78911Y591333D01*
X78912Y591267D01*
X78935Y591187D01*
X78940Y591154D01*
X78950Y591137D01*
X78959Y591106D01*
X79061Y590860D01*
X79061Y589567D01*
X79065Y589538D01*
X79074Y589428D01*
X79136Y589093D01*
X79133Y589086D01*
X79090Y588994D01*
X79087Y588973D01*
X79079Y588953D01*
X79061Y588786D01*
X79061Y587700D01*
X77852Y584782D01*
X75618Y582548D01*
X72700Y581339D01*
X69540Y581339D01*
G37*
%LPD*%
%LPC*%
G36*
X460848Y929017D02*
X460848Y929017D01*
X456325Y930891D01*
X452863Y934353D01*
X450989Y938876D01*
X450989Y963584D01*
X452863Y968107D01*
X456325Y971569D01*
X460848Y973443D01*
X465744Y973443D01*
X470267Y971569D01*
X473729Y968107D01*
X475603Y963584D01*
X475603Y938876D01*
X473729Y934353D01*
X470267Y930891D01*
X465744Y929017D01*
X460848Y929017D01*
G37*
%LPD*%
%LPC*%
G36*
X105756Y929017D02*
X105756Y929017D01*
X101233Y930891D01*
X97771Y934353D01*
X95897Y938876D01*
X95897Y963584D01*
X97771Y968107D01*
X101233Y971569D01*
X105756Y973443D01*
X110652Y973443D01*
X115175Y971569D01*
X118637Y968107D01*
X120511Y963584D01*
X120511Y938876D01*
X118637Y934353D01*
X115175Y930891D01*
X110652Y929017D01*
X105756Y929017D01*
G37*
%LPD*%
%LPC*%
G36*
X508346Y648347D02*
X508346Y648347D01*
X503823Y650221D01*
X500361Y653683D01*
X498487Y658206D01*
X498487Y663102D01*
X500361Y667625D01*
X503823Y671087D01*
X508346Y672961D01*
X533054Y672961D01*
X537577Y671087D01*
X541039Y667625D01*
X542913Y663102D01*
X542913Y658206D01*
X541039Y653683D01*
X537577Y650221D01*
X533054Y648347D01*
X508346Y648347D01*
G37*
%LPD*%
%LPC*%
G36*
X264306Y648984D02*
X264306Y648984D01*
X262899Y650391D01*
X262899Y670409D01*
X264306Y671816D01*
X282294Y671816D01*
X283701Y670409D01*
X283701Y664662D01*
X283704Y664642D01*
X283702Y664623D01*
X283724Y664521D01*
X283740Y664419D01*
X283750Y664402D01*
X283754Y664382D01*
X283807Y664293D01*
X283856Y664202D01*
X283870Y664188D01*
X283880Y664171D01*
X283959Y664104D01*
X284034Y664032D01*
X284052Y664024D01*
X284067Y664011D01*
X284163Y663972D01*
X284257Y663929D01*
X284277Y663927D01*
X284295Y663919D01*
X284462Y663901D01*
X285138Y663901D01*
X285158Y663904D01*
X285177Y663902D01*
X285279Y663924D01*
X285381Y663940D01*
X285398Y663950D01*
X285418Y663954D01*
X285507Y664007D01*
X285598Y664056D01*
X285612Y664070D01*
X285629Y664080D01*
X285696Y664159D01*
X285768Y664234D01*
X285776Y664252D01*
X285789Y664267D01*
X285827Y664363D01*
X285871Y664457D01*
X285873Y664477D01*
X285881Y664495D01*
X285899Y664662D01*
X285899Y667394D01*
X287306Y668801D01*
X301294Y668801D01*
X302701Y667394D01*
X302701Y653406D01*
X301294Y651999D01*
X287306Y651999D01*
X285899Y653406D01*
X285899Y655338D01*
X285896Y655358D01*
X285898Y655377D01*
X285876Y655479D01*
X285860Y655581D01*
X285850Y655598D01*
X285846Y655618D01*
X285793Y655707D01*
X285744Y655798D01*
X285730Y655812D01*
X285720Y655829D01*
X285641Y655896D01*
X285566Y655968D01*
X285548Y655976D01*
X285533Y655989D01*
X285437Y656028D01*
X285343Y656071D01*
X285323Y656073D01*
X285305Y656081D01*
X285138Y656099D01*
X284462Y656099D01*
X284442Y656096D01*
X284423Y656098D01*
X284321Y656076D01*
X284219Y656060D01*
X284202Y656050D01*
X284182Y656046D01*
X284093Y655993D01*
X284002Y655944D01*
X283988Y655930D01*
X283971Y655920D01*
X283904Y655841D01*
X283832Y655766D01*
X283824Y655748D01*
X283811Y655733D01*
X283772Y655637D01*
X283729Y655543D01*
X283727Y655523D01*
X283719Y655505D01*
X283701Y655338D01*
X283701Y650391D01*
X282294Y648984D01*
X264306Y648984D01*
G37*
%LPD*%
%LPC*%
G36*
X268706Y764799D02*
X268706Y764799D01*
X267299Y766206D01*
X267299Y783194D01*
X268706Y784601D01*
X283694Y784601D01*
X285101Y783194D01*
X285101Y782734D01*
X285112Y782663D01*
X285114Y782591D01*
X285132Y782542D01*
X285140Y782491D01*
X285174Y782428D01*
X285199Y782360D01*
X285231Y782320D01*
X285256Y782274D01*
X285308Y782224D01*
X285352Y782168D01*
X285396Y782140D01*
X285434Y782104D01*
X285499Y782074D01*
X285559Y782035D01*
X285610Y782022D01*
X285657Y782001D01*
X285728Y781993D01*
X285798Y781975D01*
X285850Y781979D01*
X285901Y781973D01*
X285972Y781989D01*
X286043Y781994D01*
X286091Y782015D01*
X286142Y782026D01*
X286203Y782063D01*
X286269Y782091D01*
X286325Y782135D01*
X286353Y782152D01*
X286368Y782170D01*
X286400Y782195D01*
X287306Y783101D01*
X301294Y783101D01*
X302701Y781694D01*
X302701Y767706D01*
X301294Y766299D01*
X287306Y766299D01*
X286400Y767205D01*
X286342Y767246D01*
X286290Y767296D01*
X286243Y767318D01*
X286201Y767348D01*
X286132Y767369D01*
X286067Y767399D01*
X286015Y767405D01*
X285965Y767421D01*
X285894Y767419D01*
X285823Y767427D01*
X285772Y767415D01*
X285720Y767414D01*
X285652Y767390D01*
X285582Y767374D01*
X285537Y767348D01*
X285489Y767330D01*
X285433Y767285D01*
X285371Y767248D01*
X285337Y767209D01*
X285297Y767176D01*
X285258Y767116D01*
X285211Y767061D01*
X285192Y767013D01*
X285164Y766969D01*
X285146Y766900D01*
X285119Y766833D01*
X285111Y766762D01*
X285103Y766731D01*
X285105Y766707D01*
X285101Y766666D01*
X285101Y766206D01*
X283694Y764799D01*
X268706Y764799D01*
G37*
%LPD*%
%LPC*%
G36*
X268706Y726699D02*
X268706Y726699D01*
X267299Y728106D01*
X267299Y745094D01*
X268706Y746501D01*
X283694Y746501D01*
X285101Y745094D01*
X285101Y744634D01*
X285112Y744563D01*
X285114Y744491D01*
X285132Y744442D01*
X285140Y744391D01*
X285174Y744328D01*
X285199Y744260D01*
X285231Y744220D01*
X285256Y744174D01*
X285308Y744124D01*
X285352Y744068D01*
X285396Y744040D01*
X285434Y744004D01*
X285499Y743974D01*
X285559Y743935D01*
X285610Y743922D01*
X285657Y743901D01*
X285728Y743893D01*
X285798Y743875D01*
X285850Y743879D01*
X285901Y743873D01*
X285972Y743889D01*
X286043Y743894D01*
X286091Y743915D01*
X286142Y743926D01*
X286203Y743963D01*
X286269Y743991D01*
X286325Y744035D01*
X286353Y744052D01*
X286368Y744070D01*
X286400Y744095D01*
X287306Y745001D01*
X301294Y745001D01*
X302701Y743594D01*
X302701Y729606D01*
X301294Y728199D01*
X287306Y728199D01*
X286400Y729105D01*
X286342Y729146D01*
X286290Y729196D01*
X286243Y729218D01*
X286201Y729248D01*
X286132Y729269D01*
X286067Y729299D01*
X286015Y729305D01*
X285965Y729321D01*
X285894Y729319D01*
X285823Y729327D01*
X285772Y729315D01*
X285720Y729314D01*
X285652Y729290D01*
X285582Y729274D01*
X285537Y729248D01*
X285489Y729230D01*
X285433Y729185D01*
X285371Y729148D01*
X285337Y729109D01*
X285297Y729076D01*
X285258Y729016D01*
X285211Y728961D01*
X285192Y728913D01*
X285164Y728869D01*
X285146Y728800D01*
X285119Y728733D01*
X285111Y728662D01*
X285103Y728631D01*
X285105Y728607D01*
X285101Y728566D01*
X285101Y728106D01*
X283694Y726699D01*
X268706Y726699D01*
G37*
%LPD*%
%LPC*%
G36*
X268706Y688599D02*
X268706Y688599D01*
X267299Y690006D01*
X267299Y706994D01*
X268706Y708401D01*
X283694Y708401D01*
X285101Y706994D01*
X285101Y706534D01*
X285112Y706463D01*
X285114Y706391D01*
X285132Y706342D01*
X285140Y706291D01*
X285174Y706228D01*
X285199Y706160D01*
X285231Y706120D01*
X285256Y706074D01*
X285308Y706024D01*
X285352Y705968D01*
X285396Y705940D01*
X285434Y705904D01*
X285499Y705874D01*
X285559Y705835D01*
X285610Y705822D01*
X285657Y705801D01*
X285728Y705793D01*
X285798Y705775D01*
X285850Y705779D01*
X285901Y705773D01*
X285972Y705789D01*
X286043Y705794D01*
X286091Y705815D01*
X286142Y705826D01*
X286203Y705863D01*
X286269Y705891D01*
X286325Y705935D01*
X286353Y705952D01*
X286368Y705970D01*
X286400Y705995D01*
X287306Y706901D01*
X301294Y706901D01*
X302701Y705494D01*
X302701Y691506D01*
X301294Y690099D01*
X287306Y690099D01*
X286400Y691005D01*
X286342Y691046D01*
X286290Y691096D01*
X286243Y691118D01*
X286201Y691148D01*
X286132Y691169D01*
X286067Y691199D01*
X286015Y691205D01*
X285965Y691221D01*
X285894Y691219D01*
X285823Y691227D01*
X285772Y691215D01*
X285720Y691214D01*
X285652Y691190D01*
X285582Y691174D01*
X285537Y691148D01*
X285489Y691130D01*
X285433Y691085D01*
X285371Y691048D01*
X285337Y691009D01*
X285297Y690976D01*
X285258Y690916D01*
X285211Y690861D01*
X285192Y690813D01*
X285164Y690769D01*
X285146Y690700D01*
X285119Y690633D01*
X285111Y690562D01*
X285103Y690531D01*
X285105Y690507D01*
X285101Y690466D01*
X285101Y690006D01*
X283694Y688599D01*
X268706Y688599D01*
G37*
%LPD*%
%LPC*%
G36*
X175807Y426859D02*
X175807Y426859D01*
X172124Y428385D01*
X169305Y431204D01*
X167779Y434887D01*
X167779Y454113D01*
X169305Y457796D01*
X172124Y460615D01*
X175807Y462141D01*
X179793Y462141D01*
X183476Y460615D01*
X186295Y457796D01*
X187821Y454113D01*
X187821Y434887D01*
X186295Y431204D01*
X183476Y428385D01*
X179793Y426859D01*
X175807Y426859D01*
G37*
%LPD*%
%LPC*%
G36*
X68751Y764059D02*
X68751Y764059D01*
X64373Y765873D01*
X61023Y769223D01*
X59209Y773601D01*
X59209Y778339D01*
X61023Y782717D01*
X64373Y786067D01*
X68751Y787881D01*
X73489Y787881D01*
X77867Y786067D01*
X81217Y782717D01*
X83031Y778339D01*
X83031Y773601D01*
X81217Y769223D01*
X77867Y765873D01*
X73489Y764059D01*
X68751Y764059D01*
G37*
%LPD*%
%LPC*%
G36*
X195751Y764059D02*
X195751Y764059D01*
X191373Y765873D01*
X188023Y769223D01*
X186209Y773601D01*
X186209Y778339D01*
X188023Y782717D01*
X191373Y786067D01*
X195751Y787881D01*
X200489Y787881D01*
X204867Y786067D01*
X208217Y782717D01*
X210031Y778339D01*
X210031Y773601D01*
X208217Y769223D01*
X204867Y765873D01*
X200489Y764059D01*
X195751Y764059D01*
G37*
%LPD*%
%LPC*%
G36*
X171140Y691829D02*
X171140Y691829D01*
X168222Y693038D01*
X165988Y695272D01*
X164779Y698190D01*
X164779Y701350D01*
X165988Y704268D01*
X168222Y706502D01*
X171140Y707711D01*
X174300Y707711D01*
X177218Y706502D01*
X179452Y704268D01*
X180661Y701350D01*
X180661Y698190D01*
X179452Y695272D01*
X177218Y693038D01*
X174300Y691829D01*
X171140Y691829D01*
G37*
%LPD*%
%LPC*%
G36*
X69540Y691829D02*
X69540Y691829D01*
X66622Y693038D01*
X64388Y695272D01*
X63179Y698190D01*
X63179Y701350D01*
X64388Y704268D01*
X66622Y706502D01*
X69540Y707711D01*
X72700Y707711D01*
X75618Y706502D01*
X77852Y704268D01*
X79061Y701350D01*
X79061Y698190D01*
X77852Y695272D01*
X75618Y693038D01*
X72700Y691829D01*
X69540Y691829D01*
G37*
%LPD*%
%LPC*%
G36*
X196540Y691829D02*
X196540Y691829D01*
X193622Y693038D01*
X191388Y695272D01*
X190179Y698190D01*
X190179Y701350D01*
X191388Y704268D01*
X193622Y706502D01*
X196540Y707711D01*
X199700Y707711D01*
X202618Y706502D01*
X204852Y704268D01*
X206061Y701350D01*
X206061Y698190D01*
X204852Y695272D01*
X202618Y693038D01*
X199700Y691829D01*
X196540Y691829D01*
G37*
%LPD*%
%LPC*%
G36*
X69540Y555939D02*
X69540Y555939D01*
X66622Y557148D01*
X64388Y559382D01*
X63179Y562300D01*
X63179Y565460D01*
X64388Y568378D01*
X66622Y570612D01*
X69540Y571821D01*
X72700Y571821D01*
X75618Y570612D01*
X77852Y568378D01*
X79061Y565460D01*
X79061Y562300D01*
X77852Y559382D01*
X75618Y557148D01*
X72700Y555939D01*
X69540Y555939D01*
G37*
%LPD*%
%LPC*%
G36*
X69540Y530539D02*
X69540Y530539D01*
X66622Y531748D01*
X64388Y533982D01*
X63179Y536900D01*
X63179Y540060D01*
X64388Y542978D01*
X66622Y545212D01*
X69540Y546421D01*
X72700Y546421D01*
X75618Y545212D01*
X77852Y542978D01*
X79061Y540060D01*
X79061Y536900D01*
X77852Y533982D01*
X75618Y531748D01*
X72700Y530539D01*
X69540Y530539D01*
G37*
%LPD*%
%LPC*%
G36*
X69540Y505139D02*
X69540Y505139D01*
X66622Y506348D01*
X64388Y508582D01*
X63179Y511500D01*
X63179Y514660D01*
X64388Y517578D01*
X66622Y519812D01*
X69540Y521021D01*
X72700Y521021D01*
X75618Y519812D01*
X77852Y517578D01*
X79061Y514660D01*
X79061Y511500D01*
X77852Y508582D01*
X75618Y506348D01*
X72700Y505139D01*
X69540Y505139D01*
G37*
%LPD*%
%LPC*%
G36*
X69540Y479739D02*
X69540Y479739D01*
X66622Y480948D01*
X64388Y483182D01*
X63179Y486100D01*
X63179Y489260D01*
X64388Y492178D01*
X66622Y494412D01*
X69540Y495621D01*
X72700Y495621D01*
X75618Y494412D01*
X77852Y492178D01*
X79061Y489260D01*
X79061Y486100D01*
X77852Y483182D01*
X75618Y480948D01*
X72700Y479739D01*
X69540Y479739D01*
G37*
%LPD*%
D10*
X542000Y306550D03*
X525000Y306550D03*
X508000Y306550D03*
X491000Y306550D03*
X474000Y306550D03*
D11*
X508000Y203200D03*
D12*
X412100Y317500D03*
X286400Y317500D03*
D13*
X427512Y406662D02*
X444988Y406662D01*
X427512Y406662D02*
X427512Y431538D01*
X444988Y431538D01*
X444988Y406662D01*
X444988Y412196D02*
X427512Y412196D01*
X427512Y417730D02*
X444988Y417730D01*
X444988Y423264D02*
X427512Y423264D01*
X427512Y428798D02*
X444988Y428798D01*
X494812Y406662D02*
X512288Y406662D01*
X494812Y406662D02*
X494812Y431538D01*
X512288Y431538D01*
X512288Y406662D01*
X512288Y412196D02*
X494812Y412196D01*
X494812Y417730D02*
X512288Y417730D01*
X512288Y423264D02*
X494812Y423264D01*
X494812Y428798D02*
X512288Y428798D01*
D14*
X307400Y444500D03*
X378400Y444500D03*
X332800Y203200D03*
X403800Y203200D03*
D15*
X533400Y377800D03*
X533400Y358800D03*
X571500Y377800D03*
X571500Y358800D03*
D16*
X315300Y698500D03*
X294300Y698500D03*
X315300Y736600D03*
X294300Y736600D03*
D17*
X257200Y698500D03*
X276200Y698500D03*
X257200Y736600D03*
X276200Y736600D03*
D18*
X266700Y101600D03*
D19*
X266700Y76200D03*
X266700Y50800D03*
D20*
X76200Y228600D02*
X76200Y254000D01*
X228600Y254000D02*
X228600Y228600D01*
D21*
X101854Y86106D02*
X101854Y66294D01*
X152146Y66294D02*
X152146Y86106D01*
X444754Y86106D02*
X444754Y66294D01*
X495046Y66294D02*
X495046Y86106D01*
X343154Y86106D02*
X343154Y66294D01*
X393446Y66294D02*
X393446Y86106D01*
X311404Y941324D02*
X311404Y961136D01*
X361696Y961136D02*
X361696Y941324D01*
D16*
X315300Y660400D03*
X294300Y660400D03*
D22*
X466337Y547123D02*
X466337Y539997D01*
X466337Y547123D02*
X489863Y547123D01*
X489863Y539997D01*
X466337Y539997D01*
X466337Y542253D02*
X489863Y542253D01*
X489863Y544509D02*
X466337Y544509D01*
X466337Y546765D02*
X489863Y546765D01*
D23*
X519715Y546035D02*
X519715Y495365D01*
X519715Y546035D02*
X573485Y546035D01*
X573485Y495365D01*
X519715Y495365D01*
X519715Y500713D02*
X573485Y500713D01*
X573485Y506061D02*
X519715Y506061D01*
X519715Y511409D02*
X573485Y511409D01*
X573485Y516757D02*
X519715Y516757D01*
X519715Y522105D02*
X573485Y522105D01*
X573485Y527453D02*
X519715Y527453D01*
X519715Y532801D02*
X573485Y532801D01*
X573485Y538149D02*
X519715Y538149D01*
X519715Y543497D02*
X573485Y543497D01*
D22*
X466337Y501403D02*
X466337Y494277D01*
X466337Y501403D02*
X489863Y501403D01*
X489863Y494277D01*
X466337Y494277D01*
X466337Y496533D02*
X489863Y496533D01*
X489863Y498789D02*
X466337Y498789D01*
X466337Y501045D02*
X489863Y501045D01*
D24*
X416720Y162560D03*
X436720Y162560D03*
X472600Y469900D03*
X492600Y469900D03*
D25*
X558800Y411300D03*
X558800Y452300D03*
D24*
X470060Y337820D03*
X490060Y337820D03*
D16*
X315300Y774700D03*
X294300Y774700D03*
D17*
X257200Y774700D03*
X276200Y774700D03*
D26*
X71120Y699770D03*
X96520Y699770D03*
X121920Y699770D03*
X147320Y699770D03*
X172720Y699770D03*
X198120Y699770D03*
X71120Y487680D03*
X71120Y513080D03*
X71120Y538480D03*
X71120Y563880D03*
X71120Y589280D03*
X71120Y614680D03*
X71120Y640080D03*
X71120Y665480D03*
D21*
X108204Y941324D02*
X108204Y961136D01*
X158496Y961136D02*
X158496Y941324D01*
X209804Y941324D02*
X209804Y961136D01*
X260096Y961136D02*
X260096Y941324D01*
D13*
X118588Y431538D02*
X101112Y431538D01*
X118588Y431538D02*
X118588Y406662D01*
X101112Y406662D01*
X101112Y431538D01*
X101112Y412196D02*
X118588Y412196D01*
X118588Y417730D02*
X101112Y417730D01*
X101112Y423264D02*
X118588Y423264D01*
X118588Y428798D02*
X101112Y428798D01*
X51288Y431538D02*
X33812Y431538D01*
X51288Y431538D02*
X51288Y406662D01*
X33812Y406662D01*
X33812Y431538D01*
X33812Y412196D02*
X51288Y412196D01*
X51288Y417730D02*
X33812Y417730D01*
X33812Y423264D02*
X51288Y423264D01*
X51288Y428798D02*
X33812Y428798D01*
D15*
X224790Y333350D03*
X224790Y314350D03*
D27*
X273300Y660400D03*
X244860Y660400D03*
D21*
X510794Y660654D02*
X530606Y660654D01*
X530606Y710946D02*
X510794Y710946D01*
D28*
X177800Y452120D02*
X177800Y436880D01*
X203200Y436880D02*
X203200Y452120D01*
X228600Y452120D02*
X228600Y436880D01*
D17*
X432410Y806450D03*
X413410Y806450D03*
X291490Y551180D03*
X310490Y551180D03*
X290220Y511810D03*
X309220Y511810D03*
D29*
X101600Y342900D03*
D30*
X76200Y342900D03*
X50800Y342900D03*
D31*
X153670Y324870D03*
X153670Y353310D03*
D27*
X130560Y295910D03*
X159000Y295910D03*
D21*
X413004Y941324D02*
X413004Y961136D01*
X463296Y961136D02*
X463296Y941324D01*
D13*
X114788Y139962D02*
X97312Y139962D01*
X97312Y164838D01*
X114788Y164838D01*
X114788Y139962D01*
X114788Y145496D02*
X97312Y145496D01*
X97312Y151030D02*
X114788Y151030D01*
X114788Y156564D02*
X97312Y156564D01*
X97312Y162098D02*
X114788Y162098D01*
X164612Y139962D02*
X182088Y139962D01*
X164612Y139962D02*
X164612Y164838D01*
X182088Y164838D01*
X182088Y139962D01*
X182088Y145496D02*
X164612Y145496D01*
X164612Y151030D02*
X182088Y151030D01*
X182088Y156564D02*
X164612Y156564D01*
X164612Y162098D02*
X182088Y162098D01*
D31*
X294640Y148340D03*
X294640Y176780D03*
D32*
X508000Y203200D02*
X508000Y306550D01*
X412100Y317500D02*
X412100Y335900D01*
X436250Y360050D02*
X436250Y419100D01*
X436250Y360050D02*
X412100Y335900D01*
X503550Y360050D02*
X508000Y355600D01*
X503550Y360050D02*
X436250Y360050D01*
X508000Y355600D02*
X508000Y306550D01*
X269240Y162560D02*
X228600Y203200D01*
X228600Y241300D01*
X269240Y162560D02*
X391160Y162560D01*
X403800Y175200D01*
X403800Y203200D01*
X391160Y162560D02*
X416720Y162560D01*
X403800Y203200D02*
X413800Y213200D01*
X469900Y267970D02*
X474000Y272070D01*
X474000Y306550D01*
X228600Y241300D02*
X191828Y241300D01*
X163948Y269180D01*
X99120Y269180D02*
X88900Y279400D01*
X63500Y279400D01*
X50800Y292100D01*
X50800Y342900D01*
X99120Y269180D02*
X163948Y269180D01*
X470060Y310490D02*
X474000Y306550D01*
X470060Y310490D02*
X470060Y337820D01*
X468570Y267970D02*
X403800Y203200D01*
X468570Y267970D02*
X469900Y267970D01*
D33*
X315000Y680000D02*
X315000Y695000D01*
X315300Y698500D01*
D34*
X315000Y680000D03*
D32*
X525000Y350400D02*
X525000Y306550D01*
X525000Y350400D02*
X533400Y358800D01*
X571500Y358800D01*
X472600Y469900D02*
X393700Y469900D01*
X378400Y454600D01*
X378400Y444500D01*
X378400Y409500D02*
X286400Y317500D01*
X378400Y409500D02*
X378400Y444500D01*
X76200Y355600D02*
X76200Y342900D01*
X76200Y355600D02*
X76850Y356250D01*
X88900Y368300D01*
X138680Y368300D01*
X153670Y353310D01*
X181360Y381000D01*
X286400Y348600D02*
X286400Y317500D01*
X286400Y348600D02*
X254000Y381000D01*
X278450Y318450D02*
X279400Y317500D01*
X254000Y381000D02*
X181360Y381000D01*
X469900Y472600D02*
X472600Y469900D01*
X469900Y472600D02*
X469900Y495300D01*
X475560Y495300D02*
X478100Y497840D01*
X475560Y495300D02*
X469900Y495300D01*
X472600Y469900D02*
X469900Y467200D01*
X469900Y393700D01*
X485800Y377800D01*
X533400Y377800D01*
X378400Y934526D02*
X361696Y951230D01*
X378400Y934526D02*
X378400Y735000D01*
X378400Y444500D01*
D33*
X378400Y735000D02*
X320000Y735000D01*
X315300Y736600D01*
X70000Y665000D02*
X55000Y650000D01*
X55000Y448100D01*
X75000Y428100D01*
X75000Y358100D01*
X70000Y665000D02*
X71120Y665480D01*
X75000Y358100D02*
X76850Y356250D01*
X280000Y320000D02*
X285000Y320000D01*
X286400Y317500D01*
X280000Y320000D02*
X278450Y318450D01*
D32*
X491000Y306550D02*
X491000Y336880D01*
X490060Y337820D01*
D35*
X111760Y295910D03*
D32*
X130560Y295910D01*
D35*
X224790Y353060D03*
D32*
X224790Y333350D01*
D33*
X280000Y700000D02*
X290000Y700000D01*
X294300Y698500D01*
X280000Y700000D02*
X276200Y698500D01*
X280000Y735000D02*
X290000Y735000D01*
X294300Y736600D01*
X280000Y735000D02*
X276200Y736600D01*
D32*
X203200Y76200D02*
X152146Y76200D01*
X228600Y50800D02*
X266700Y50800D01*
X228600Y50800D02*
X203200Y76200D01*
X266700Y50800D02*
X266700Y38100D01*
X278190Y26610D02*
X393446Y26610D01*
X393446Y76200D01*
X278190Y26610D02*
X266700Y38100D01*
X393446Y26610D02*
X483810Y26610D01*
X495300Y38100D01*
X495300Y75946D01*
X495046Y76200D01*
X203200Y431800D02*
X203200Y444500D01*
X203200Y431800D02*
X190500Y419100D01*
D35*
X151130Y116840D03*
X140970Y419100D03*
D32*
X190500Y419100D01*
X140970Y419100D02*
X109850Y419100D01*
X151130Y116840D02*
X152146Y115824D01*
X152146Y76200D01*
D33*
X310000Y655000D02*
X315000Y660000D01*
X310000Y655000D02*
X310000Y650000D01*
X270000Y610000D02*
X210000Y550000D01*
X270000Y610000D02*
X310000Y650000D01*
X210000Y550000D02*
X210000Y460000D01*
X205000Y455000D01*
X205000Y445000D01*
X315000Y660000D02*
X315300Y660400D01*
X205000Y445000D02*
X203200Y444500D01*
X215000Y945000D02*
X210000Y950000D01*
X215000Y945000D02*
X215000Y930000D01*
X230000Y915000D01*
X230000Y650000D01*
X270000Y610000D01*
X210000Y950000D02*
X209804Y951230D01*
D32*
X317754Y101600D02*
X343154Y76200D01*
X317754Y101600D02*
X266700Y101600D01*
X343154Y89154D02*
X343154Y76200D01*
X444754Y76200D02*
X444754Y88646D01*
X368300Y114300D02*
X343154Y89154D01*
X368300Y114300D02*
X419100Y114300D01*
X444754Y88646D01*
X221340Y310900D02*
X224790Y314350D01*
D35*
X190500Y287020D03*
X190500Y200660D03*
D32*
X205740Y200660D01*
X266700Y139700D02*
X266700Y101600D01*
X266700Y139700D02*
X205740Y200660D01*
X190500Y287020D02*
X190500Y308360D01*
D35*
X193040Y361950D03*
X50800Y374650D03*
D32*
X42550Y382900D01*
X42550Y419100D01*
X275340Y148340D02*
X266700Y139700D01*
X275340Y148340D02*
X294640Y148340D01*
X190500Y308360D02*
X195070Y312930D01*
X196490Y314350D01*
X224790Y314350D01*
X195070Y312930D02*
X193040Y314960D01*
X193040Y361950D01*
X311404Y951230D02*
X311404Y971804D01*
X419100Y622300D02*
X508000Y622300D01*
X311404Y971804D02*
X325690Y986090D01*
X376620Y986090D01*
X392430Y970280D01*
X392430Y648970D01*
X419100Y622300D01*
X546600Y464500D02*
X558800Y452300D01*
X546600Y464500D02*
X546600Y520700D01*
X546600Y583700D01*
X508000Y622300D01*
D33*
X315000Y775000D02*
X315000Y950000D01*
X315000Y775000D02*
X315300Y774700D01*
X315000Y950000D02*
X311404Y951230D01*
X290000Y660000D02*
X275000Y660000D01*
X290000Y660000D02*
X294300Y660400D01*
X275000Y660000D02*
X273300Y660400D01*
X280000Y775000D02*
X290000Y775000D01*
X294300Y774700D01*
X280000Y775000D02*
X276200Y774700D01*
X75000Y620000D02*
X75000Y615000D01*
X75000Y620000D02*
X120000Y665000D01*
X120000Y695000D01*
X75000Y615000D02*
X71120Y614680D01*
X120000Y695000D02*
X121920Y699770D01*
X120000Y915000D02*
X155000Y950000D01*
X120000Y915000D02*
X120000Y700000D01*
X155000Y950000D02*
X158496Y951230D01*
X121920Y699770D02*
X120000Y700000D01*
X75000Y595000D02*
X75000Y590000D01*
X75000Y595000D02*
X145000Y665000D01*
X145000Y695000D01*
X75000Y590000D02*
X71120Y589280D01*
X145000Y695000D02*
X147320Y699770D01*
X315000Y550000D02*
X315000Y530000D01*
X320000Y525000D01*
X320000Y500000D01*
X265000Y445000D01*
X230000Y445000D01*
X310490Y551180D02*
X315000Y550000D01*
X230000Y445000D02*
X228600Y444500D01*
X290000Y515000D02*
X290000Y550000D01*
X290000Y515000D02*
X290220Y511810D01*
X290000Y550000D02*
X291490Y551180D01*
X295000Y555000D02*
X295000Y615000D01*
X295000Y555000D02*
X291490Y551180D01*
D34*
X295000Y615000D03*
D33*
X415000Y810000D02*
X415000Y950000D01*
X415000Y810000D02*
X413410Y806450D01*
X415000Y950000D02*
X413004Y951230D01*
D32*
X115570Y342900D02*
X101600Y342900D01*
X133600Y324870D02*
X153670Y324870D01*
X133600Y324870D02*
X115570Y342900D01*
X153670Y301240D02*
X159000Y295910D01*
X153670Y301240D02*
X153670Y324870D01*
D34*
X294640Y199390D03*
D32*
X294640Y176780D01*
X249550Y76200D02*
X173350Y152400D01*
X249550Y76200D02*
X266700Y76200D01*
X106050Y152400D02*
X76200Y182250D01*
X76200Y241300D01*
M02*
