G04 EAGLE Gerber RS-274X export*
G75*
%MOMM*%
%FSLAX34Y34*%
%LPD*%
%IN*%
%IPPOS*%
%AMOC8*
5,1,8,0,0,1.08239X$1,22.5*%
G01*
%ADD10C,0.254000*%


D10*
X0Y0D02*
X600000Y0D01*
X600000Y1000000D01*
X0Y1000000D01*
X0Y0D01*
X70800Y62896D02*
X70727Y61689D01*
X70581Y60489D01*
X70363Y59300D01*
X70074Y58127D01*
X69715Y56973D01*
X69286Y55843D01*
X68790Y54741D01*
X68228Y53670D01*
X67603Y52636D01*
X66916Y51641D01*
X66171Y50690D01*
X65369Y49785D01*
X64515Y48931D01*
X63610Y48129D01*
X62659Y47384D01*
X61664Y46697D01*
X60630Y46072D01*
X59559Y45510D01*
X58457Y45014D01*
X57327Y44585D01*
X56173Y44226D01*
X55000Y43937D01*
X53811Y43719D01*
X52611Y43573D01*
X51404Y43500D01*
X50196Y43500D01*
X48989Y43573D01*
X47789Y43719D01*
X46600Y43937D01*
X45427Y44226D01*
X44273Y44585D01*
X43143Y45014D01*
X42041Y45510D01*
X40970Y46072D01*
X39936Y46697D01*
X38941Y47384D01*
X37990Y48129D01*
X37085Y48931D01*
X36231Y49785D01*
X35429Y50690D01*
X34684Y51641D01*
X33997Y52636D01*
X33372Y53670D01*
X32810Y54741D01*
X32314Y55843D01*
X31885Y56973D01*
X31526Y58127D01*
X31237Y59300D01*
X31019Y60489D01*
X30873Y61689D01*
X30800Y62896D01*
X30800Y64104D01*
X30873Y65311D01*
X31019Y66511D01*
X31237Y67700D01*
X31526Y68873D01*
X31885Y70027D01*
X32314Y71157D01*
X32810Y72259D01*
X33372Y73330D01*
X33997Y74364D01*
X34684Y75359D01*
X35429Y76310D01*
X36231Y77215D01*
X37085Y78069D01*
X37990Y78871D01*
X38941Y79616D01*
X39936Y80303D01*
X40970Y80928D01*
X42041Y81490D01*
X43143Y81986D01*
X44273Y82415D01*
X45427Y82774D01*
X46600Y83063D01*
X47789Y83281D01*
X48989Y83427D01*
X50196Y83500D01*
X51404Y83500D01*
X52611Y83427D01*
X53811Y83281D01*
X55000Y83063D01*
X56173Y82774D01*
X57327Y82415D01*
X58457Y81986D01*
X59559Y81490D01*
X60630Y80928D01*
X61664Y80303D01*
X62659Y79616D01*
X63610Y78871D01*
X64515Y78069D01*
X65369Y77215D01*
X66171Y76310D01*
X66916Y75359D01*
X67603Y74364D01*
X68228Y73330D01*
X68790Y72259D01*
X69286Y71157D01*
X69715Y70027D01*
X70074Y68873D01*
X70363Y67700D01*
X70581Y66511D01*
X70727Y65311D01*
X70800Y64104D01*
X70800Y62896D01*
X578800Y62896D02*
X578727Y61689D01*
X578581Y60489D01*
X578363Y59300D01*
X578074Y58127D01*
X577715Y56973D01*
X577286Y55843D01*
X576790Y54741D01*
X576228Y53670D01*
X575603Y52636D01*
X574916Y51641D01*
X574171Y50690D01*
X573369Y49785D01*
X572515Y48931D01*
X571610Y48129D01*
X570659Y47384D01*
X569664Y46697D01*
X568630Y46072D01*
X567559Y45510D01*
X566457Y45014D01*
X565327Y44585D01*
X564173Y44226D01*
X563000Y43937D01*
X561811Y43719D01*
X560611Y43573D01*
X559404Y43500D01*
X558196Y43500D01*
X556989Y43573D01*
X555789Y43719D01*
X554600Y43937D01*
X553427Y44226D01*
X552273Y44585D01*
X551143Y45014D01*
X550041Y45510D01*
X548970Y46072D01*
X547936Y46697D01*
X546941Y47384D01*
X545990Y48129D01*
X545085Y48931D01*
X544231Y49785D01*
X543429Y50690D01*
X542684Y51641D01*
X541997Y52636D01*
X541372Y53670D01*
X540810Y54741D01*
X540314Y55843D01*
X539885Y56973D01*
X539526Y58127D01*
X539237Y59300D01*
X539019Y60489D01*
X538873Y61689D01*
X538800Y62896D01*
X538800Y64104D01*
X538873Y65311D01*
X539019Y66511D01*
X539237Y67700D01*
X539526Y68873D01*
X539885Y70027D01*
X540314Y71157D01*
X540810Y72259D01*
X541372Y73330D01*
X541997Y74364D01*
X542684Y75359D01*
X543429Y76310D01*
X544231Y77215D01*
X545085Y78069D01*
X545990Y78871D01*
X546941Y79616D01*
X547936Y80303D01*
X548970Y80928D01*
X550041Y81490D01*
X551143Y81986D01*
X552273Y82415D01*
X553427Y82774D01*
X554600Y83063D01*
X555789Y83281D01*
X556989Y83427D01*
X558196Y83500D01*
X559404Y83500D01*
X560611Y83427D01*
X561811Y83281D01*
X563000Y83063D01*
X564173Y82774D01*
X565327Y82415D01*
X566457Y81986D01*
X567559Y81490D01*
X568630Y80928D01*
X569664Y80303D01*
X570659Y79616D01*
X571610Y78871D01*
X572515Y78069D01*
X573369Y77215D01*
X574171Y76310D01*
X574916Y75359D01*
X575603Y74364D01*
X576228Y73330D01*
X576790Y72259D01*
X577286Y71157D01*
X577715Y70027D01*
X578074Y68873D01*
X578363Y67700D01*
X578581Y66511D01*
X578727Y65311D01*
X578800Y64104D01*
X578800Y62896D01*
X70800Y939196D02*
X70727Y937989D01*
X70581Y936789D01*
X70363Y935600D01*
X70074Y934427D01*
X69715Y933273D01*
X69286Y932143D01*
X68790Y931041D01*
X68228Y929970D01*
X67603Y928936D01*
X66916Y927941D01*
X66171Y926990D01*
X65369Y926085D01*
X64515Y925231D01*
X63610Y924429D01*
X62659Y923684D01*
X61664Y922997D01*
X60630Y922372D01*
X59559Y921810D01*
X58457Y921314D01*
X57327Y920885D01*
X56173Y920526D01*
X55000Y920237D01*
X53811Y920019D01*
X52611Y919873D01*
X51404Y919800D01*
X50196Y919800D01*
X48989Y919873D01*
X47789Y920019D01*
X46600Y920237D01*
X45427Y920526D01*
X44273Y920885D01*
X43143Y921314D01*
X42041Y921810D01*
X40970Y922372D01*
X39936Y922997D01*
X38941Y923684D01*
X37990Y924429D01*
X37085Y925231D01*
X36231Y926085D01*
X35429Y926990D01*
X34684Y927941D01*
X33997Y928936D01*
X33372Y929970D01*
X32810Y931041D01*
X32314Y932143D01*
X31885Y933273D01*
X31526Y934427D01*
X31237Y935600D01*
X31019Y936789D01*
X30873Y937989D01*
X30800Y939196D01*
X30800Y940404D01*
X30873Y941611D01*
X31019Y942811D01*
X31237Y944000D01*
X31526Y945173D01*
X31885Y946327D01*
X32314Y947457D01*
X32810Y948559D01*
X33372Y949630D01*
X33997Y950664D01*
X34684Y951659D01*
X35429Y952610D01*
X36231Y953515D01*
X37085Y954369D01*
X37990Y955171D01*
X38941Y955916D01*
X39936Y956603D01*
X40970Y957228D01*
X42041Y957790D01*
X43143Y958286D01*
X44273Y958715D01*
X45427Y959074D01*
X46600Y959363D01*
X47789Y959581D01*
X48989Y959727D01*
X50196Y959800D01*
X51404Y959800D01*
X52611Y959727D01*
X53811Y959581D01*
X55000Y959363D01*
X56173Y959074D01*
X57327Y958715D01*
X58457Y958286D01*
X59559Y957790D01*
X60630Y957228D01*
X61664Y956603D01*
X62659Y955916D01*
X63610Y955171D01*
X64515Y954369D01*
X65369Y953515D01*
X66171Y952610D01*
X66916Y951659D01*
X67603Y950664D01*
X68228Y949630D01*
X68790Y948559D01*
X69286Y947457D01*
X69715Y946327D01*
X70074Y945173D01*
X70363Y944000D01*
X70581Y942811D01*
X70727Y941611D01*
X70800Y940404D01*
X70800Y939196D01*
X578800Y939196D02*
X578727Y937989D01*
X578581Y936789D01*
X578363Y935600D01*
X578074Y934427D01*
X577715Y933273D01*
X577286Y932143D01*
X576790Y931041D01*
X576228Y929970D01*
X575603Y928936D01*
X574916Y927941D01*
X574171Y926990D01*
X573369Y926085D01*
X572515Y925231D01*
X571610Y924429D01*
X570659Y923684D01*
X569664Y922997D01*
X568630Y922372D01*
X567559Y921810D01*
X566457Y921314D01*
X565327Y920885D01*
X564173Y920526D01*
X563000Y920237D01*
X561811Y920019D01*
X560611Y919873D01*
X559404Y919800D01*
X558196Y919800D01*
X556989Y919873D01*
X555789Y920019D01*
X554600Y920237D01*
X553427Y920526D01*
X552273Y920885D01*
X551143Y921314D01*
X550041Y921810D01*
X548970Y922372D01*
X547936Y922997D01*
X546941Y923684D01*
X545990Y924429D01*
X545085Y925231D01*
X544231Y926085D01*
X543429Y926990D01*
X542684Y927941D01*
X541997Y928936D01*
X541372Y929970D01*
X540810Y931041D01*
X540314Y932143D01*
X539885Y933273D01*
X539526Y934427D01*
X539237Y935600D01*
X539019Y936789D01*
X538873Y937989D01*
X538800Y939196D01*
X538800Y940404D01*
X538873Y941611D01*
X539019Y942811D01*
X539237Y944000D01*
X539526Y945173D01*
X539885Y946327D01*
X540314Y947457D01*
X540810Y948559D01*
X541372Y949630D01*
X541997Y950664D01*
X542684Y951659D01*
X543429Y952610D01*
X544231Y953515D01*
X545085Y954369D01*
X545990Y955171D01*
X546941Y955916D01*
X547936Y956603D01*
X548970Y957228D01*
X550041Y957790D01*
X551143Y958286D01*
X552273Y958715D01*
X553427Y959074D01*
X554600Y959363D01*
X555789Y959581D01*
X556989Y959727D01*
X558196Y959800D01*
X559404Y959800D01*
X560611Y959727D01*
X561811Y959581D01*
X563000Y959363D01*
X564173Y959074D01*
X565327Y958715D01*
X566457Y958286D01*
X567559Y957790D01*
X568630Y957228D01*
X569664Y956603D01*
X570659Y955916D01*
X571610Y955171D01*
X572515Y954369D01*
X573369Y953515D01*
X574171Y952610D01*
X574916Y951659D01*
X575603Y950664D01*
X576228Y949630D01*
X576790Y948559D01*
X577286Y947457D01*
X577715Y946327D01*
X578074Y945173D01*
X578363Y944000D01*
X578581Y942811D01*
X578727Y941611D01*
X578800Y940404D01*
X578800Y939196D01*
X166370Y240801D02*
X166299Y239806D01*
X166157Y238818D01*
X165945Y237843D01*
X165664Y236885D01*
X165315Y235951D01*
X164900Y235043D01*
X164422Y234167D01*
X163883Y233328D01*
X163285Y232529D01*
X162631Y231775D01*
X161925Y231069D01*
X161171Y230415D01*
X160373Y229817D01*
X159533Y229278D01*
X158657Y228800D01*
X157750Y228385D01*
X156815Y228036D01*
X155857Y227755D01*
X154882Y227543D01*
X153894Y227401D01*
X152899Y227330D01*
X151901Y227330D01*
X150906Y227401D01*
X149918Y227543D01*
X148943Y227755D01*
X147985Y228036D01*
X147051Y228385D01*
X146143Y228800D01*
X145267Y229278D01*
X144428Y229817D01*
X143629Y230415D01*
X142875Y231069D01*
X142169Y231775D01*
X141515Y232529D01*
X140917Y233328D01*
X140378Y234167D01*
X139900Y235043D01*
X139485Y235951D01*
X139136Y236885D01*
X138855Y237843D01*
X138643Y238818D01*
X138501Y239806D01*
X138430Y240801D01*
X138430Y241799D01*
X138501Y242794D01*
X138643Y243782D01*
X138855Y244757D01*
X139136Y245715D01*
X139485Y246650D01*
X139900Y247557D01*
X140378Y248433D01*
X140917Y249273D01*
X141515Y250071D01*
X142169Y250825D01*
X142875Y251531D01*
X143629Y252185D01*
X144428Y252783D01*
X145267Y253322D01*
X146143Y253800D01*
X147051Y254215D01*
X147985Y254564D01*
X148943Y254845D01*
X149918Y255057D01*
X150906Y255199D01*
X151901Y255270D01*
X152899Y255270D01*
X153894Y255199D01*
X154882Y255057D01*
X155857Y254845D01*
X156815Y254564D01*
X157750Y254215D01*
X158657Y253800D01*
X159533Y253322D01*
X160373Y252783D01*
X161171Y252185D01*
X161925Y251531D01*
X162631Y250825D01*
X163285Y250071D01*
X163883Y249273D01*
X164422Y248433D01*
X164900Y247557D01*
X165315Y246650D01*
X165664Y245715D01*
X165945Y244757D01*
X166157Y243782D01*
X166299Y242794D01*
X166370Y241799D01*
X166370Y240801D01*
X72870Y775798D02*
X72803Y775460D01*
X72671Y775141D01*
X72479Y774854D01*
X72236Y774611D01*
X71949Y774419D01*
X71630Y774287D01*
X71292Y774220D01*
X70948Y774220D01*
X70610Y774287D01*
X70291Y774419D01*
X70004Y774611D01*
X69761Y774854D01*
X69569Y775141D01*
X69437Y775460D01*
X69370Y775798D01*
X69370Y776142D01*
X69437Y776480D01*
X69569Y776799D01*
X69761Y777086D01*
X70004Y777329D01*
X70291Y777521D01*
X70610Y777653D01*
X70948Y777720D01*
X71292Y777720D01*
X71630Y777653D01*
X71949Y777521D01*
X72236Y777329D01*
X72479Y777086D01*
X72671Y776799D01*
X72803Y776480D01*
X72870Y776142D01*
X72870Y775798D01*
X199870Y775798D02*
X199803Y775460D01*
X199671Y775141D01*
X199479Y774854D01*
X199236Y774611D01*
X198949Y774419D01*
X198630Y774287D01*
X198292Y774220D01*
X197948Y774220D01*
X197610Y774287D01*
X197291Y774419D01*
X197004Y774611D01*
X196761Y774854D01*
X196569Y775141D01*
X196437Y775460D01*
X196370Y775798D01*
X196370Y776142D01*
X196437Y776480D01*
X196569Y776799D01*
X196761Y777086D01*
X197004Y777329D01*
X197291Y777521D01*
X197610Y777653D01*
X197948Y777720D01*
X198292Y777720D01*
X198630Y777653D01*
X198949Y777521D01*
X199236Y777329D01*
X199479Y777086D01*
X199671Y776799D01*
X199803Y776480D01*
X199870Y776142D01*
X199870Y775798D01*
M02*
