G04 EAGLE Gerber RS-274X export*
G75*
%MOMM*%
%FSLAX34Y34*%
%LPD*%
%INSolderpaste Top*%
%IPPOS*%
%AMOC8*
5,1,8,0,0,1.08239X$1,22.5*%
G01*
%ADD10R,2.600000X2.600000*%
%ADD11R,1.070000X2.160000*%
%ADD12R,3.500000X2.500000*%
%ADD13C,0.582500*%
%ADD14R,4.000000X1.600000*%
%ADD15R,1.500000X1.300000*%
%ADD16R,1.200000X1.200000*%
%ADD17R,1.300000X1.500000*%
%ADD18C,0.237500*%
%ADD19C,0.563000*%
%ADD20R,1.300000X1.600000*%
%ADD21R,1.400000X2.600000*%
%ADD22R,1.600000X1.803000*%
%ADD23R,1.803000X1.600000*%


D10*
X529800Y184200D03*
X486200Y222200D03*
X486200Y184200D03*
X529800Y222200D03*
D11*
X542000Y306550D03*
X525000Y306550D03*
X508000Y306550D03*
X491000Y306550D03*
X474000Y306550D03*
D12*
X412100Y317500D03*
X286400Y317500D03*
D13*
X427512Y406662D02*
X444988Y406662D01*
X427512Y406662D02*
X427512Y431538D01*
X444988Y431538D01*
X444988Y406662D01*
X444988Y412196D02*
X427512Y412196D01*
X427512Y417730D02*
X444988Y417730D01*
X444988Y423264D02*
X427512Y423264D01*
X427512Y428798D02*
X444988Y428798D01*
X494812Y406662D02*
X512288Y406662D01*
X494812Y406662D02*
X494812Y431538D01*
X512288Y431538D01*
X512288Y406662D01*
X512288Y412196D02*
X494812Y412196D01*
X494812Y417730D02*
X512288Y417730D01*
X512288Y423264D02*
X494812Y423264D01*
X494812Y428798D02*
X512288Y428798D01*
D14*
X307400Y444500D03*
X378400Y444500D03*
X332800Y203200D03*
X403800Y203200D03*
D15*
X533400Y377800D03*
X533400Y358800D03*
X571500Y377800D03*
X571500Y358800D03*
D16*
X315300Y698500D03*
X294300Y698500D03*
X315300Y736600D03*
X294300Y736600D03*
D17*
X257200Y698500D03*
X276200Y698500D03*
X257200Y736600D03*
X276200Y736600D03*
D16*
X315300Y660400D03*
X294300Y660400D03*
D18*
X466337Y547123D02*
X466337Y539997D01*
X466337Y547123D02*
X489863Y547123D01*
X489863Y539997D01*
X466337Y539997D01*
X466337Y542253D02*
X489863Y542253D01*
X489863Y544509D02*
X466337Y544509D01*
X466337Y546765D02*
X489863Y546765D01*
D19*
X519715Y546035D02*
X519715Y495365D01*
X519715Y546035D02*
X573485Y546035D01*
X573485Y495365D01*
X519715Y495365D01*
X519715Y500713D02*
X573485Y500713D01*
X573485Y506061D02*
X519715Y506061D01*
X519715Y511409D02*
X573485Y511409D01*
X573485Y516757D02*
X519715Y516757D01*
X519715Y522105D02*
X573485Y522105D01*
X573485Y527453D02*
X519715Y527453D01*
X519715Y532801D02*
X573485Y532801D01*
X573485Y538149D02*
X519715Y538149D01*
X519715Y543497D02*
X573485Y543497D01*
D18*
X466337Y501403D02*
X466337Y494277D01*
X466337Y501403D02*
X489863Y501403D01*
X489863Y494277D01*
X466337Y494277D01*
X466337Y496533D02*
X489863Y496533D01*
X489863Y498789D02*
X466337Y498789D01*
X466337Y501045D02*
X489863Y501045D01*
D20*
X416720Y162560D03*
X436720Y162560D03*
X472600Y469900D03*
X492600Y469900D03*
D21*
X558800Y411300D03*
X558800Y452300D03*
D20*
X470060Y337820D03*
X490060Y337820D03*
D16*
X315300Y774700D03*
X294300Y774700D03*
D17*
X257200Y774700D03*
X276200Y774700D03*
D13*
X118588Y431538D02*
X101112Y431538D01*
X118588Y431538D02*
X118588Y406662D01*
X101112Y406662D01*
X101112Y431538D01*
X101112Y412196D02*
X118588Y412196D01*
X118588Y417730D02*
X101112Y417730D01*
X101112Y423264D02*
X118588Y423264D01*
X118588Y428798D02*
X101112Y428798D01*
X51288Y431538D02*
X33812Y431538D01*
X51288Y431538D02*
X51288Y406662D01*
X33812Y406662D01*
X33812Y431538D01*
X33812Y412196D02*
X51288Y412196D01*
X51288Y417730D02*
X33812Y417730D01*
X33812Y423264D02*
X51288Y423264D01*
X51288Y428798D02*
X33812Y428798D01*
D15*
X224790Y333350D03*
X224790Y314350D03*
D22*
X273300Y660400D03*
X244860Y660400D03*
D17*
X432410Y806450D03*
X413410Y806450D03*
X291490Y551180D03*
X310490Y551180D03*
X290220Y511810D03*
X309220Y511810D03*
D23*
X153670Y324870D03*
X153670Y353310D03*
D22*
X130560Y295910D03*
X159000Y295910D03*
D13*
X114788Y139962D02*
X97312Y139962D01*
X97312Y164838D01*
X114788Y164838D01*
X114788Y139962D01*
X114788Y145496D02*
X97312Y145496D01*
X97312Y151030D02*
X114788Y151030D01*
X114788Y156564D02*
X97312Y156564D01*
X97312Y162098D02*
X114788Y162098D01*
X164612Y139962D02*
X182088Y139962D01*
X164612Y139962D02*
X164612Y164838D01*
X182088Y164838D01*
X182088Y139962D01*
X182088Y145496D02*
X164612Y145496D01*
X164612Y151030D02*
X182088Y151030D01*
X182088Y156564D02*
X164612Y156564D01*
X164612Y162098D02*
X182088Y162098D01*
D23*
X294640Y148340D03*
X294640Y176780D03*
M02*
