G04 EAGLE Gerber RS-274X export*
G75*
%MOMM*%
%FSLAX34Y34*%
%LPD*%
%INSoldermask Bottom*%
%IPPOS*%
%AMOC8*
5,1,8,0,0,1.08239X$1,22.5*%
G01*
%ADD10C,4.203200*%
%ADD11R,2.213200X2.213200*%
%ADD12C,2.213200*%
%ADD13C,2.743200*%
%ADD14C,2.997200*%
%ADD15C,2.184400*%
%ADD16C,1.311200*%
%ADD17C,0.553200*%
%ADD18C,1.727200*%
%ADD19R,2.063200X2.063200*%
%ADD20C,2.063200*%
%ADD21C,1.703200*%
%ADD22C,1.553200*%


D10*
X50800Y63500D03*
X558800Y63500D03*
X50800Y939800D03*
X558800Y939800D03*
D11*
X266700Y101600D03*
D12*
X266700Y76200D03*
X266700Y50800D03*
D13*
X76200Y228600D02*
X76200Y254000D01*
X228600Y254000D02*
X228600Y228600D01*
D14*
X152400Y241300D03*
D15*
X101854Y86106D02*
X101854Y66294D01*
X152146Y66294D02*
X152146Y86106D01*
X444754Y86106D02*
X444754Y66294D01*
X495046Y66294D02*
X495046Y86106D01*
X343154Y86106D02*
X343154Y66294D01*
X393446Y66294D02*
X393446Y86106D01*
X311404Y941324D02*
X311404Y961136D01*
X361696Y961136D02*
X361696Y941324D01*
D16*
X71120Y699770D03*
X96520Y699770D03*
X121920Y699770D03*
X147320Y699770D03*
X172720Y699770D03*
X198120Y699770D03*
D17*
X71120Y775970D03*
X198120Y775970D03*
D16*
X71120Y487680D03*
X71120Y513080D03*
X71120Y538480D03*
X71120Y563880D03*
X71120Y589280D03*
X71120Y614680D03*
X71120Y640080D03*
X71120Y665480D03*
D15*
X108204Y941324D02*
X108204Y961136D01*
X158496Y961136D02*
X158496Y941324D01*
X209804Y941324D02*
X209804Y961136D01*
X260096Y961136D02*
X260096Y941324D01*
X510794Y660654D02*
X530606Y660654D01*
X530606Y710946D02*
X510794Y710946D01*
D18*
X177800Y452120D02*
X177800Y436880D01*
X203200Y436880D02*
X203200Y452120D01*
X228600Y452120D02*
X228600Y436880D01*
D19*
X101600Y342900D03*
D20*
X76200Y342900D03*
X50800Y342900D03*
D15*
X413004Y941324D02*
X413004Y961136D01*
X463296Y961136D02*
X463296Y941324D01*
D21*
X315000Y680000D03*
D22*
X111760Y295910D03*
X224790Y353060D03*
X151130Y116840D03*
X140970Y419100D03*
X190500Y287020D03*
X190500Y200660D03*
X193040Y361950D03*
X50800Y374650D03*
D21*
X295000Y615000D03*
X294640Y199390D03*
M02*
